<?xml version="1.0" encoding="UTF-8" standalone="no"?> <svg xmlns="http://www.w3.org/2000/svg" xmlns:vectornator="http://vectornator.io" xmlns:xlink="http://www.w3.org/1999/xlink" height="100%" stroke-miterlimit="10" style="fill-rule:nonzero;clip-rule:evenodd;stroke-linecap:round;stroke-linejoin:round;" version="1.1" viewBox="0 0 361.134 409.748" width="100%" xml:space="preserve"> <defs></defs> <clipPath id="ArtboardFrame"> <rect height="409.748" width="361.134" x="0" y="0"></rect> </clipPath> <g clip-path="url(#ArtboardFrame)" id="Layer-1" vectornator:layerName="Layer 1"> <g opacity="1"> <path d="M27.7792 2.56726e-05C27.7792 2.56726e-05-2.60415e-06 2.56726e-05-2.60415e-06 27.78L-2.60415e-06 381.969C-2.60415e-06 381.969-2.60415e-06 409.748 27.7792 409.748L333.354 409.748C333.354 409.748 361.134 409.748 361.134 381.969L361.134 27.78C361.134 27.78 361.134 2.56726e-05 333.354 2.56726e-05L27.7792 2.56726e-05" fill="#1f418c" fill-rule="evenodd" opacity="1" stroke="none"></path> <path d="M61.5379 333.596C61.8792 332.971 62.2192 332.403 62.4472 331.777C62.7312 331.152 62.9592 330.527 63.2432 329.901C64.1525 327.969 64.7779 327.231 64.7779 326.207C64.7779 325.184 63.6979 325.071 63.4699 325.071C62.0485 325.071 60.6845 325.241 59.2645 325.241C58.5819 325.241 57.8992 325.184 57.2179 325.127C57.0472 325.127 56.1379 324.956 55.3419 325.013C54.3192 325.127 54.0352 326.036 53.8072 326.776C53.4099 327.856 52.8979 328.879 52.4432 329.901C52.2152 330.471 51.9885 331.039 51.7045 331.607C51.5339 332.061 51.2499 332.516 51.0792 332.971C51.0219 333.141 50.1125 335.359 49.9419 335.529C49.8285 335.7 49.6019 335.813 49.5445 335.813C49.2605 335.813 49.2605 335.017 49.2605 334.847C49.2605 333.995 49.3165 333.199 49.3165 332.345C49.3165 331.323 49.2032 330.413 49.2605 329.447C49.2605 328.595 49.4312 327.685 49.4312 326.776C49.4312 326.776 49.6019 325.468 48.4645 325.184C48.1232 325.127 47.1005 325.127 46.0205 325.184C44.7125 325.241 43.4059 325.184 42.0419 325.184L41.1325 325.184C40.6205 325.241 40.1085 325.071 39.5979 325.411C39.2565 325.696 39.1432 325.923 39.0859 326.548L39.0859 327.344C39.0859 328.196 39.1432 329.049 39.1992 329.959C39.2565 330.925 39.3125 331.948 39.3125 332.971C39.3125 334.676 39.1992 336.439 39.1432 338.144C39.1432 339.28 39.1992 340.473 39.2565 341.611C39.3125 343.259 39.2565 344.851 39.2565 346.499C39.2565 347.807 39.3125 349.113 39.3699 350.421C39.3699 351.956 39.2565 353.491 39.2565 355.025C39.1992 356.731 39.4272 358.436 39.3699 360.14C39.3125 361.96 39.0285 363.835 39.1992 364.404C39.4272 365.029 40.1085 365.369 40.6779 365.369C41.0179 365.369 41.4165 365.313 41.7579 365.256C42.7232 365.199 43.6899 365.199 44.7125 365.199C45.6219 365.199 46.5885 365.256 47.5552 365.256C48.3512 365.256 48.6912 365.313 49.1459 364.972C49.7152 364.517 49.7152 364.063 49.7152 363.096C49.7152 361.845 49.4872 360.652 49.4312 359.459C49.3739 357.696 49.4312 355.991 49.4312 354.229C49.4312 353.263 49.3739 352.012 49.4312 351.841C49.4872 351.785 49.6019 351.444 49.7712 351.444C50.3965 351.444 50.9659 353.775 51.4765 355.139C51.7605 355.877 52.0459 356.673 52.3299 357.412C52.8405 358.891 53.2952 360.255 53.6939 361.675C53.8645 362.129 53.9779 362.528 54.0912 362.983C54.3192 363.949 54.3752 364.233 54.7739 364.631C55.5125 365.427 56.1952 365.199 57.8992 365.143C58.6952 365.143 59.4912 365.085 60.2872 365.085C60.9699 365.085 61.6512 365.143 62.3339 365.143L63.8685 365.143C64.6632 365.199 65.1192 364.744 65.2885 364.347C65.4032 364.176 65.4032 363.835 65.4032 363.779C65.4032 362.415 64.5499 361.335 63.9819 360.027C63.5832 359.117 63.3565 358.208 63.0152 357.356C62.8445 356.844 62.6179 356.389 62.4472 355.877C61.9925 354.797 61.6512 353.661 61.1965 352.581C60.9125 351.841 60.5139 351.047 60.2872 350.251C60.0032 349.625 59.8325 348.943 59.6619 348.261C59.2645 347.068 58.6952 345.931 58.1845 344.737C57.6725 343.6 57.2752 342.919 57.2752 342.407C57.2752 341.44 57.8992 340.872 58.7525 339.053C59.2072 338.2 59.4912 337.291 59.9459 336.439C60.2299 335.984 60.5139 335.472 60.8552 334.96L61.5379 333.596ZM88.5365 350.819C88.5365 350.421 88.5939 350.08 88.5939 349.681C88.5939 348.772 88.4792 347.807 88.4792 346.84C88.4232 345.419 88.5939 343.997 88.5939 342.577C88.5939 340.872 88.4232 339.393 88.2525 338.769C88.1392 338.144 87.7405 337.404 87.2859 336.893C86.3765 335.813 85.1259 335.301 84.1032 334.904C81.0912 333.653 78.3059 333.709 77.2819 333.767C75.9179 333.824 74.6672 333.995 73.3605 334.221C72.8485 334.335 72.3379 334.449 71.8259 334.505C70.7459 334.733 69.6085 334.96 69.2672 335.131C68.5285 335.415 68.1885 336.04 68.1312 336.268C68.0179 336.609 68.0739 337.007 68.1312 337.348L68.1312 340.36C68.0739 341.327 67.9605 342.349 68.6992 343.145C69.0979 343.487 69.6085 343.543 69.7232 343.543C70.4045 343.543 71.4272 342.975 72.1099 342.748C73.5312 342.179 74.7245 342.123 75.2365 342.123C75.8045 342.123 76.3165 342.236 76.8845 342.236C77.5659 342.293 78.5899 342.179 79.2712 342.748C79.7832 343.088 79.9539 343.828 79.9539 344.283C79.9539 344.567 79.7259 345.476 78.8165 345.476C78.6459 345.476 78.4765 345.476 78.3059 345.419C77.3965 345.305 76.4859 345.248 75.5765 345.248C73.6445 345.248 73.0192 345.647 71.1432 346.499C69.7792 347.068 69.1539 347.408 67.9605 348.887C67.7899 349.171 66.9379 350.193 66.6539 351.16C66.4832 351.615 66.4259 352.127 66.3685 352.581C66.1979 353.945 66.1979 355.309 66.1979 356.673C66.1979 356.9 66.1419 357.98 66.3685 358.891C66.4832 359.401 66.5965 359.856 66.7672 360.311C67.1085 361.107 67.3925 361.675 67.6192 362.016C69.2672 364.46 71.5419 365.256 72.3939 365.484C73.1899 365.655 74.0419 365.711 74.8379 365.711C75.2925 365.711 76.7712 365.768 78.1912 365.143C78.4765 365.029 78.9312 364.744 79.2152 364.575C79.4419 364.347 79.6699 364.063 79.9539 364.005C80.3512 364.063 80.3512 364.631 80.5219 364.859C80.6352 365.029 80.9205 365.313 81.3752 365.313C81.6019 365.313 81.8299 365.256 82.1139 365.256C82.8525 365.256 83.5912 365.143 84.3299 365.143C84.7845 365.143 87.0019 365.313 87.3992 365.199C87.9685 365.085 88.5939 364.688 88.5939 363.664C88.5939 362.471 88.4232 361.277 88.4232 360.14C88.4232 358.891 88.5939 357.64 88.5939 356.389C88.5939 355.48 88.5939 354.571 88.5365 353.604L88.5365 350.819ZM77.7365 352.069C79.5565 351.956 79.9539 353.945 79.9539 355.025C79.9539 356.048 79.7259 356.844 79.5565 357.185C79.5565 357.185 79.4419 357.469 79.2712 357.64C78.9312 358.037 78.4192 358.436 77.5659 358.436C76.7139 358.436 76.1459 357.867 75.8619 357.469C75.6912 357.241 75.4072 356.389 75.4072 355.593C75.4072 354.741 75.6912 353.717 75.7472 353.491C76.0312 352.979 76.7139 352.127 77.7365 352.069ZM104.906 363.892C104.906 364.005 104.85 364.915 105.759 365.313C106.101 365.427 106.726 365.369 107.521 365.313C108.545 365.313 109.51 365.256 110.534 365.256C110.931 365.256 111.273 365.256 111.614 365.313C112.694 365.369 113.319 365.597 113.887 365.143C114.739 364.517 114.455 363.721 114.399 363.04C114.342 362.129 114.342 361.22 114.342 360.368C114.342 358.833 114.399 357.356 114.513 355.877C114.569 354.172 114.513 352.411 114.513 350.705C114.513 349.397 114.626 348.091 114.683 346.783C114.683 346.101 114.626 344.908 114.967 344.225C115.251 343.657 115.877 343.429 116.331 343.429C118.15 343.429 118.037 345.76 118.037 345.873C118.094 347.068 118.15 348.375 118.094 349.568C118.094 350.364 118.037 351.16 117.979 351.956C117.979 352.581 118.037 353.207 118.037 353.831C118.037 354.627 117.979 355.365 117.979 356.161C117.923 357.185 117.923 358.265 117.923 359.345C117.923 360.084 117.923 360.823 117.866 361.505C117.866 362.187 117.753 362.869 117.753 363.551C117.753 364.12 117.809 364.517 118.263 364.972C118.718 365.369 119.117 365.369 119.287 365.369C120.538 365.369 121.845 365.256 123.095 365.256C124.402 365.256 126.278 365.369 126.506 365.313C127.187 365.143 127.245 364.347 127.302 363.892C127.358 363.38 127.415 362.925 127.415 362.415C127.415 361.561 127.302 360.709 127.245 359.856C127.245 359.004 127.415 358.151 127.471 357.299C127.529 356.731 127.529 356.161 127.529 355.593C127.529 355.139 127.586 354.684 127.529 354.287C127.529 353.775 127.471 353.263 127.415 352.752C127.415 352.012 127.471 351.331 127.529 350.648C127.529 349.681 127.358 348.772 127.358 347.807C127.358 346.727 127.529 345.647 127.529 344.567C127.529 343.771 127.415 342.975 127.358 342.179C127.131 340.417 127.187 339.849 126.391 338.087C126.107 337.404 125.823 336.552 124.402 335.415C123.55 334.676 122.073 333.88 119.969 333.824C118.094 333.824 116.615 334.505 115.934 334.847C115.706 334.96 115.138 335.244 114.91 335.415C114.91 335.415 114.001 336.155 113.546 336.155C112.978 336.211 112.41 335.472 111.273 334.847C109.226 333.824 107.691 333.767 106.895 333.824C106.385 333.824 105.191 333.88 103.826 334.676C103.145 335.075 103.087 335.301 102.69 335.643C102.577 335.7 102.462 335.756 102.406 335.756C101.951 335.756 101.951 335.017 101.666 334.62L101.326 334.279C100.927 333.995 100.473 334.051 100.359 334.051C99.4499 334.051 98.5965 334.164 97.7445 334.221C96.6072 334.279 95.5272 334.164 94.3912 334.164C93.6525 334.164 93.2539 334.221 92.8565 334.505C92.0605 335.244 92.1739 336.609 92.1739 336.609C92.1739 337.745 92.2312 338.939 92.2312 340.076C92.2312 341.781 92.1179 343.429 92.1179 345.135C92.0605 347.408 92.2872 349.681 92.2312 351.899C92.2312 352.979 92.1739 354.059 92.1179 355.139C92.1179 356.673 92.2312 358.208 92.2872 359.685C92.2872 360.595 92.2872 361.505 92.2312 362.415C92.1739 363.38 92.1179 363.835 92.2312 364.289C92.2872 364.915 92.7432 365.256 92.9699 365.313C93.3112 365.484 94.0499 365.427 94.9592 365.369C95.9259 365.369 97.0059 365.313 98.0285 365.313C99.3365 365.313 100.473 365.427 100.927 365.085C101.382 364.801 101.61 364.176 101.61 363.721C101.61 363.267 101.553 362.755 101.497 362.3C101.439 361.22 101.439 360.14 101.439 359.06C101.439 358.095 101.439 357.128 101.497 356.161C101.497 355.196 101.553 354.229 101.553 353.263C101.553 352.467 101.553 351.615 101.497 350.819C101.439 350.137 101.382 349.455 101.382 348.772C101.382 348.375 101.439 347.92 101.439 347.465C101.497 346.669 101.439 345.873 101.553 345.077C101.61 344.851 101.61 344.623 101.723 344.396C102.065 343.713 102.746 343.373 103.201 343.373C103.542 343.373 104.281 343.429 104.735 344.396C105.077 345.021 105.021 345.533 105.021 346.84C105.021 347.692 104.963 348.488 105.021 349.341C105.021 350.08 105.077 350.819 105.077 351.501C105.077 352.069 105.021 352.637 105.021 353.207C105.077 353.717 105.077 354.229 105.134 354.741C105.134 355.593 105.077 356.389 105.021 357.241C105.021 358.037 105.077 358.891 105.021 359.743C105.021 360.425 104.963 361.164 104.906 361.845L104.906 363.892ZM140.317 367.019C140.261 366.677 140.261 366.336 140.261 365.995C140.261 365.597 140.431 364.915 140.886 364.915C141.17 364.915 141.966 365.369 142.306 365.484C143.215 365.824 144.466 365.881 144.637 365.881C148.73 365.881 151.514 362.244 152.367 360.595C152.935 359.345 153.277 357.867 153.334 357.583C153.902 355.821 154.299 354.797 154.299 351.557C154.299 350.421 154.299 349.341 154.243 348.261C154.186 343.429 154.186 343.543 153.277 340.417C152.993 339.28 152.822 338.769 152.139 337.632C151.855 337.12 151.685 336.779 150.775 335.869C150.321 335.415 150.265 335.359 149.753 335.017C147.763 333.653 145.546 333.596 144.978 333.653C143.955 333.709 143.102 334.051 142.705 334.279C142.591 334.335 141.681 334.904 141.17 335.585C140.999 335.869 140.771 336.268 140.601 336.268C140.431 336.268 140.374 335.813 140.374 335.756C140.317 335.415 140.431 335.188 140.431 334.96C140.431 333.88 139.237 333.937 139.123 333.937C138.669 333.937 138.271 333.995 137.817 334.051C137.418 334.108 136.963 334.108 136.509 334.108C135.713 334.108 134.974 334.051 134.235 334.051L133.382 334.051C132.814 333.995 132.417 333.824 131.734 334.392C131.053 335.075 131.053 335.756 131.053 337.235C131.109 338.712 131.166 340.189 131.166 341.668C131.166 342.52 131.109 343.373 131.109 344.225C131.109 345.192 131.223 346.101 131.223 347.068C131.279 348.432 131.109 349.739 131.053 351.103C131.053 351.672 131.053 352.24 131.109 352.808C131.166 355.309 131.223 357.811 131.223 360.368C131.223 362.244 131.166 364.176 131.166 366.109C131.109 366.733 131.166 367.416 131.109 368.099C131.109 368.667 130.995 369.121 131.45 369.747C132.018 370.372 132.814 370.315 134.178 370.259L137.93 370.259C138.839 370.315 139.407 370.428 139.862 370.144C140.317 369.747 140.317 369.064 140.317 368.667L140.317 367.019ZM142.534 343.713C143.386 343.6 144.295 344.453 144.523 345.305C144.75 346.044 144.865 349.455 144.865 350.137C144.865 352.069 144.637 353.717 144.466 354.4C144.182 355.196 143.443 356.105 142.647 356.105C141.909 356.105 141.454 355.593 141.283 355.309C140.715 354.513 140.601 353.604 140.601 353.376C140.431 352.524 140.431 351.672 140.431 350.819C140.431 348.545 140.601 346.727 140.771 345.931C140.886 345.419 141.283 344.453 141.795 344.055C142.079 343.828 142.477 343.713 142.534 343.713ZM169.817 347.181C169.873 346.783 169.873 346.612 169.873 346.385C169.759 346.101 169.305 345.703 169.021 345.589C168.737 345.533 168.453 345.533 168.169 345.533C167.77 345.533 167.429 345.533 167.089 345.589C166.69 345.589 166.293 345.703 165.951 345.703C165.383 345.703 164.814 345.589 164.303 345.589C163.678 345.647 162.995 345.76 162.37 345.76C161.405 345.76 160.495 345.703 159.585 345.647C159.074 345.647 158.619 345.476 158.221 345.76C157.482 346.272 157.653 347.068 157.653 347.692C157.71 348.261 157.71 348.829 157.71 349.341C157.71 350.193 157.653 350.989 157.653 351.841C157.595 352.411 157.653 353.036 158.221 353.433C158.619 353.661 158.961 353.604 159.358 353.547L160.381 353.547C160.665 353.547 161.006 353.547 161.29 353.491C161.802 353.433 162.37 353.32 162.882 353.32C163.621 353.32 164.303 353.376 164.985 353.433C166.065 353.547 167.145 353.547 168.282 353.547C168.85 353.547 169.134 353.433 169.475 353.149C169.93 352.637 169.817 352.183 169.817 351.273L169.817 347.181ZM184.31 345.135C184.367 344.509 184.425 343.884 184.425 343.259C184.367 342.463 184.31 341.611 184.254 340.759C184.254 339.679 184.31 338.541 184.367 337.461C184.425 335.756 184.254 334.051 184.254 332.403C184.254 331.152 184.31 329.901 184.425 328.708C184.425 328.367 184.481 328.083 184.538 327.741C184.538 327.457 184.594 327.116 184.594 326.832C184.594 326.036 184.367 325.525 183.514 325.241C182.662 324.956 179.99 325.241 179.138 325.241C178.57 325.241 178.058 325.241 177.546 325.184C177.035 325.127 176.523 325.071 176.011 325.071C175.898 325.071 175.217 325.071 174.705 325.581C174.193 326.093 174.137 326.491 174.137 327.571C174.137 328.992 174.25 330.471 174.25 331.948C174.25 333.199 174.137 334.505 174.079 335.813C174.079 337.007 174.193 338.2 174.193 339.451C174.193 340.304 174.137 341.156 174.079 342.065C174.079 343.487 174.25 344.964 174.193 346.385C174.193 347.863 173.966 349.397 173.966 350.876C173.966 352.127 174.022 353.32 174.022 354.513C174.079 355.252 174.137 355.935 174.137 356.673C174.193 357.696 174.079 358.776 174.022 359.856C174.022 360.255 173.909 363.551 174.022 363.949C174.079 364.233 174.25 364.575 174.534 364.859C175.273 365.597 176.41 365.369 178.229 365.313C179.025 365.256 179.821 365.256 180.673 365.256C181.695 365.313 182.719 365.256 183.742 365.256C184.822 365.256 185.902 365.313 186.982 365.313C187.891 365.256 188.801 365.199 189.71 365.256C191.074 365.313 191.927 365.484 192.553 365.256C193.121 365.085 193.462 364.46 193.518 364.289C193.633 364.005 193.575 363.324 193.575 363.04C193.575 362.187 193.689 361.391 193.689 360.539C193.689 358.833 193.633 357.412 193.518 356.787C193.291 356.048 192.893 355.365 191.415 355.365C190.961 355.365 190.506 355.423 190.051 355.423C189.654 355.48 189.198 355.48 188.743 355.423C187.778 355.423 186.47 355.651 185.447 354.911C184.139 353.888 184.31 352.24 184.367 351.103C184.425 350.023 184.31 348.943 184.31 347.863L184.31 345.135ZM205.739 328.083C205.682 327.003 205.739 326.207 205.341 325.752C205.227 325.581 204.999 325.468 204.83 325.355C203.977 324.843 203.351 325.127 202.499 325.184C201.646 325.184 200.794 325.184 199.885 325.127C199.315 325.127 198.747 325.071 198.179 325.071C196.587 325.071 196.303 326.264 196.303 326.832C196.246 327.06 196.246 327.287 196.246 327.515C196.246 327.969 196.303 328.424 196.303 328.879C196.303 329.675 196.19 330.64 196.758 331.323C197.383 332.061 198.35 331.891 199.031 331.891L200.681 331.891C201.59 331.948 202.555 331.891 203.409 331.891C203.921 331.891 204.147 331.891 204.375 331.835C205.398 331.607 205.739 330.755 205.739 329.333L205.739 328.083ZM205.739 352.411C205.795 351.501 205.625 350.592 205.625 349.681C205.569 348.545 205.625 347.465 205.682 346.328C205.739 344.112 205.625 341.952 205.625 339.735C205.625 337.404 206.023 335.415 205.455 334.563C205.398 334.505 205.285 334.335 204.999 334.164C204.431 333.88 204.034 333.937 203.125 333.937C202.158 333.937 201.249 333.995 200.339 333.995C199.657 333.995 198.066 333.937 197.383 334.108C196.986 334.164 196.531 334.449 196.361 334.904C196.077 335.529 196.246 337.973 196.246 338.599C196.303 339.621 196.19 340.644 196.19 341.668C196.133 343.657 196.303 345.647 196.303 347.692C196.303 349.796 196.19 351.899 196.19 354.001C196.19 355.365 196.303 356.616 196.303 357.924C196.303 359.515 196.133 361.164 196.19 362.755C196.19 363.892 196.133 364.46 196.701 364.972C197.157 365.369 197.951 365.369 198.009 365.369C198.35 365.369 198.747 365.313 199.089 365.313C199.601 365.256 200.055 365.199 200.51 365.199C201.646 365.199 202.783 365.369 203.921 365.313C204.602 365.313 204.943 365.256 205.341 364.972C205.569 364.744 205.682 364.404 205.682 363.892C205.739 361.789 205.739 359.629 205.739 357.525L205.739 352.411ZM218.811 347.181C218.869 346.727 218.869 344.964 219.039 344.453C219.095 344.225 219.379 343.487 220.233 343.203C220.459 343.088 220.63 343.088 220.743 343.088C220.914 343.088 221.483 343.088 221.994 343.487C222.677 343.997 222.619 344.68 222.619 345.419C222.619 346.84 222.506 348.147 222.393 349.568C222.335 350.535 222.335 351.501 222.335 352.411C222.335 354.456 222.506 356.503 222.506 358.492C222.506 359.856 222.393 361.164 222.278 362.471C222.278 362.869 222.222 363.209 222.222 363.608C222.222 363.721 222.222 364.176 222.563 364.688C223.074 365.313 223.643 365.313 224.211 365.313C225.234 365.313 226.314 365.143 227.338 365.143C227.849 365.143 228.361 365.199 228.873 365.199C229.27 365.256 229.611 365.313 229.953 365.313C230.634 365.313 231.089 364.972 231.317 364.688C231.885 363.835 231.885 362.244 231.771 360.197C231.657 358.947 231.771 357.753 231.827 356.503C231.827 355.365 231.771 354.229 231.771 353.092C231.771 351.785 231.885 350.477 231.885 349.171C231.942 348.033 231.885 346.897 231.885 345.703C231.885 343.997 231.998 342.293 231.827 340.588C231.714 339.679 231.487 338.883 231.373 338.541C231.259 338.313 230.975 337.575 230.805 337.291C229.157 334.449 226.314 333.54 223.927 333.653C222.393 333.767 221.313 334.221 220.801 334.505C220.403 334.676 220.062 334.847 219.665 335.131C219.494 335.244 219.095 335.529 218.925 335.529C218.585 335.585 218.585 335.188 218.47 334.676C218.243 333.88 217.334 333.937 217.219 333.937C216.709 333.937 216.197 333.995 215.742 334.051C215.117 334.108 214.491 334.108 213.866 334.108L212.957 334.108C212.446 334.051 211.99 333.995 211.479 333.995C210.286 333.995 209.774 334.676 209.603 335.244C209.49 335.7 209.49 337.007 209.49 337.404C209.49 338.484 209.603 339.564 209.603 340.588C209.661 341.213 209.603 341.839 209.603 342.463C209.546 343.487 209.603 344.509 209.603 345.533C209.603 348.091 209.319 350.705 209.319 353.263C209.319 355.423 209.49 357.583 209.49 359.743C209.49 360.425 209.433 361.164 209.433 361.845C209.377 362.755 208.865 365.313 210.911 365.369C211.251 365.369 211.535 365.313 211.877 365.313C212.389 365.256 212.843 365.256 213.355 365.256C213.981 365.256 214.605 365.199 215.23 365.256C215.97 365.313 216.709 365.369 217.39 365.369C218.186 365.369 218.585 364.744 218.641 364.404C218.869 363.721 218.641 362.187 218.585 360.311C218.527 358.436 218.754 356.56 218.754 354.684C218.754 353.376 218.641 352.069 218.641 350.761L218.811 347.181ZM240.354 327.799C239.558 327.799 238.705 327.741 237.853 327.741C237.454 327.741 237.17 327.799 236.999 327.912C236.659 328.083 236.489 328.367 236.374 328.48C235.977 329.105 235.977 329.675 235.977 329.845C235.977 331.209 236.147 332.629 236.147 333.995C236.147 334.505 236.147 335.301 236.09 335.415C235.977 335.813 235.465 335.984 235.351 335.984C234.897 336.097 234.613 335.927 234.101 336.324C233.759 336.609 233.703 336.893 233.646 337.632L233.646 343.429C233.646 343.828 233.419 344.339 233.817 344.68C234.158 345.077 234.613 344.908 235.01 345.077C235.919 345.363 235.863 346.215 235.863 347.579C235.863 348.375 235.806 349.171 235.806 350.023C235.806 351.785 235.863 353.604 235.919 355.365C235.977 359.572 235.635 361.561 237.17 363.608C237.511 364.063 237.795 364.347 238.649 364.801C240.297 365.597 242.969 365.313 243.138 365.313L244.958 365.313C245.923 365.313 246.719 365.199 247.061 365.029C247.799 364.744 247.97 364.005 248.027 362.925C248.027 362.073 247.97 361.22 247.97 360.425L247.97 358.321C247.97 357.867 248.027 357.469 247.629 357.071C247.458 356.9 247.231 356.731 247.003 356.673C246.606 356.56 246.378 356.731 246.038 356.389C245.697 356.161 245.526 355.821 245.413 355.139C245.298 354.229 245.298 353.32 245.298 352.411C245.298 350.819 245.242 349.171 245.242 347.579C245.242 346.443 245.242 345.988 245.697 345.476C246.207 344.908 246.378 345.192 247.061 345.021C247.458 344.908 247.857 344.453 247.97 344.055C248.141 343.6 248.027 343.259 248.027 342.349L248.027 339.621C248.027 338.2 248.141 337.12 247.629 336.552C247.174 335.984 246.493 336.155 245.923 335.984C244.958 335.756 245.014 335.244 245.014 334.051C245.014 332.516 245.127 330.925 245.127 329.333C245.127 328.821 245.127 328.48 244.617 328.083C244.047 327.685 243.138 327.799 241.831 327.799L240.354 327.799ZM264.113 339.621C264.113 339.224 264.113 338.769 264.169 338.371C264.169 337.745 264.397 337.177 263.885 336.609C263.543 336.211 263.203 336.097 262.35 336.097C261.383 336.097 261.099 336.381 260.531 335.869C260.303 335.643 260.19 335.301 260.19 334.676C260.19 334.051 260.474 333.767 260.759 333.483C261.383 332.971 262.066 333.199 262.691 333.199C264.738 333.199 264.339 331.152 264.283 330.925C264.226 330.527 264.226 330.129 264.226 329.675C264.226 328.025 264.453 326.548 264.226 326.036C263.771 325.013 262.634 325.127 261.895 325.127C261.498 325.071 261.043 325.071 260.589 325.013C259.906 324.956 259.281 324.956 258.599 324.956C257.69 325.013 255.018 325.355 254.165 325.752C252.574 326.491 251.778 328.083 251.665 328.424C251.21 329.391 251.21 330.527 251.21 330.811C251.21 331.38 251.153 331.948 251.153 332.516C251.153 333.141 251.21 333.767 251.21 334.392C251.21 334.789 251.381 335.244 251.039 335.7C250.698 336.097 250.301 335.984 250.13 335.984C249.618 335.984 249.334 336.268 249.221 336.552C249.106 336.949 249.163 337.348 249.163 337.745C249.163 338.883 249.221 340.019 249.163 341.156C249.163 341.668 249.106 342.179 249.106 342.691L249.106 344.112C249.163 344.168 249.277 344.68 249.789 344.851C250.015 344.908 250.414 344.851 250.641 345.021C251.266 345.476 251.21 346.215 251.21 346.328C251.21 346.669 251.266 347.011 251.21 347.352C251.21 347.692 251.153 347.977 251.153 348.261C251.153 348.545 251.153 348.887 251.21 349.171C251.21 349.568 251.153 349.967 251.153 350.421C251.095 351.728 251.153 352.979 251.153 354.287C251.153 356.219 251.323 358.151 251.21 360.084L251.039 362.129C251.039 363.04 251.095 364.176 251.153 364.404C251.323 364.915 251.891 365.313 252.745 365.313C253.142 365.313 253.541 365.256 253.938 365.256C254.393 365.199 254.847 365.199 255.245 365.199C256.155 365.199 257.065 365.199 257.917 365.256C259.11 365.313 259.565 365.484 260.134 364.915C260.759 364.347 260.645 363.721 260.645 363.096C260.645 362.3 260.589 361.448 260.531 360.652C260.531 359.175 260.645 357.696 260.645 356.161C260.589 355.081 260.531 354.059 260.474 352.979C260.361 351.615 260.361 350.193 260.361 348.829C260.361 347.408 260.303 346.385 260.815 345.76C261.099 345.363 261.441 345.135 262.237 345.077C262.521 345.021 264.283 345.248 264.283 343.429C264.283 342.919 264.169 342.407 264.113 341.839L264.113 339.621ZM276.674 333.369C275.537 333.369 273.946 333.369 271.387 334.789C268.886 336.155 268.205 337.745 267.693 338.712C267.351 339.393 267.067 340.019 266.897 340.644C266.67 341.327 266.557 342.065 266.386 342.748C265.817 345.305 265.703 345.419 265.703 349.455C265.703 353.491 265.533 357.64 267.921 361.561C270.421 365.655 274.741 365.881 275.537 365.939C276.275 365.995 276.958 365.995 277.697 365.995C280.823 365.995 283.097 364.972 284.347 364.005C284.574 363.835 285.086 363.38 285.711 362.699C288.098 359.913 288.553 356.332 288.61 355.707C288.667 355.196 288.781 354.627 288.838 354.116C288.894 353.263 289.065 352.467 289.122 351.615C289.178 350.932 289.178 350.251 289.178 349.625C289.178 345.476 289.122 343.6 288.497 341.497C288.155 340.189 287.814 339.393 287.473 338.825C286.962 337.803 285.938 336.439 284.802 335.585C282.13 333.483 279.289 333.255 276.674 333.369ZM279.63 349.681C279.63 351.103 279.63 352.467 279.459 353.831C279.402 353.945 279.345 355.196 278.435 356.048C277.925 356.56 277.526 356.56 277.242 356.56C276.162 356.56 275.707 355.707 275.481 355.252C274.911 353.831 275.025 351.557 275.025 350.08C275.082 349.397 275.025 348.772 275.025 348.091C275.025 345.988 275.423 344.112 275.878 343.373C276.446 342.407 277.242 342.349 277.47 342.349C279.061 342.407 279.459 344.509 279.573 345.476C279.63 345.873 279.63 346.328 279.63 346.727L279.63 349.681ZM307.935 337.461C307.935 337.064 307.878 336.723 307.878 336.381C307.935 335.984 308.049 335.585 308.049 335.188C308.049 334.164 307.197 333.767 306.855 333.653C306.514 333.596 306.401 333.596 306.173 333.653C305.605 333.653 304.809 333.653 303.558 334.847C303.389 335.017 302.99 335.472 302.877 335.643C302.706 335.869 302.309 336.723 301.91 336.723C301.797 336.723 301.739 336.609 301.739 336.268C301.739 335.7 302.138 334.62 301.342 334.164C301.001 333.937 300.319 333.937 300.319 333.937C299.921 333.937 299.579 333.995 299.182 333.995C298.557 334.051 297.874 334.051 297.193 334.051C296.625 334.051 296.113 334.051 295.601 333.995C295.09 333.995 294.578 333.88 294.066 333.88C292.815 333.88 292.418 334.904 292.305 335.415C292.247 335.7 292.305 336.04 292.305 336.381L292.305 338.2C292.361 339.109 292.418 340.019 292.361 340.928C292.361 341.553 292.305 342.179 292.247 342.804C292.19 343.487 292.19 344.225 292.19 344.908C292.19 345.589 292.19 346.272 292.247 346.897C292.305 348.204 292.418 349.568 292.418 350.876C292.418 351.899 292.305 352.865 292.247 353.831L292.247 359.288C292.305 360.197 292.418 361.164 292.305 362.073C292.19 363.267 292.077 364.063 292.247 364.517C292.418 365.199 293.27 365.54 293.782 365.54C294.179 365.54 294.521 365.427 294.805 365.427C295.374 365.369 295.942 365.369 296.51 365.369C297.249 365.369 298.045 365.369 298.785 365.427C299.921 365.427 300.659 365.54 301.285 365.085C301.797 364.688 301.739 363.835 301.739 363.437C301.683 362.983 301.626 362.471 301.626 362.016L301.626 359.743C301.683 358.947 301.626 358.151 301.626 357.356C301.683 356.844 301.739 356.332 301.739 355.821C301.797 355.309 301.797 354.797 301.797 354.287C301.739 352.752 301.797 351.16 301.797 349.625C301.797 348.432 301.739 347.237 303.161 346.101C303.957 345.476 304.695 345.476 304.923 345.476C305.434 345.476 306.003 345.647 306.514 345.647C307.253 345.647 307.651 345.192 307.822 344.851C308.106 343.997 307.878 342.919 307.878 341.099C307.878 340.304 307.935 339.508 307.935 338.712L307.935 337.461ZM316.177 327.799C315.381 327.799 314.527 327.741 313.675 327.741C313.277 327.741 312.993 327.799 312.822 327.912C312.482 328.083 312.311 328.367 312.198 328.48C311.799 329.105 311.799 329.675 311.799 329.845C311.799 331.209 311.97 332.629 311.97 333.995C311.97 334.505 311.97 335.301 311.913 335.415C311.799 335.813 311.287 335.984 311.174 335.984C310.719 336.097 310.435 335.927 309.923 336.324C309.583 336.609 309.526 336.893 309.469 337.632L309.469 343.429C309.469 343.828 309.242 344.339 309.639 344.68C309.981 345.077 310.435 344.908 310.833 345.077C311.742 345.363 311.686 346.215 311.686 347.579C311.686 348.375 311.629 349.171 311.629 350.023C311.629 351.785 311.686 353.604 311.742 355.365C311.799 359.572 311.458 361.561 312.993 363.608C313.334 364.063 313.618 364.347 314.471 364.801C316.119 365.597 318.791 365.313 318.961 365.313L320.781 365.313C321.746 365.313 322.542 365.199 322.883 365.029C323.622 364.744 323.793 364.005 323.85 362.925C323.85 362.073 323.793 361.22 323.793 360.425L323.793 358.321C323.793 357.867 323.85 357.469 323.451 357.071C323.281 356.9 323.054 356.731 322.826 356.673C322.429 356.56 322.201 356.731 321.861 356.389C321.519 356.161 321.349 355.821 321.235 355.139C321.121 354.229 321.121 353.32 321.121 352.411C321.121 350.819 321.065 349.171 321.065 347.579C321.065 346.443 321.065 345.988 321.519 345.476C322.031 344.908 322.201 345.192 322.883 345.021C323.281 344.908 323.679 344.453 323.793 344.055C323.963 343.6 323.85 343.259 323.85 342.349L323.85 339.621C323.85 338.2 323.963 337.12 323.451 336.552C322.997 335.984 322.315 336.155 321.746 335.984C320.781 335.756 320.837 335.244 320.837 334.051C320.837 332.516 320.951 330.925 320.951 329.333C320.951 328.821 320.951 328.48 320.439 328.083C319.871 327.685 318.961 327.799 317.654 327.799L316.177 327.799" fill="#ffffff" fill-rule="evenodd" opacity="1" stroke="none"></path> <path d="M105.517 275.357C105.517 274.387 105.429 273.504 105.429 272.535C105.075 269.007 104.811 269.359 104.193 266.977C103.929 266.096 103.753 265.213 103.487 264.42C102.782 262.48 101.106 260.187 100.93 259.833C100.137 258.687 99.5192 257.276 98.5485 256.217C97.9312 255.424 97.2259 254.807 96.6085 254.1C96.1672 253.572 95.8139 253.043 95.3739 252.513C94.7552 251.896 93.9619 251.367 93.7859 251.279C92.9912 250.661 92.3739 250.22 90.5219 249.427C89.9925 249.249 89.3752 248.985 88.8459 248.72C87.9645 248.28 87.2592 247.839 86.3765 247.397C85.4952 246.956 84.4365 246.604 83.4659 246.163C83.2019 246.075 81.3499 245.192 79.9379 244.84C78.7032 244.575 77.5565 244.487 74.9992 244.311C73.2352 244.135 71.5592 243.869 69.7952 243.957C68.4725 243.957 67.2379 244.045 66.0032 244.045C64.6792 244.135 64.8565 244.135 63.0032 244.575C62.0339 244.752 61.0632 244.84 60.1819 245.104C58.9472 245.457 57.6232 245.987 56.3885 246.427C53.4779 247.397 52.5085 247.663 50.0379 249.515C49.2445 250.044 48.4512 250.573 47.7445 251.279C46.8632 252.072 45.9805 253.043 45.0112 253.924C43.5992 255.247 43.0712 255.512 42.4525 256.305C42.1005 256.835 41.7472 257.452 41.3952 257.981L40.3365 259.833C39.8072 260.804 39.3659 261.951 38.9245 263.009C38.3072 264.508 37.5139 266.008 37.1605 267.507C36.8085 268.831 36.8965 270.241 36.7205 271.564C36.5432 272.711 36.2792 273.769 36.1032 274.916C35.6619 277.297 35.9259 278.973 36.0152 279.943L36.0152 281.796C36.0152 284.177 36.6325 285.412 37.2499 287.705C37.7792 289.469 38.0432 291.056 39.0139 292.644C39.2779 293.085 39.9832 294.055 40.9539 295.113C41.5712 295.731 42.1005 296.26 42.6299 296.877C42.8939 297.231 43.0712 297.583 43.3352 297.848C43.5992 298.112 43.7765 298.377 44.0405 298.641C44.8352 299.524 45.9805 301.111 48.2739 302.699L49.5979 303.492C50.4792 304.109 51.3619 304.904 52.2432 305.433C53.6552 306.227 54.4485 306.315 55.9472 306.844C57.0939 307.285 58.0645 307.815 59.2112 308.079C62.2099 308.873 64.7672 308.696 65.9139 308.696C67.2379 308.784 68.5605 308.961 69.8832 308.961C70.8539 309.049 71.9125 308.961 72.8819 308.961C73.9405 308.961 74.9992 308.873 76.0579 308.784C76.6752 308.696 77.3805 308.696 77.9979 308.608C78.8792 308.432 82.4072 307.637 83.2019 307.373C84.0832 307.02 84.8779 306.668 85.7592 306.315C87.8765 305.609 88.2285 305.785 90.0805 304.816C92.5512 303.581 92.7272 302.875 94.0499 301.993C95.5499 301.023 95.5499 301.288 97.4899 299.436C98.1952 298.817 98.9005 298.024 100.047 296.26C102.165 292.997 101.635 292.909 102.518 290.527C102.782 289.999 102.958 289.469 103.223 288.94C104.105 286.911 104.634 286.117 104.899 283.912C104.987 283.295 105.075 282.677 105.075 282.06C105.163 281.443 105.075 280.737 105.075 280.12C105.075 278.885 105.251 278.444 105.429 277.209C105.517 276.68 105.517 276.327 105.517 275.357ZM81.7019 276.592C81.7019 279.061 80.1152 281.267 79.6739 281.707C79.4085 282.06 79.0565 282.236 78.7912 282.589C78.2619 283.031 77.8219 283.56 77.7325 283.736C76.5872 285.235 74.8232 285.853 74.2045 285.941C73.4992 286.117 72.7939 286.117 72.0005 286.205C71.4712 286.205 70.8539 286.381 70.3245 286.381C69.8832 286.381 69.4419 286.293 69.0019 286.293C68.6485 286.293 68.2072 286.381 67.7672 286.381C65.4739 286.381 63.0925 284.265 62.8272 284C61.6805 283.031 61.7685 282.589 61.2392 281.884C60.9752 281.443 60.5339 281.001 60.1819 280.472C59.8285 279.943 59.1232 278.444 59.1232 276.592C59.1232 274.299 60.1819 272.976 60.6219 272.181C60.9752 271.388 61.1512 270.771 61.8565 270.065C62.5632 269.183 63.0925 269.007 64.9445 268.212C66.0032 267.684 66.9725 266.977 68.1192 266.625C68.7365 266.448 69.6192 266.36 70.2365 266.36C72.1765 266.36 73.1472 266.889 73.9405 267.155C75.1752 267.684 75.8805 267.684 77.1152 268.389C77.4685 268.653 78.7912 269.359 79.6739 270.505C80.1152 271.123 80.3792 271.74 80.8205 273.24C81.2619 274.387 81.6139 275.357 81.7019 276.592" fill="#ffffff" fill-rule="evenodd" opacity="1" stroke="none"></path> <path d="M160.729 271.476C160.729 270.771 160.818 270.065 160.906 269.448C160.906 268.919 160.818 268.389 160.818 267.948C160.818 267.331 160.906 266.713 160.906 266.096C160.994 265.567 160.994 265.037 161.082 264.508C161.258 263.449 161.523 262.303 161.523 261.245C161.523 258.952 159.494 257.364 158.965 257.1C158.259 256.835 157.642 256.835 156.849 256.835C155.349 256.835 153.85 257.1 152.35 257.1C151.115 257.1 149.969 257.011 148.734 257.011C147.411 256.923 146.087 257.188 144.765 257.276C142.913 257.364 140.619 256.217 139.121 257.893C138.591 258.423 138.238 259.128 138.238 260.804C138.238 262.568 138.503 264.244 138.503 265.831C138.503 267.772 138.062 269.624 138.062 271.476C138.062 272.005 138.062 272.535 138.15 272.976L138.15 275.268C138.238 275.887 138.326 276.504 138.326 277.121C138.326 277.561 138.238 277.739 138.15 278.532C137.797 280.825 138.414 282.765 136.65 284.707C136.033 285.412 135.593 285.5 135.151 285.5C134.269 285.5 133.739 285.059 133.475 284.883C132.241 283.912 131.975 281.707 131.975 281.531C131.711 279.591 131.623 277.385 131.623 276.856C131.623 275.887 131.711 274.916 131.799 274.033C131.887 273.064 132.065 272.181 132.153 271.3C132.153 270.153 131.975 269.007 131.975 267.86C131.975 266.801 131.975 265.743 132.065 264.773C132.065 264.244 132.153 263.803 132.153 263.361C132.241 262.568 132.153 261.775 132.241 260.98C132.241 259.833 131.887 259.304 131.535 258.864C130.389 257.364 128.095 257.1 127.654 257.1C126.861 257.011 126.155 257.188 125.361 257.276C124.479 257.276 123.597 257.188 122.715 257.188C121.481 257.188 120.246 257.452 119.01 257.452C118.217 257.452 117.423 257.364 116.629 257.276C116.099 257.276 115.571 257.188 115.13 257.188C114.601 257.188 114.071 257.1 113.542 257.1C113.278 257.1 111.073 257.1 110.014 258.511C109.662 259.04 109.485 259.569 109.309 260.892C108.955 263.009 109.133 264.773 109.221 265.655C109.221 266.889 109.133 268.124 109.043 269.448C109.043 270.595 109.133 271.74 109.133 272.887C109.221 273.769 109.221 274.651 109.221 275.533C109.221 276.592 109.309 277.739 109.309 278.796C109.221 279.679 109.133 280.472 109.043 281.355C108.955 282.148 108.867 283.031 108.867 283.824C108.867 285.235 108.867 286.647 108.955 288.057C109.043 289.38 109.309 290.704 109.309 292.027C109.485 294.32 109.397 297.319 110.279 299.612C110.543 300.229 111.249 301.376 111.69 301.993C112.749 303.492 113.718 304.375 114.335 304.816C115.482 305.697 116.453 305.963 116.982 306.227C117.599 306.492 118.217 306.932 118.922 307.197C119.805 307.549 121.127 307.727 121.303 307.727C122.362 307.903 123.509 308.432 125.802 308.432C128.713 308.432 130.477 308.256 131.711 307.903C132.417 307.727 133.034 307.461 133.651 307.197C135.681 306.58 135.769 306.756 137.357 305.345C137.797 304.992 138.15 304.551 138.503 304.021C138.943 303.581 139.209 303.404 139.473 303.404C140.267 303.404 140.707 305.256 140.885 305.697C141.237 306.756 142.119 307.727 144.413 307.727L147.146 307.727C148.558 307.639 149.881 307.461 151.291 307.461C153.055 307.461 157.025 307.815 158.789 307.285C159.23 307.197 159.671 306.932 160.023 306.668C160.906 305.875 161.346 304.463 161.346 303.316C161.346 302.257 160.818 300.405 160.818 300.405C160.729 299.964 160.641 298.553 160.641 297.143C160.641 295.555 160.818 293.967 160.818 292.468C160.906 290.527 160.729 288.587 160.729 286.647C160.818 284.971 161.082 283.295 161.082 281.531C161.082 280.737 160.994 279.943 160.994 279.061C160.906 278.444 160.906 277.827 160.906 277.209C160.906 276.504 160.818 275.887 160.729 275.268L160.729 271.476" fill="#ffffff" fill-rule="evenodd" opacity="1" stroke="none"></path> <path d="M191.742 248.72C191.742 248.368 191.654 248.103 191.654 247.751C191.654 247.485 191.742 246.604 191.213 245.987C190.595 245.369 189.625 245.28 187.949 245.28C186.626 245.28 185.391 245.192 184.069 245.28C183.098 245.28 182.746 245.369 182.393 245.633C181.687 245.987 180.805 247.044 179.57 248.28C178.953 248.897 178.335 249.515 177.718 250.044C177.013 250.661 176.13 251.101 175.513 251.719C174.983 252.072 173.219 253.836 171.279 254.895C168.369 256.393 166.693 256.393 165.987 258.247C165.811 258.687 165.634 260.363 165.634 260.892C165.634 261.421 165.811 261.951 165.723 262.48C165.723 263.185 165.634 263.803 165.723 264.508C165.723 265.479 165.899 266.448 165.899 267.419C165.899 269.712 165.282 270.505 166.075 271.652C166.693 272.711 167.663 272.623 168.105 272.799C168.634 272.887 169.074 273.152 169.427 273.681C169.603 274.123 169.869 275.445 169.869 276.944C169.869 279.591 169.515 282.148 169.515 284.795C169.515 286.735 169.781 288.675 169.781 290.616C169.781 291.409 169.781 292.291 169.691 293.085C169.603 293.879 169.603 294.761 169.603 295.555C169.603 299.083 169.869 301.817 170.662 303.14C171.103 303.933 171.545 304.111 172.25 304.816C172.514 305.08 173.043 305.521 173.043 305.609C173.397 305.785 173.485 305.785 174.014 306.051C174.454 306.227 174.807 306.492 175.249 306.58C176.13 307.02 176.571 307.02 177.101 307.109C177.806 307.285 178.423 307.549 179.041 307.639C179.746 307.727 180.453 307.727 181.07 307.815C181.687 307.903 182.217 308.079 182.746 308.167C183.539 308.256 184.421 308.344 185.303 308.344C186.009 308.344 186.626 308.167 187.331 308.167C187.861 308.079 188.478 308.167 189.007 308.079C190.683 308.079 192.271 307.815 193.947 307.639C194.477 307.639 195.005 307.639 195.446 307.461C196.329 307.285 196.681 307.197 197.122 307.02C197.915 306.756 198.093 306.668 198.445 306.403C199.15 305.963 200.033 305.08 200.121 303.228C200.209 302.611 199.945 301.993 199.945 301.376C199.945 300.493 200.209 299.7 200.209 298.819C200.209 298.465 200.121 297.76 200.033 296.877C199.857 295.819 199.857 295.291 199.857 294.761C199.857 293.879 199.945 293.615 199.945 293.085C199.945 293.085 200.121 291.763 200.121 291.673C200.121 290.175 198.622 289.557 198.181 289.469C197.651 289.292 197.298 289.38 196.769 289.38C196.329 289.38 195.975 289.292 195.622 289.292C194.917 289.292 194.211 289.469 193.506 289.469C191.742 289.469 191.566 288.057 191.654 285.5C191.654 284.707 191.742 284 191.742 283.295C191.742 282.324 191.566 281.355 191.566 280.384C191.566 279.679 191.654 279.149 191.742 278.444C191.742 277.561 191.566 275.621 191.83 274.74C191.918 274.299 192.183 273.857 192.713 273.681C193.947 273.152 195.358 273.593 196.681 273.593C198.533 273.593 199.591 272.799 199.945 272.093C200.209 271.564 200.209 270.947 200.209 270.771C200.209 269.8 199.945 268.919 199.945 268.036C199.945 267.243 200.297 266.448 200.297 265.655C200.297 265.213 200.209 264.684 200.121 264.244C200.121 263.803 200.033 263.273 200.033 262.832C200.033 262.215 200.121 261.597 200.121 260.98C200.209 260.451 200.297 259.833 200.297 259.216C200.297 258.247 199.769 257.364 198.798 257.011C198.357 256.835 197.651 256.923 197.563 256.923L196.329 256.923C195.534 256.923 193.682 257.188 192.801 256.747C191.477 256.041 191.566 254.365 191.742 251.808L191.742 248.72" fill="#ffffff" fill-rule="evenodd" opacity="1" stroke="none"></path> <path d="M204.938 295.819C204.85 296.789 204.85 297.76 204.85 298.819C204.762 299.788 204.762 300.759 204.762 301.728C204.762 303.316 204.85 304.111 205.203 304.816C205.731 306.051 207.495 307.727 210.847 307.727C212.347 307.727 213.846 307.549 215.258 307.461C217.11 307.373 218.962 307.461 220.726 307.461C221.343 307.461 221.785 307.549 222.314 307.549C222.843 307.639 223.283 307.549 223.813 307.461C224.254 307.461 224.783 307.461 225.225 307.285C226.018 307.109 226.723 306.492 226.899 306.315C227.165 306.139 227.429 305.697 227.606 305.345C228.311 303.581 228.311 303.052 228.311 301.993C228.311 299.788 227.694 297.76 227.606 295.643C227.606 295.025 227.694 294.32 227.694 293.703C227.694 293.085 227.606 292.468 227.606 291.851C227.606 290.263 227.782 288.675 227.782 287.176C227.782 285.588 227.518 284.088 227.518 282.589C227.518 281.443 227.694 280.384 227.782 279.237C227.782 278.62 227.694 277.915 227.694 277.297C227.606 276.768 227.606 276.239 227.606 275.621C227.606 275.18 227.694 274.74 227.606 274.299C227.606 273.593 227.429 272.799 227.429 272.005C227.429 270.771 227.694 269.536 227.87 268.301C227.958 266.801 227.782 265.303 227.782 263.803C227.782 262.92 227.87 262.039 227.782 261.245C227.782 260.539 227.606 259.833 227.518 259.128C227.518 258.423 227.606 257.628 227.606 256.835C227.694 255.6 227.694 254.277 227.782 253.043C227.782 251.896 227.958 250.749 227.958 249.603C227.958 248.985 227.958 247.309 226.723 246.075C226.106 245.457 225.401 245.192 223.725 245.28C222.49 245.28 221.255 245.457 220.021 245.545C218.609 245.545 217.11 245.28 215.787 245.28C215.17 245.28 214.641 245.28 214.111 245.369C213.67 245.369 213.229 245.28 212.699 245.28C212.17 245.28 211.553 245.369 211.023 245.369C209.525 245.369 209.259 245.192 208.29 245.369C207.055 245.633 206.173 246.692 205.909 247.044C205.467 247.839 205.026 249.691 205.026 250.572C205.026 251.279 205.114 251.984 205.203 252.689C205.291 254.1 205.467 255.512 205.467 256.923C205.467 257.717 205.379 258.423 205.379 259.216C205.291 260.187 205.379 261.245 205.379 262.215C205.379 263.891 205.203 265.479 205.203 267.155C205.203 269.095 205.467 271.123 205.467 273.064C205.467 274.916 205.114 276.768 205.114 278.62C205.114 280.032 205.291 281.443 205.379 282.765L205.379 284.529C205.379 284.971 205.291 285.5 205.203 285.941C205.203 286.647 205.379 287.44 205.379 288.145C205.379 288.763 205.291 289.38 205.291 289.999C205.291 290.88 205.291 291.763 205.203 292.644L204.938 295.819" fill="#ffffff" fill-rule="evenodd" opacity="1" stroke="none"></path> <path d="M286.258 281.001C286.258 280.384 286.168 279.767 286.168 279.503C285.992 278.796 285.816 278.003 285.728 277.297C285.64 276.504 285.728 275.709 285.64 274.916C285.551 274.475 285.287 273.24 285.199 272.799C284.846 271.652 284.67 270.505 284.228 269.448C283.876 268.741 283.435 268.212 283.082 267.507C282.64 266.713 282.552 266.448 282.023 265.743C281.495 265.125 280.876 264.508 280.259 263.979C278.584 262.303 278.319 261.685 276.291 260.451C275.674 260.187 275.144 259.921 274.615 259.569C273.115 258.687 273.027 258.511 272.056 258.157C271.263 257.805 270.382 257.717 269.499 257.452C268.794 257.276 268 257.011 267.294 256.835C266.412 256.659 265.442 256.571 264.472 256.393C262.531 256.217 260.679 255.953 258.739 255.953C257.944 255.864 257.063 255.864 256.27 255.864C255.563 255.953 254.946 256.041 254.24 256.129C252.918 256.217 252.476 256.129 250.271 256.747C249.743 256.923 249.124 257.1 248.596 257.364C247.802 257.717 247.008 258.247 246.126 258.599C244.274 259.304 244.186 259.128 241.54 260.804C238.806 262.568 238.54 263.449 237.395 264.861C236.776 265.567 235.983 266.184 235.454 266.977C235.19 267.331 234.836 268.124 234.307 269.183C234.043 269.8 233.69 270.417 233.426 271.035C233.338 271.3 232.455 273.857 232.367 274.211C232.279 274.74 232.191 275.357 232.103 275.887C231.926 276.504 231.662 277.032 231.574 277.651C231.308 278.444 231.22 280.649 231.22 283.119C231.22 284.177 231.308 284.441 231.396 284.971C231.574 285.941 231.838 286.911 232.103 287.793C233.338 292.38 234.572 293.703 235.895 295.731C236.248 296.172 236.512 296.613 236.776 297.053C237.042 297.495 237.483 297.936 237.835 298.377C238.1 298.641 238.276 298.995 238.54 299.259C238.982 299.788 239.423 300.141 239.952 300.581C242.334 302.699 243.832 303.228 245.068 303.933C246.92 304.904 246.832 304.992 249.831 305.963C250.36 306.139 250.978 306.403 251.595 306.492C252.3 306.668 253.094 306.668 253.799 306.844C254.594 307.109 255.299 307.461 256.092 307.637C256.622 307.727 257.239 307.727 257.768 307.815C258.298 307.903 258.915 308.079 259.444 308.167C259.62 308.167 262.972 308.52 263.236 308.52C263.855 308.52 264.472 308.432 265.178 308.432C265.795 308.432 266.5 308.432 267.206 308.344C267.647 308.344 268.088 308.256 268.618 308.256C269.411 308.167 270.204 308.256 270.999 308.256C271.792 308.256 272.586 308.167 273.38 308.079C277.084 307.991 277.79 307.815 279.995 307.285C281.142 307.02 283.435 306.668 283.435 303.492C283.435 302.699 283.259 301.905 283.17 301.111C283.082 300.581 283.082 299.964 283.082 299.436C283.082 298.289 283.17 297.231 283.259 296.172C283.259 295.467 283.435 294.761 283.435 294.055C283.435 291.497 280.966 291.233 280.348 291.233C279.024 291.233 277.348 291.939 276.114 292.115C275.056 292.291 273.115 292.115 270.47 292.115C269.147 292.115 267.735 292.203 266.412 292.115C265.442 292.115 264.472 291.851 263.59 291.763C263.06 291.673 262.443 291.673 262.355 291.673L261.032 291.673C260.15 291.673 258.651 291.939 256.534 291.233C255.652 290.88 253.799 289.999 253.799 288.94C253.799 288.323 254.064 287.705 254.594 287.44C255.035 287.176 255.916 287.088 257.063 287.088C257.768 287.088 258.386 287.176 259.091 287.176L260.855 287.176C261.738 287.176 262.619 287.264 263.59 287.264C264.383 287.176 265.178 287.088 265.971 287.088C266.676 287.088 267.471 287.264 268.176 287.264C268.97 287.352 269.764 287.44 270.646 287.44C271.968 287.44 273.38 287.264 274.703 287.176C276.114 287.088 277.614 287.176 279.024 287.176C280.436 287.176 282.464 287.088 282.73 286.999C286.522 286.471 286.258 281.355 286.258 281.001ZM266.059 273.152C266.059 273.945 265.354 274.828 263.678 274.828C262.619 274.828 261.65 274.563 260.591 274.651C260.062 274.651 259.532 274.74 259.003 274.828L257.063 274.828C255.652 274.916 254.682 275.18 253.447 274.387C252.742 274.033 252.652 273.593 252.652 273.24C252.652 272.799 252.742 271.829 253.976 271.212C255.299 270.595 256.799 270.947 258.21 270.859C258.651 270.771 259.091 270.683 259.444 270.595C261.208 270.417 263.855 271.035 264.031 271.035C265.53 271.564 266.059 272.535 266.059 273.152" fill="#ffffff" fill-rule="evenodd" opacity="1" stroke="none"></path> <path d="M313.334 248.72C313.334 248.368 313.246 248.103 313.246 247.751C313.246 247.485 313.334 246.604 312.806 245.987C312.187 245.369 311.218 245.28 309.542 245.28C308.219 245.28 306.985 245.192 305.661 245.28C304.691 245.28 304.338 245.369 303.986 245.633C303.279 245.987 302.398 247.044 301.163 248.28C300.546 248.897 299.929 249.515 299.311 250.044C298.605 250.661 297.723 251.101 297.106 251.719C296.577 252.072 294.813 253.836 292.873 254.895C289.962 256.393 288.286 256.393 287.581 258.247C287.403 258.687 287.227 260.363 287.227 260.892C287.227 261.421 287.403 261.951 287.315 262.48C287.315 263.185 287.227 263.803 287.315 264.508C287.315 265.479 287.491 266.448 287.491 267.419C287.491 269.712 286.874 270.505 287.669 271.652C288.286 272.711 289.257 272.623 289.697 272.799C290.226 272.887 290.667 273.152 291.019 273.681C291.197 274.123 291.461 275.445 291.461 276.944C291.461 279.591 291.109 282.148 291.109 284.795C291.109 286.735 291.373 288.675 291.373 290.616C291.373 291.409 291.373 292.291 291.285 293.085C291.197 293.879 291.197 294.761 291.197 295.555C291.197 299.083 291.461 301.817 292.255 303.14C292.695 303.933 293.137 304.111 293.842 304.816C294.107 305.08 294.637 305.521 294.637 305.609C294.989 305.785 295.077 305.785 295.606 306.051C296.047 306.227 296.401 306.492 296.841 306.58C297.723 307.02 298.165 307.02 298.694 307.109C299.399 307.285 300.017 307.549 300.634 307.639C301.339 307.727 302.045 307.727 302.662 307.815C303.279 307.903 303.809 308.079 304.338 308.167C305.133 308.256 306.014 308.344 306.897 308.344C307.602 308.344 308.219 308.167 308.925 308.167C309.454 308.079 310.071 308.167 310.601 308.079C312.277 308.079 313.863 307.815 315.539 307.639C316.069 307.639 316.598 307.639 317.039 307.461C317.921 307.285 318.274 307.197 318.715 307.02C319.509 306.756 319.685 306.668 320.038 306.403C320.743 305.963 321.626 305.08 321.714 303.228C321.802 302.611 321.537 301.993 321.537 301.376C321.537 300.493 321.802 299.7 321.802 298.819C321.802 298.465 321.714 297.76 321.626 296.877C321.449 295.819 321.449 295.291 321.449 294.761C321.449 293.879 321.537 293.615 321.537 293.085C321.537 293.085 321.714 291.763 321.714 291.673C321.714 290.175 320.214 289.557 319.773 289.469C319.245 289.292 318.891 289.38 318.362 289.38C317.921 289.38 317.569 289.292 317.215 289.292C316.51 289.292 315.805 289.469 315.098 289.469C313.334 289.469 313.158 288.057 313.246 285.5C313.246 284.707 313.334 284 313.334 283.295C313.334 282.324 313.158 281.355 313.158 280.384C313.158 279.679 313.246 279.149 313.334 278.444C313.334 277.561 313.158 275.621 313.423 274.74C313.511 274.299 313.775 273.857 314.305 273.681C315.539 273.152 316.951 273.593 318.274 273.593C320.126 273.593 321.185 272.799 321.537 272.093C321.802 271.564 321.802 270.947 321.802 270.771C321.802 269.8 321.537 268.919 321.537 268.036C321.537 267.243 321.89 266.448 321.89 265.655C321.89 265.213 321.802 264.684 321.714 264.244C321.714 263.803 321.626 263.273 321.626 262.832C321.626 262.215 321.714 261.597 321.714 260.98C321.802 260.451 321.89 259.833 321.89 259.216C321.89 258.247 321.361 257.364 320.39 257.011C319.95 256.835 319.245 256.923 319.155 256.923L317.921 256.923C317.127 256.923 315.275 257.188 314.393 256.747C313.07 256.041 313.158 254.365 313.334 251.808L313.334 248.72" fill="#ffffff" fill-rule="evenodd" opacity="1" stroke="none"></path> <path d="M78.4699 225.16C79.6165 225.236 80.6872 225.389 81.8339 225.389C82.4445 225.389 82.9805 225.313 83.3619 224.548C83.6685 224.013 83.6685 223.249 83.6685 222.027C83.6685 221.491 83.6685 220.956 83.5912 220.421C83.5152 219.121 83.3619 217.899 83.3619 216.599C83.3619 215.681 83.4392 214.841 83.4392 214C83.5912 211.401 83.6685 208.801 83.5912 206.28C83.5152 203.451 83.4392 200.623 83.4392 197.795C83.5152 193.972 83.5912 190.151 83.5912 186.328C83.5912 184.112 83.5152 181.895 83.5912 179.755C83.5912 178.149 83.7445 176.621 83.8979 175.092C83.8979 174.404 84.0499 173.792 84.0499 173.104C84.0499 171.652 82.7512 171.117 82.2152 171.117C81.9099 171.117 81.6045 171.193 81.2979 171.193C80.8392 171.269 80.3805 171.269 79.9992 171.269C79.0045 171.269 78.0112 171.347 77.0179 171.347C75.9472 171.269 74.8779 171.193 73.8072 171.193C73.7312 171.193 71.5139 171.347 71.3605 171.347C70.2139 171.652 69.6032 173.411 69.2205 174.175C68.6859 175.168 68.1512 176.239 67.6925 177.309C67.0805 178.684 66.6979 180.06 66.0099 181.436C65.3992 182.736 64.7112 184.036 64.0232 185.335C63.4112 186.711 63.1819 187.475 62.6472 188.087C62.4179 188.316 62.2645 188.545 62.0352 188.545C61.8059 188.545 61.4245 188.087 61.1952 187.704C60.4299 186.557 59.8192 185.105 59.1312 183.729C58.5952 182.736 57.9845 181.665 57.3725 180.672C56.9139 179.908 56.6085 179.22 56.2259 178.532C55.7672 177.615 55.3085 176.697 54.9259 175.78C54.0859 173.792 54.0859 173.028 53.2445 172.111C52.0979 170.811 51.2579 171.347 48.9645 171.347C48.2765 171.423 47.5885 171.347 46.9005 171.347C45.9832 171.269 45.0659 171.347 44.2245 171.347C43.3845 171.269 42.6192 171.269 41.7792 171.269C41.1672 171.347 40.8619 171.423 40.6325 171.576C39.8672 171.957 39.6392 172.799 39.6392 173.411C39.6392 173.792 39.7152 174.175 39.7152 174.48L39.7152 176.468C39.7912 177.615 40.0205 178.837 40.0205 180.06C40.0965 181.36 39.8672 182.66 39.8672 183.959C39.7912 187.016 40.0205 190.075 40.0205 193.056C40.0965 197.031 39.7912 200.928 39.7912 204.827C39.7912 206.356 39.8672 207.808 39.8672 209.26C39.9445 211.172 40.0965 213.007 40.0965 214.841C40.0965 215.759 40.0205 216.675 40.0205 217.516L40.0205 219.045C39.9445 220.268 39.7912 221.644 39.7912 222.944C39.7912 223.02 39.6392 224.855 41.1672 225.313C42.3139 225.695 44.1485 225.389 44.2245 225.389C45.2952 225.313 46.3659 225.313 47.5112 225.313C49.6525 225.313 51.0285 225.543 52.0219 225.313C52.1752 225.236 53.0925 224.931 53.3979 224.089C53.6272 223.173 53.4739 221.72 53.4739 220.88C53.3979 219.427 53.3979 217.975 53.3979 216.523C53.3979 215.071 53.4739 213.541 53.5512 212.089C53.5512 210.865 53.4739 209.719 53.4739 208.572C53.3979 207.427 53.5512 206.28 53.5512 205.209C53.6272 204.216 53.6272 203.299 53.7032 202.381C53.7032 201.464 53.6272 200.317 54.0099 200.317C54.3912 200.317 55.0792 201.693 55.5379 202.611C55.9965 203.528 56.3019 204.445 56.7605 205.363C56.9139 205.592 57.1432 205.897 57.2965 206.127C57.9845 207.197 58.6725 208.267 59.2072 209.413C59.9712 210.865 60.5072 212.012 61.2712 212.395C61.4245 212.471 62.1125 212.624 62.7232 212.624C63.9459 212.624 64.4819 211.401 65.2459 209.567L66.1632 207.503C66.6219 206.432 67.2339 205.285 67.6152 204.216C68.0739 203.069 68.0739 202.152 68.8392 201.081C68.9912 200.776 69.2205 200.547 69.4499 200.547C69.7565 200.547 69.7565 200.852 69.7565 201.235C69.7565 201.54 69.8325 201.845 69.8325 202.075C69.9085 202.763 69.7565 203.528 69.7565 204.216C69.7565 205.744 69.9085 207.197 69.9859 208.725C69.9859 209.26 69.9859 209.719 69.9085 210.177C69.9085 210.865 69.7565 211.477 69.7565 212.089C69.6792 212.624 69.7565 213.236 69.7565 213.771C69.8325 214.459 69.7565 215.071 69.7565 215.681C69.6792 216.523 69.7565 217.363 69.7565 218.128C69.7565 218.968 69.7565 219.733 69.6792 220.573C69.6032 221.261 69.4499 221.949 69.4499 222.637C69.4499 223.325 69.5272 223.708 69.6792 224.013C69.8325 224.319 70.2912 224.855 70.9792 225.16C71.5139 225.313 71.6672 225.313 72.2779 225.313C72.9659 225.313 73.5779 225.236 74.2659 225.16L78.4699 225.16ZM118.219 205.897C118.219 205.363 118.295 204.904 118.295 204.368C118.295 203.145 118.142 201.845 118.142 200.547C118.066 198.636 118.295 196.724 118.295 194.813C118.295 192.52 118.066 190.533 117.837 189.692C117.683 188.851 117.149 187.857 116.537 187.169C115.314 185.717 113.633 185.029 112.257 184.495C108.205 182.812 104.459 182.889 103.083 182.965C101.249 183.041 99.5672 183.271 97.8085 183.577C97.1205 183.729 96.4325 183.883 95.7445 183.959C94.2925 184.265 92.7645 184.571 92.3058 184.8C91.3112 185.183 90.8525 186.023 90.7765 186.328C90.6232 186.787 90.7005 187.323 90.7765 187.781L90.7765 191.832C90.7005 193.132 90.5472 194.508 91.5405 195.577C92.0765 196.036 92.7645 196.113 92.9165 196.113C93.8338 196.113 95.2098 195.348 96.1272 195.043C98.0378 194.279 99.6432 194.201 100.331 194.201C101.097 194.201 101.785 194.355 102.549 194.355C103.466 194.431 104.842 194.279 105.759 195.043C106.447 195.501 106.677 196.495 106.677 197.107C106.677 197.489 106.37 198.712 105.147 198.712C104.918 198.712 104.689 198.712 104.459 198.636C103.237 198.483 102.014 198.407 100.79 198.407C98.1912 198.407 97.3498 198.941 94.8285 200.088C92.9938 200.852 92.1525 201.311 90.5472 203.299C90.3178 203.68 89.1712 205.056 88.7885 206.356C88.5592 206.968 88.4832 207.656 88.4072 208.267C88.1778 210.101 88.1778 211.936 88.1778 213.771C88.1778 214.076 88.1005 215.529 88.4072 216.752C88.5592 217.44 88.7125 218.051 88.9418 218.663C89.4005 219.733 89.7832 220.497 90.0885 220.956C92.3058 224.243 95.3632 225.313 96.5098 225.619C97.5792 225.848 98.7258 225.924 99.7965 225.924C100.409 225.924 102.395 226.001 104.306 225.16C104.689 225.007 105.301 224.625 105.682 224.396C105.989 224.089 106.294 223.708 106.677 223.632C107.211 223.708 107.211 224.472 107.441 224.777C107.594 225.007 107.975 225.389 108.587 225.389C108.893 225.389 109.199 225.313 109.581 225.313C110.575 225.313 111.569 225.16 112.562 225.16C113.174 225.16 116.155 225.389 116.69 225.236C117.454 225.084 118.295 224.548 118.295 223.173C118.295 221.568 118.066 219.963 118.066 218.433C118.066 216.752 118.295 215.071 118.295 213.388C118.295 212.165 118.295 210.943 118.219 209.643L118.219 205.897ZM103.695 207.579C106.141 207.427 106.677 210.101 106.677 211.553C106.677 212.929 106.37 214 106.141 214.459C106.141 214.459 105.989 214.841 105.759 215.071C105.301 215.605 104.613 216.14 103.466 216.14C102.319 216.14 101.555 215.376 101.173 214.841C100.943 214.535 100.561 213.388 100.561 212.319C100.561 211.172 100.943 209.796 101.019 209.489C101.402 208.801 102.319 207.656 103.695 207.579ZM130.449 174.939C129.378 174.939 128.233 174.863 127.086 174.863C126.55 174.863 126.169 174.939 125.939 175.092C125.481 175.321 125.251 175.704 125.098 175.856C124.563 176.697 124.563 177.461 124.563 177.691C124.563 179.525 124.793 181.436 124.793 183.271C124.793 183.959 124.793 185.029 124.715 185.183C124.563 185.717 123.875 185.947 123.722 185.947C123.11 186.099 122.729 185.869 122.041 186.405C121.582 186.787 121.506 187.169 121.429 188.163L121.429 195.96C121.429 196.495 121.123 197.183 121.658 197.641C122.117 198.177 122.729 197.948 123.263 198.177C124.486 198.559 124.41 199.705 124.41 201.54C124.41 202.611 124.334 203.68 124.334 204.827C124.334 207.197 124.41 209.643 124.486 212.012C124.563 217.669 124.105 220.344 126.169 223.096C126.627 223.708 127.009 224.089 128.155 224.701C130.373 225.772 133.965 225.389 134.194 225.389L136.641 225.389C137.939 225.389 139.01 225.236 139.469 225.007C140.462 224.625 140.691 223.632 140.769 222.179C140.769 221.032 140.691 219.885 140.691 218.816L140.691 215.988C140.691 215.376 140.769 214.841 140.233 214.305C140.003 214.076 139.698 213.847 139.393 213.771C138.857 213.617 138.551 213.847 138.093 213.388C137.634 213.083 137.405 212.624 137.251 211.707C137.099 210.484 137.099 209.26 137.099 208.037C137.099 205.897 137.023 203.68 137.023 201.54C137.023 200.012 137.023 199.4 137.634 198.712C138.322 197.948 138.551 198.329 139.469 198.1C140.003 197.948 140.539 197.336 140.691 196.801C140.921 196.189 140.769 195.731 140.769 194.508L140.769 190.839C140.769 188.928 140.921 187.475 140.233 186.711C139.622 185.947 138.705 186.176 137.939 185.947C136.641 185.64 136.717 184.953 136.717 183.348C136.717 181.284 136.87 179.143 136.87 177.003C136.87 176.315 136.87 175.856 136.182 175.321C135.418 174.787 134.194 174.939 132.437 174.939L130.449 174.939ZM166.375 187.933C166.375 187.399 166.299 186.94 166.299 186.481C166.375 185.947 166.529 185.411 166.529 184.876C166.529 183.5 165.382 182.965 164.923 182.812C164.465 182.736 164.311 182.736 164.006 182.812C163.241 182.812 162.171 182.812 160.49 184.417C160.261 184.647 159.725 185.259 159.573 185.488C159.343 185.793 158.807 186.94 158.273 186.94C158.119 186.94 158.043 186.787 158.043 186.328C158.043 185.564 158.578 184.112 157.509 183.5C157.05 183.195 156.133 183.195 156.133 183.195C155.597 183.195 155.138 183.271 154.603 183.271C153.763 183.348 152.846 183.348 151.929 183.348C151.163 183.348 150.475 183.348 149.787 183.271C149.099 183.271 148.411 183.119 147.723 183.119C146.042 183.119 145.507 184.495 145.354 185.183C145.278 185.564 145.354 186.023 145.354 186.481L145.354 188.928C145.431 190.151 145.507 191.373 145.431 192.597C145.431 193.437 145.354 194.279 145.278 195.119C145.202 196.036 145.202 197.031 145.202 197.948C145.202 198.865 145.202 199.783 145.278 200.623C145.354 202.381 145.507 204.216 145.507 205.973C145.507 207.349 145.354 208.649 145.278 209.948L145.278 217.287C145.354 218.509 145.507 219.809 145.354 221.032C145.202 222.637 145.049 223.708 145.278 224.319C145.507 225.236 146.654 225.695 147.342 225.695C147.877 225.695 148.335 225.543 148.718 225.543C149.482 225.465 150.246 225.465 151.011 225.465C152.005 225.465 153.075 225.465 154.069 225.543C155.597 225.543 156.591 225.695 157.431 225.084C158.119 224.548 158.043 223.403 158.043 222.867C157.967 222.256 157.89 221.568 157.89 220.956L157.89 217.899C157.967 216.828 157.89 215.759 157.89 214.688C157.967 214 158.043 213.312 158.043 212.624C158.119 211.936 158.119 211.248 158.119 210.56C158.043 208.496 158.119 206.356 158.119 204.292C158.119 202.687 158.043 201.081 159.954 199.553C161.025 198.712 162.018 198.712 162.323 198.712C163.011 198.712 163.777 198.941 164.465 198.941C165.458 198.941 165.993 198.329 166.222 197.871C166.605 196.724 166.299 195.272 166.299 192.827C166.299 191.756 166.375 190.685 166.375 189.616L166.375 187.933ZM198.555 205.897C198.555 205.363 198.633 204.904 198.633 204.368C198.633 203.145 198.479 201.845 198.479 200.547C198.403 198.636 198.633 196.724 198.633 194.813C198.633 192.52 198.403 190.533 198.174 189.692C198.021 188.851 197.486 187.857 196.874 187.169C195.651 185.717 193.969 185.029 192.594 184.495C188.542 182.812 184.797 182.889 183.421 182.965C181.586 183.041 179.905 183.271 178.146 183.577C177.458 183.729 176.77 183.883 176.082 183.959C174.63 184.265 173.101 184.571 172.642 184.8C171.649 185.183 171.19 186.023 171.114 186.328C170.961 186.787 171.037 187.323 171.114 187.781L171.114 191.832C171.037 193.132 170.885 194.508 171.878 195.577C172.413 196.036 173.101 196.113 173.254 196.113C174.171 196.113 175.547 195.348 176.465 195.043C178.375 194.279 179.981 194.201 180.669 194.201C181.433 194.201 182.121 194.355 182.886 194.355C183.803 194.431 185.179 194.279 186.095 195.043C186.783 195.501 187.013 196.495 187.013 197.107C187.013 197.489 186.707 198.712 185.485 198.712C185.255 198.712 185.026 198.712 184.797 198.636C183.574 198.483 182.35 198.407 181.127 198.407C178.529 198.407 177.687 198.941 175.165 200.088C173.33 200.852 172.49 201.311 170.885 203.299C170.655 203.68 169.509 205.056 169.126 206.356C168.897 206.968 168.821 207.656 168.745 208.267C168.515 210.101 168.515 211.936 168.515 213.771C168.515 214.076 168.438 215.529 168.745 216.752C168.897 217.44 169.05 218.051 169.279 218.663C169.738 219.733 170.119 220.497 170.426 220.956C172.642 224.243 175.701 225.313 176.847 225.619C177.917 225.848 179.063 225.924 180.134 225.924C180.745 225.924 182.733 226.001 184.643 225.16C185.026 225.007 185.637 224.625 186.019 224.396C186.325 224.089 186.631 223.708 187.013 223.632C187.549 223.708 187.549 224.472 187.778 224.777C187.93 225.007 188.313 225.389 188.925 225.389C189.23 225.389 189.535 225.313 189.918 225.313C190.911 225.313 191.906 225.16 192.899 225.16C193.51 225.16 196.491 225.389 197.027 225.236C197.791 225.084 198.633 224.548 198.633 223.173C198.633 221.568 198.403 219.963 198.403 218.433C198.403 216.752 198.633 215.071 198.633 213.388C198.633 212.165 198.633 210.943 198.555 209.643L198.555 205.897ZM184.033 207.579C186.478 207.427 187.013 210.101 187.013 211.553C187.013 212.929 186.707 214 186.478 214.459C186.478 214.459 186.325 214.841 186.095 215.071C185.637 215.605 184.95 216.14 183.803 216.14C182.657 216.14 181.891 215.376 181.51 214.841C181.281 214.535 180.898 213.388 180.898 212.319C180.898 211.172 181.281 209.796 181.357 209.489C181.739 208.801 182.657 207.656 184.033 207.579ZM210.786 174.939C209.715 174.939 208.569 174.863 207.422 174.863C206.887 174.863 206.505 174.939 206.275 175.092C205.817 175.321 205.587 175.704 205.435 175.856C204.899 176.697 204.899 177.461 204.899 177.691C204.899 179.525 205.129 181.436 205.129 183.271C205.129 183.959 205.129 185.029 205.053 185.183C204.899 185.717 204.211 185.947 204.059 185.947C203.447 186.099 203.066 185.869 202.378 186.405C201.919 186.787 201.842 187.169 201.766 188.163L201.766 195.96C201.766 196.495 201.461 197.183 201.995 197.641C202.454 198.177 203.066 197.948 203.601 198.177C204.823 198.559 204.747 199.705 204.747 201.54C204.747 202.611 204.67 203.68 204.67 204.827C204.67 207.197 204.747 209.643 204.823 212.012C204.899 217.669 204.441 220.344 206.505 223.096C206.963 223.708 207.346 224.089 208.493 224.701C210.71 225.772 214.302 225.389 214.531 225.389L216.978 225.389C218.277 225.389 219.347 225.236 219.806 225.007C220.799 224.625 221.029 223.632 221.105 222.179C221.105 221.032 221.029 219.885 221.029 218.816L221.029 215.988C221.029 215.376 221.105 214.841 220.57 214.305C220.341 214.076 220.035 213.847 219.729 213.771C219.194 213.617 218.889 213.847 218.43 213.388C217.971 213.083 217.742 212.624 217.589 211.707C217.437 210.484 217.437 209.26 217.437 208.037C217.437 205.897 217.359 203.68 217.359 201.54C217.359 200.012 217.359 199.4 217.971 198.712C218.659 197.948 218.889 198.329 219.806 198.1C220.341 197.948 220.875 197.336 221.029 196.801C221.258 196.189 221.105 195.731 221.105 194.508L221.105 190.839C221.105 188.928 221.258 187.475 220.57 186.711C219.958 185.947 219.041 186.176 218.277 185.947C216.978 185.64 217.054 184.953 217.054 183.348C217.054 181.284 217.207 179.143 217.207 177.003C217.207 176.315 217.207 175.856 216.519 175.321C215.754 174.787 214.531 174.939 212.773 174.939L210.786 174.939ZM229.437 183.729C228.825 183.653 228.138 183.577 227.526 183.653C226.303 183.729 225.691 184.495 225.462 185.105C225.233 185.64 225.309 186.711 225.309 188.087C225.309 188.928 225.309 189.845 225.233 190.763C225.233 191.756 225.079 192.673 225.079 193.667C225.079 194.889 225.997 195.501 226.379 195.655C226.991 195.96 227.679 195.807 228.29 195.807C229.054 195.807 229.742 195.96 230.507 195.96L232.265 195.96C232.571 195.96 234.023 195.731 234.023 197.107C234.023 197.719 233.641 198.329 232.953 199.553C231.501 202.152 229.971 204.751 228.825 207.427C228.443 208.344 227.985 209.337 227.679 210.255C227.526 210.56 226.838 212.7 225.921 214.229C224.545 216.675 224.086 216.369 224.086 218.968C224.086 221.032 223.933 222.637 224.086 223.403C224.239 224.243 224.85 225.084 225.767 225.389C226.303 225.619 226.838 225.619 227.985 225.543C230.049 225.389 232.189 225.465 234.253 225.543C235.782 225.543 237.234 225.465 238.686 225.465C239.603 225.389 240.521 225.389 241.438 225.389C242.431 225.389 243.426 225.313 244.495 225.313C246.025 225.313 246.483 225.695 247.323 225.465C247.63 225.389 248.394 225.16 248.853 224.319C249.006 223.937 249.006 223.708 249.006 223.479C249.006 223.096 248.929 222.791 248.853 222.408C248.777 221.873 248.777 221.339 248.777 220.803C248.777 219.197 248.853 217.669 249.006 216.14C249.082 215.529 249.235 214.917 249.235 214.383C249.235 212.929 247.935 212.777 247.477 212.777C246.942 212.777 246.406 212.929 245.871 212.929C244.801 213.083 243.655 213.007 242.509 213.083C241.821 213.083 240.062 212.929 240.062 211.707C240.062 210.407 241.285 208.42 241.362 208.344C242.431 206.28 243.502 204.216 244.495 202.152C245.489 200.088 246.177 198.024 247.171 196.036C248.089 194.279 249.311 192.139 249.387 191.68C249.617 191.068 249.541 190.304 249.541 190.151C249.541 189.157 249.617 188.24 249.617 187.245C249.617 185.869 249.617 185.029 249.082 184.417C248.318 183.577 247.171 183.729 246.33 183.653L244.419 183.653C243.043 183.577 241.591 183.729 240.215 183.729C238.762 183.729 237.31 183.653 235.934 183.653C234.253 183.577 232.571 183.729 230.889 183.729L229.437 183.729ZM268.879 183.5C266.662 183.5 265.515 183.729 263.299 184.341C261.082 184.953 260.394 185.411 259.171 186.176C258.025 186.864 256.878 187.628 255.273 190.151C254.585 191.221 254.279 191.985 254.05 192.444C252.903 195.348 252.979 199.553 252.979 200.012C252.979 200.776 252.979 201.54 252.903 202.381C252.826 203.299 252.75 204.292 252.75 205.285C252.75 206.509 252.903 207.732 252.979 208.955C253.209 211.553 252.75 212.165 254.355 216.599C255.273 219.275 255.578 219.809 258.254 222.027C259.554 223.173 260.165 223.708 260.929 224.089C261.387 224.319 261.923 224.472 262.458 224.625C263.146 224.855 263.91 225.084 264.598 225.236C266.815 225.695 269.261 225.772 269.949 225.772C274.994 225.772 280.498 225.236 281.874 224.777C283.021 224.396 283.709 223.555 283.938 223.02C284.09 222.637 284.014 222.027 283.938 221.109C283.861 219.885 283.938 218.663 283.938 217.44C283.938 215.759 283.938 214.917 282.945 214.153C282.257 213.695 281.721 213.771 281.491 213.771C280.803 213.771 280.574 213.771 280.193 213.924C279.734 214.153 279.275 214.459 278.817 214.612C276.675 215.452 272.854 215.452 272.625 215.452C271.861 215.452 271.019 215.223 270.255 215.071C269.185 214.917 268.267 214.917 267.274 213.924C266.281 213.007 266.281 212.165 266.281 211.095C266.281 210.484 266.203 210.255 266.51 209.872C266.891 209.26 267.579 209.337 267.733 209.337C268.267 209.26 268.726 209.184 269.261 209.184C270.714 209.184 272.242 209.489 273.695 209.489C274.842 209.489 275.911 209.489 277.058 209.413C277.746 209.337 278.434 209.26 279.198 209.26C281.569 209.26 282.486 209.796 283.709 208.42C284.855 207.044 284.778 206.127 284.778 203.528C284.778 201.005 285.007 198.407 284.626 195.884C284.167 192.979 283.097 190.915 282.333 189.692C281.339 188.163 279.81 186.635 278.969 186.099C278.587 185.869 276.982 184.876 275.529 184.417C273.695 183.807 270.79 183.5 268.879 183.5ZM267.962 200.928C266.891 201.005 265.669 201.311 265.669 198.865C265.669 197.719 265.974 196.877 266.127 196.343C266.357 195.577 266.357 194.201 267.427 193.437C267.657 193.284 268.343 193.056 268.955 192.903C270.943 192.673 271.783 194.431 272.09 194.967C272.701 196.419 272.471 198.636 272.471 198.941C272.471 199.629 272.625 200.241 271.861 200.776C271.249 201.235 270.943 200.928 269.797 200.928L267.962 200.928ZM301.901 201.005C301.977 200.393 301.977 198.024 302.206 197.336C302.283 197.031 302.665 196.036 303.811 195.655C304.117 195.501 304.346 195.501 304.499 195.501C304.729 195.501 305.493 195.501 306.181 196.036C307.098 196.724 307.022 197.641 307.022 198.636C307.022 200.547 306.869 202.304 306.717 204.216C306.639 205.515 306.639 206.815 306.639 208.037C306.639 210.789 306.869 213.541 306.869 216.216C306.869 218.051 306.717 219.809 306.563 221.568C306.563 222.103 306.487 222.561 306.487 223.096C306.487 223.249 306.487 223.86 306.946 224.548C307.634 225.389 308.398 225.389 309.162 225.389C310.538 225.389 311.99 225.16 313.366 225.16C314.054 225.16 314.742 225.236 315.43 225.236C315.966 225.313 316.425 225.389 316.883 225.389C317.801 225.389 318.411 224.931 318.717 224.548C319.482 223.403 319.482 221.261 319.329 218.509C319.175 216.828 319.329 215.223 319.405 213.541C319.405 212.012 319.329 210.484 319.329 208.955C319.329 207.197 319.482 205.439 319.482 203.68C319.558 202.152 319.482 200.623 319.482 199.017C319.482 196.724 319.634 194.431 319.405 192.139C319.253 190.915 318.946 189.845 318.794 189.387C318.641 189.08 318.259 188.087 318.03 187.704C315.813 183.883 311.99 182.66 308.781 182.812C306.717 182.965 305.263 183.577 304.575 183.959C304.041 184.188 303.582 184.417 303.047 184.8C302.818 184.953 302.283 185.335 302.054 185.335C301.595 185.411 301.595 184.876 301.442 184.188C301.137 183.119 299.913 183.195 299.761 183.195C299.073 183.195 298.385 183.271 297.773 183.348C296.931 183.424 296.091 183.424 295.25 183.424L294.027 183.424C293.339 183.348 292.727 183.271 292.039 183.271C290.434 183.271 289.746 184.188 289.517 184.953C289.365 185.564 289.365 187.323 289.365 187.857C289.365 189.309 289.517 190.763 289.517 192.139C289.594 192.979 289.517 193.82 289.517 194.66C289.441 196.036 289.517 197.412 289.517 198.788C289.517 202.228 289.135 205.744 289.135 209.184C289.135 212.089 289.365 214.993 289.365 217.899C289.365 218.816 289.287 219.809 289.287 220.727C289.211 221.949 288.523 225.389 291.275 225.465C291.734 225.465 292.117 225.389 292.575 225.389C293.263 225.313 293.874 225.313 294.562 225.313C295.403 225.313 296.243 225.236 297.085 225.313C298.078 225.389 299.073 225.465 299.99 225.465C301.059 225.465 301.595 224.625 301.671 224.167C301.977 223.249 301.671 221.185 301.595 218.663C301.518 216.14 301.825 213.617 301.825 211.095C301.825 209.337 301.671 207.579 301.671 205.821L301.901 201.005" fill="#ffffff" fill-rule="evenodd" opacity="1" stroke="none"></path> <path d="M239.145 154.572C244.959 154.591 250.662 153.772 256.279 152.288C261.495 150.911 266.423 148.852 271.195 146.337C277.897 142.805 283.619 138.091 288.65 132.471C291.971 128.76 294.806 124.704 297.251 120.385C298.753 117.733 299.995 114.951 301.023 112.061C302.022 109.253 302.875 106.421 303.55 103.524C305.082 96.9507 305.534 90.3107 304.973 83.5894C304.371 76.4027 302.635 69.5107 299.695 62.924C296.949 56.7667 293.378 51.14 288.849 46.136C280.714 37.148 270.895 30.7614 259.327 27.092C259.013 26.992 258.701 26.868 258.378 26.8107C256.887 26.544 255.646 27.7987 256.003 29.276C256.154 29.9014 256.425 30.544 256.803 31.0614C262.662 39.0614 266.218 47.9974 267.525 57.7987C268.919 68.2667 267.499 78.3947 263.371 88.116C260.353 95.228 256.134 101.551 250.622 106.987C245.751 111.789 240.209 115.621 234.01 118.511C227.005 121.776 219.657 123.72 211.937 124.124C204.058 124.536 196.355 123.568 188.905 120.875C188.129 120.593 187.362 120.248 186.559 120.087C185.898 119.952 185.125 119.863 184.515 120.077C183.297 120.505 182.869 121.843 183.421 123.073C183.622 123.521 183.902 123.937 184.171 124.353C187.966 130.227 192.511 135.436 197.994 139.789C205.859 146.033 214.578 150.581 224.411 152.856C229.257 153.976 234.165 154.585 239.145 154.572" fill="#ffffff" fill-rule="evenodd" opacity="1" stroke="none"></path> <path d="M179.405 58.0947C178.674 57.7734 178.275 58.1067 177.915 58.5427C177.075 59.5614 176.219 60.5654 175.407 61.6054C174.877 62.2854 174.335 62.636 173.405 62.3334C171.839 61.824 170.235 61.4374 168.645 61.0107C168.21 60.8934 167.766 60.7627 167.322 60.74C166.346 60.6907 165.919 61.4067 166.381 62.288C166.531 62.5787 166.743 62.84 166.953 63.0947C167.919 64.2734 168.87 65.4667 169.875 66.612C170.51 67.3347 170.753 67.9747 170.209 68.9174C169.429 70.272 168.801 71.716 168.143 73.1374C167.921 73.6187 167.747 74.1387 167.661 74.66C167.566 75.232 167.902 75.536 168.47 75.4014C169.229 75.2214 169.974 74.972 170.713 74.7187C171.727 74.3707 172.743 74.0227 173.734 73.616C174.401 73.344 174.913 73.4507 175.403 73.964C176.37 74.976 177.358 75.9654 178.341 76.9614C178.486 77.108 178.635 77.256 178.806 77.368C179.591 77.8827 180.415 77.4867 180.438 76.56C180.47 75.2414 180.451 73.9214 180.459 72.6014C180.465 71.52 180.535 71.408 181.49 71.0334C182.91 70.4774 184.333 69.9307 185.754 69.376C185.946 69.3014 186.149 69.236 186.313 69.1187C186.979 68.6427 187.026 67.9414 186.327 67.5107C185.633 67.084 184.853 66.7827 184.086 66.4907C183.085 66.1094 182.065 65.7774 181.043 65.4534C180.278 65.212 179.915 64.7334 179.875 63.92C179.799 62.3574 179.669 60.7974 179.55 59.236C179.519 58.836 179.449 58.4387 179.405 58.0947" fill="#ffffff" fill-rule="evenodd" opacity="1" stroke="none"></path> <path d="M113.121 78.72C112.651 78.0413 112.193 77.3253 111.679 76.6507C110.33 74.8773 110.321 74.884 111.121 72.812C111.855 70.908 111.23 70.0493 109.241 70.5147C107.705 70.8747 106.625 70.5133 105.694 69.3133C105.425 68.9667 105.029 68.6867 104.637 68.4787C103.794 68.028 103.119 68.248 102.695 69.1133C102.389 69.7413 102.137 70.4013 101.921 71.0667C101.659 71.8667 101.129 72.24 100.318 72.3827C99.3432 72.5547 98.3952 72.884 97.4179 73.0267C96.4179 73.172 96.1619 74.2387 96.7472 74.9027C97.2659 75.4907 97.7939 76.0733 98.3605 76.6147C98.7805 77.0147 98.8432 77.424 98.6632 77.952C98.4245 78.652 98.2179 79.3653 98.0339 80.0827C97.7405 81.2347 98.1885 81.7547 99.3739 81.6133C100.151 81.52 100.926 81.3773 101.69 81.2053C102.283 81.0707 102.729 81.2227 103.117 81.676C103.626 82.272 104.142 82.864 104.687 83.428C105.679 84.4547 106.435 84.344 107.074 83.0907C107.467 82.3187 107.871 81.5493 108.209 80.7533C108.426 80.24 108.737 79.948 109.293 79.8867C109.949 79.816 110.599 79.6987 111.254 79.624C111.922 79.548 112.543 79.3947 113.121 78.72" fill="#ffffff" fill-rule="evenodd" opacity="1" stroke="none"></path> <path d="M310.582 30.2627C309.913 31.3507 309.249 32.4307 308.585 33.508C308.519 33.6133 308.453 33.7187 308.383 33.82C308.114 34.2067 307.866 34.6253 308.221 35.056C308.597 35.512 309.101 35.624 309.673 35.3933C310.703 34.9747 311.778 34.6453 312.765 34.1413C313.718 33.6547 314.351 33.944 315.067 34.5987C315.885 35.3467 316.791 36.0067 317.71 36.6293C318.807 37.3733 319.493 37.0013 319.539 35.6533C319.567 34.8733 319.493 34.088 319.458 33.3053C319.449 33.1 319.409 32.896 319.394 32.6907C319.249 30.6453 319.249 30.6453 321.102 29.6747C322.014 29.1973 322.915 28.696 323.845 28.2547C324.421 27.9813 324.654 27.5533 324.562 26.9667C324.477 26.4293 324.018 26.2893 323.553 26.2093C322.377 26.004 321.203 25.7693 320.019 25.6107C319.193 25.4987 318.811 25.072 318.678 24.268C318.505 23.2147 318.25 22.176 318.026 21.132C317.946 20.7573 317.827 20.4133 317.362 20.3533C316.895 20.2947 316.591 20.5027 316.325 20.8707C315.503 22.004 314.657 23.1187 313.829 24.248C313.375 24.8653 312.786 25.1507 312.017 25.0733C311.238 24.9947 310.457 24.9293 309.677 24.8707C309.185 24.832 308.69 24.7827 308.197 24.796C307.386 24.82 306.879 25.1813 306.675 25.82C306.453 26.5173 306.931 26.876 307.369 27.2613C308.265 28.0507 309.158 28.8427 310.045 29.644C310.223 29.8053 310.365 30.008 310.582 30.2627" fill="#ffffff" fill-rule="evenodd" opacity="1" stroke="none"></path> <path d="M96.2685 28.088C95.4898 29.2507 94.7432 30.3787 93.9805 31.496C93.7018 31.9054 93.3845 32.288 93.0885 32.684C92.8552 32.996 92.6258 33.376 93.0045 33.6627C93.2565 33.8547 93.6952 33.9774 93.9912 33.9C94.7458 33.7054 95.4698 33.3907 96.2005 33.1067C97.0845 32.7627 97.9738 32.4254 98.8405 32.0414C99.3885 31.796 99.7538 31.9187 100.125 32.3734C100.907 33.332 101.711 34.2747 102.553 35.1827C102.805 35.4547 103.198 35.7294 103.543 35.752C104.079 35.7867 104.279 35.2574 104.378 34.82C104.475 34.3854 104.473 33.92 104.465 33.4707C104.45 32.5627 104.423 31.6534 104.362 30.748C104.317 30.0787 104.561 29.672 105.203 29.4254C106.243 29.028 107.263 28.5774 108.282 28.1254C108.749 27.9174 109.423 27.8387 109.354 27.1227C109.285 26.408 108.642 26.304 108.081 26.144C107.089 25.8614 106.103 25.552 105.109 25.2774C104.453 25.0974 104.181 24.6987 104.179 24.0174C104.177 22.532 104.126 21.0454 104.095 19.56C104.089 19.2707 104.143 18.964 104.065 18.6974C103.967 18.3747 103.785 17.8534 103.59 17.8307C103.255 17.792 102.761 17.9734 102.551 18.236C102.017 18.9094 101.587 19.6694 101.145 20.412C100.742 21.084 100.405 21.796 99.9885 22.4587C99.4538 23.3094 99.2925 23.364 98.3685 23.112C97.0552 22.7547 95.7472 22.3747 94.4378 22.004C94.1992 21.9374 93.9632 21.8414 93.7205 21.8187C93.0872 21.7587 92.6752 22.22 92.8712 22.828C92.9938 23.2107 93.2498 23.556 93.4752 23.8987C94.3805 25.2707 95.2978 26.6347 96.2685 28.088" fill="#ffffff" fill-rule="evenodd" opacity="1" stroke="none"></path> <path d="M136.993 135.829C136.35 136.883 135.789 137.789 135.246 138.705C134.973 139.164 134.67 139.621 134.494 140.12C134.237 140.848 134.595 141.224 135.374 141.108C135.615 141.072 135.851 140.979 136.079 140.885C137.266 140.407 138.467 139.961 139.623 139.42C140.238 139.132 140.673 139.187 141.189 139.616C142.327 140.565 143.505 141.471 144.687 142.367C145.074 142.659 145.487 142.951 146.035 142.591C146.585 142.229 146.61 141.743 146.526 141.181C146.362 140.08 146.234 138.972 146.043 137.875C145.927 137.203 146.107 136.779 146.763 136.515C147.682 136.145 148.577 135.719 149.479 135.313C149.743 135.196 150.015 135.089 150.259 134.937C151.014 134.471 151.001 133.9 150.195 133.463C149.766 133.229 149.287 133.068 148.814 132.939C147.939 132.697 147.055 132.484 146.167 132.296C145.423 132.137 145.049 131.768 145.006 130.956C144.957 130.012 144.763 129.075 144.617 128.137C144.526 127.551 144.374 126.907 143.682 126.847C143.073 126.795 142.477 126.989 142.107 127.619C141.606 128.471 141.006 129.267 140.515 130.124C140.162 130.74 139.715 130.98 139.006 130.944C137.733 130.877 136.455 130.884 135.179 130.873C134.894 130.872 134.595 130.883 134.322 130.959C133.285 131.245 132.979 132.299 133.758 133.055C134.497 133.772 135.319 134.403 136.105 135.072C136.354 135.284 136.603 135.496 136.993 135.829" fill="#ffffff" fill-rule="evenodd" opacity="1" stroke="none"></path> <path d="M47.5885 95.692C47.4525 94.3027 47.3565 93.1533 47.2205 92.008C47.1472 91.3907 47.3579 90.9987 47.9165 90.7187C48.6899 90.3307 49.4419 89.9 50.1845 89.456C50.6419 89.184 51.1459 88.8987 50.9899 88.2187C50.8565 87.6347 50.3899 87.5 49.8792 87.4013C49.2325 87.2773 48.5872 87.1307 47.9499 86.9653C46.9459 86.704 46.8645 86.5853 46.7499 85.536C46.6565 84.676 46.5539 83.8187 46.4459 82.9613C46.4139 82.716 46.3565 82.4747 46.2979 82.2347C46.1619 81.6853 45.9085 81.188 45.3059 81.096C44.7472 81.0093 44.5539 81.5267 44.3339 81.9067C43.7739 82.868 43.2232 83.836 42.7059 84.82C42.4299 85.3453 42.0739 85.512 41.4992 85.3493C40.5085 85.0693 39.5072 84.828 38.5085 84.5747C38.1899 84.4933 37.8699 84.3773 37.5472 84.3613C36.8752 84.3307 36.3939 84.8267 36.5965 85.452C36.8179 86.14 37.1499 86.824 37.5765 87.4053C38.0859 88.0973 38.7405 88.684 39.3419 89.3067C39.8045 89.7853 39.8605 90.2587 39.5245 90.864C38.9259 91.944 38.4099 93.0707 37.8432 94.1693C37.6285 94.584 37.3699 94.9987 37.7992 95.4C38.2365 95.8093 38.7032 95.6453 39.1659 95.3893C40.1392 94.8533 41.1245 94.3373 42.1005 93.8053C42.9592 93.3373 42.9712 93.3293 43.6632 94.0627C44.2579 94.692 44.8125 95.3627 45.4365 95.9587C45.7152 96.2253 46.1072 96.4707 46.4765 96.5267C47.2445 96.6413 47.6072 96.2347 47.5885 95.692" fill="#ffffff" fill-rule="evenodd" opacity="1" stroke="none"></path> </g> </g> </svg> 