<svg width="287" height="139" viewBox="0 0 287 139" fill="none" xmlns="http://www.w3.org/2000/svg">
<path d="M69.6309 104.5C69.6309 103.5 69.6309 102.6 69.6309 101.7C69.2309 98.2 69.0309 98.5 68.4309 96.1C68.1309 95.2 68.0309 94.3 67.7309 93.5C67.0309 91.6 65.3309 89.3 65.1309 88.9C64.3309 87.8 63.7309 86.3 62.7309 85.3C62.1309 84.5 61.4309 83.9 60.8309 83.2C60.4309 82.7 60.0309 82.1 59.6309 81.6C59.0309 81 58.2309 80.5 58.0309 80.4C57.2309 79.8 56.6309 79.3 54.7309 78.5C54.2309 78.3 53.6309 78.1 53.0309 77.8C52.1309 77.4 51.4309 76.9 50.5309 76.5C49.6309 76.1 48.6309 75.7 47.6309 75.3C47.3309 75.3 45.5309 74.3 44.1309 74C42.9309 73.7 41.7309 73.6 39.2309 73.5C37.4309 73.3 35.8309 73.1 34.0309 73.1C32.7309 73.1 31.4309 73.1 30.2309 73.1C28.9309 73.1 29.1309 73.1 27.2309 73.6C26.2309 73.8 25.3309 73.9 24.4309 74.1C23.2309 74.5 21.8309 75 20.6309 75.4C17.7309 76.4 16.7309 76.6 14.2309 78.5C13.4309 79 12.6309 79.6 11.9309 80.3C11.0309 81.1 10.1309 82.1 9.23094 82.9C7.83094 84.2 7.33094 84.5 6.63094 85.3C6.23094 85.8 5.93094 86.4 5.53094 87L4.43094 88.9C3.93094 89.9 3.43094 91 3.03094 92.1C2.43094 93.6 1.63094 95.1 1.23094 96.6C0.83094 97.9 0.930942 99.3 0.830942 100.7C0.630942 101.8 0.43094 102.9 0.23094 104.1C-0.16906 106.5 0.0309401 108.2 0.23094 109.1V111C0.23094 113.4 0.830941 114.6 1.43094 116.9C1.93094 118.7 2.23094 120.3 3.23094 121.8C3.53094 122.2 4.23094 123.2 5.13094 124.3C5.73094 124.9 6.23094 125.4 6.83094 126.1C7.13094 126.5 7.23094 126.8 7.53094 127.1C7.83094 127.4 7.93094 127.6 8.23094 127.9C9.03094 128.8 10.1309 130.4 12.4309 132L13.7309 132.8C14.6309 133.4 15.5309 134.2 16.3309 134.7C17.7309 135.5 18.5309 135.6 20.0309 136.1C21.1309 136.5 22.1309 137.1 23.3309 137.3C26.3309 138.1 28.9309 137.9 30.0309 137.9C31.3309 137.9 32.6309 138.2 34.0309 138.2C35.0309 138.2 36.0309 138.2 37.0309 138.2C38.0309 138.2 39.1309 138.2 40.2309 138C40.8309 138 41.5309 138 42.1309 137.8C43.0309 137.6 46.5309 136.8 47.3309 136.6C48.2309 136.2 49.0309 135.9 49.9309 135.5C52.0309 134.8 52.4309 135 54.2309 134C56.7309 132.8 56.8309 132.1 58.2309 131.2C59.7309 130.2 59.7309 130.5 61.6309 128.6C62.3309 128 63.0309 127.2 64.2309 125.4C66.3309 122.1 65.8309 122 66.7309 119.7C67.0309 119.2 67.1309 118.6 67.4309 118.1C68.3309 116.1 68.8309 115.3 69.1309 113.1C69.1309 112.5 69.3309 111.9 69.3309 111.2C69.3309 110.6 69.3309 109.9 69.3309 109.3C69.3309 108.1 69.5309 107.6 69.7309 106.4C69.7309 105.9 69.7309 105.5 69.7309 104.5H69.6309ZM45.8309 105.8C45.8309 108.3 44.2309 110.5 43.8309 110.9C43.5309 111.3 43.2309 111.4 42.9309 111.8C42.4309 112.2 41.9309 112.8 41.8309 112.9C40.7309 114.4 38.9309 115 38.3309 115.1C37.6309 115.3 36.9309 115.3 36.1309 115.4C35.6309 115.4 35.0309 115.6 34.4309 115.6C33.8309 115.6 33.5309 115.6 33.1309 115.6C32.7309 115.6 32.3309 115.6 31.9309 115.6C29.6309 115.6 27.2309 113.5 27.0309 113.2C25.9309 112.2 25.9309 111.8 25.4309 111.1C25.1309 110.7 24.7309 110.2 24.3309 109.7C23.9309 109.2 23.2309 107.7 23.2309 105.8C23.2309 103.9 24.3309 102.2 24.7309 101.4C25.1309 100.6 25.2309 100 25.9309 99.3C26.6309 98.4 27.1309 98.2 29.0309 97.4C30.1309 96.9 31.0309 96.2 32.2309 95.8C32.8309 95.6 33.7309 95.5 34.3309 95.5C36.2309 95.5 37.2309 96 38.0309 96.3C39.2309 96.8 39.9309 96.8 41.2309 97.5C41.6309 97.8 42.9309 98.5 43.8309 99.6C44.2309 100.2 44.5309 100.8 44.9309 102.3C45.3309 103.4 45.7309 104.4 45.8309 105.7" fill="#1F418C"/>
<path d="M124.831 100.6C124.831 99.9 124.831 99.2 125.031 98.6C125.031 98.1 125.031 97.5 125.031 97.1C125.031 96.7 125.031 95.9 125.031 95.2C125.031 94.7 125.031 94.1 125.231 93.6C125.431 92.5 125.631 91.4 125.631 90.3C125.631 88 123.631 86.4 123.031 86.2C122.331 85.9 121.731 85.9 120.931 85.9C119.431 85.9 117.931 86.2 116.431 86.2C114.931 86.2 114.031 86.2 112.831 86.2C111.531 86.2 110.231 86.4 108.831 86.5C106.931 86.5 104.731 85.4 103.231 87.1C102.731 87.6 102.331 88.3 102.331 90C102.331 91.7 102.631 93.4 102.631 95C102.631 96.6 102.231 98.8 102.231 100.6C102.231 102.4 102.231 101.7 102.231 102.1V104.4C102.231 105 102.431 105.6 102.431 106.3C102.431 107 102.431 106.9 102.231 107.7C101.831 110 102.531 111.9 100.731 113.9C100.131 114.6 99.6309 114.7 99.2309 114.7C98.3309 114.7 97.8309 114.3 97.5309 114.1C96.3309 113.1 96.0309 110.9 96.0309 110.7C95.7309 108.8 95.6309 106.6 95.6309 106C95.6309 105 95.6309 104.1 95.8309 103.2C95.8309 102.2 96.1309 101.3 96.2309 100.5C96.2309 99.4 96.0309 98.2 96.0309 97.1C96.0309 96 96.0309 95 96.0309 94C96.0309 93.5 96.0309 93 96.0309 92.6C96.0309 91.8 96.0309 91 96.0309 90.2C96.0309 89.1 95.6309 88.5 95.3309 88.1C94.2309 86.6 91.9309 86.3 91.4309 86.3C90.6309 86.3 89.9309 86.3 89.1309 86.5C88.2309 86.5 87.3309 86.5 86.5309 86.5C85.7309 86.5 84.0309 86.8 82.8309 86.8C81.6309 86.8 81.2309 86.8 80.4309 86.6C79.9309 86.6 79.3309 86.6 78.9309 86.6C78.5309 86.6 77.8309 86.6 77.3309 86.6C76.8309 86.6 74.8309 86.6 73.8309 88C73.4309 88.5 73.3309 89.1 73.1309 90.4C72.7309 92.5 72.9309 94.3 73.1309 95.2C73.1309 96.4 73.1309 97.7 72.9309 99C72.9309 100.1 72.9309 101.3 72.9309 102.4C72.9309 103.3 72.9309 104.2 72.9309 105C72.9309 105.8 72.9309 107.2 72.9309 108.3C72.9309 109.2 72.7309 110 72.6309 110.9C72.6309 111.7 72.4309 112.6 72.4309 113.4C72.4309 114.8 72.4309 116.2 72.4309 117.6C72.4309 118.9 72.8309 120.2 72.8309 121.6C73.0309 123.9 72.8309 126.9 73.8309 129.2C74.1309 129.8 74.8309 131 75.2309 131.6C76.3309 133.1 77.2309 134 77.8309 134.4C78.9309 135.3 79.9309 135.5 80.4309 135.8C81.0309 136.1 81.6309 136.5 82.3309 136.8C83.2309 137.2 84.5309 137.3 84.7309 137.3C85.8309 137.5 86.9309 138 89.2309 138C91.5309 138 93.9309 137.8 95.1309 137.5C95.8309 137.3 96.4309 137.1 97.0309 136.8C99.0309 136.2 99.1309 136.4 100.731 134.9C101.131 134.5 101.531 134.1 101.831 133.6C102.231 133.2 102.531 133 102.831 133C103.631 133 104.031 134.9 104.231 135.3C104.631 136.4 105.431 137.3 107.731 137.3H110.431C111.831 137.3 113.131 137 114.531 137C115.931 137 120.231 137.4 122.031 136.8C122.431 136.8 122.931 136.4 123.231 136.2C124.131 135.4 124.531 134 124.531 132.8C124.531 131.6 124.031 129.9 124.031 129.9C124.031 129.5 123.831 128 123.831 126.6C123.831 125.2 124.031 123.4 124.031 121.9C124.031 120 124.031 118 124.031 116.1C124.031 114.4 124.431 112.7 124.431 111C124.431 109.3 124.431 109.4 124.431 108.5C124.431 107.9 124.431 107.3 124.431 106.6C124.431 105.9 124.431 105.3 124.231 104.7V100.9" fill="#1F418C"/>
<path d="M155.831 77.9C155.831 77.5 155.831 77.3 155.831 76.9C155.831 76.5 155.831 75.8 155.431 75.1C154.831 74.5 153.831 74.4 152.131 74.4C150.431 74.4 149.531 74.4 148.231 74.4C147.231 74.4 146.931 74.4 146.531 74.8C145.831 75.2 144.931 76.2 143.731 77.4C143.131 78 142.531 78.6 141.831 79.2C141.131 79.8 140.231 80.3 139.631 80.9C139.131 81.3 137.331 83 135.431 84.1C132.531 85.6 130.831 85.6 130.131 87.5C129.931 87.9 129.731 89.6 129.731 90.1C129.731 90.6 129.931 91.2 129.731 91.7C129.731 92.4 129.731 93 129.731 93.7C129.731 94.7 129.931 95.6 129.931 96.6C129.931 98.9 129.331 99.7 130.131 100.8C130.731 101.9 131.731 101.8 132.131 101.9C132.631 101.9 133.131 102.3 133.431 102.8C133.631 103.2 133.831 104.6 133.831 106.1C133.831 108.7 133.431 111.3 133.431 114C133.431 116.7 133.731 117.9 133.731 119.8C133.731 121.7 133.731 121.5 133.731 122.3C133.731 123.1 133.731 124 133.731 124.8C133.731 128.3 134.031 131.1 134.831 132.4C135.231 133.2 135.731 133.4 136.431 134.1C136.731 134.4 137.231 134.8 137.231 134.9C137.631 135.1 137.631 135.1 138.231 135.3C138.631 135.5 139.031 135.7 139.431 135.8C140.331 136.2 140.731 136.2 141.331 136.3C142.031 136.5 142.631 136.7 143.231 136.8C143.931 136.8 144.631 136.8 145.231 137C145.831 137 146.331 137.3 146.931 137.4C147.731 137.4 148.631 137.6 149.531 137.6C150.431 137.6 150.831 137.4 151.531 137.4C152.031 137.4 152.631 137.4 153.231 137.4C154.931 137.4 156.531 137.1 158.131 137C158.631 137 159.231 137 159.631 136.8C160.531 136.6 160.831 136.5 161.331 136.4C162.131 136.1 162.331 136 162.631 135.8C163.331 135.4 164.231 134.5 164.331 132.6C164.331 132 164.131 131.4 164.131 130.7C164.131 129.8 164.431 129 164.431 128.1C164.431 127.2 164.431 127 164.231 126.2C164.031 125.1 164.031 124.6 164.031 124.1C164.031 123.2 164.031 123 164.031 122.4C164.031 122.4 164.231 121.1 164.231 121C164.231 119.5 162.731 118.9 162.331 118.8C161.831 118.6 161.431 118.8 160.931 118.8C160.431 118.8 160.131 118.8 159.831 118.8C159.131 118.8 158.431 119 157.731 119C155.931 119 155.831 117.6 155.831 115C155.831 114.2 155.831 113.5 155.831 112.8C155.831 112.1 155.631 110.9 155.631 109.9C155.631 108.9 155.631 108.7 155.831 108C155.831 107.1 155.631 105.2 155.831 104.3C155.831 103.9 156.231 103.4 156.731 103.2C157.931 102.7 159.331 103.2 160.731 103.2C162.131 103.2 163.631 102.4 164.031 101.7C164.331 101.2 164.331 100.6 164.331 100.4C164.331 99.4 164.031 98.5 164.031 97.7C164.031 96.9 164.431 96.1 164.431 95.3C164.431 94.5 164.431 94.3 164.231 93.9C164.231 93.5 164.231 92.9 164.231 92.5C164.231 92.1 164.231 91.3 164.231 90.6C164.231 90.1 164.431 89.5 164.431 88.8C164.431 87.8 163.931 86.9 162.931 86.6C162.531 86.4 161.831 86.6 161.731 86.6H160.531C159.731 86.6 157.931 86.9 157.031 86.4C155.731 85.7 155.831 84 155.931 81.5V78.4" fill="#1F418C"/>
<path d="M169.031 125C169.031 126 169.031 126.9 169.031 128C169.031 129 169.031 129.9 169.031 130.9C169.031 132.5 169.031 133.3 169.431 134C169.931 135.2 171.731 136.9 175.031 136.9C178.331 136.9 178.031 136.7 179.431 136.6C181.331 136.6 183.131 136.6 184.931 136.6C186.731 136.6 186.031 136.6 186.531 136.6C187.031 136.6 187.531 136.6 188.031 136.6C188.431 136.6 189.031 136.6 189.431 136.4C190.231 136.2 190.931 135.6 191.131 135.4C191.431 135.2 191.631 134.8 191.831 134.4C192.531 132.6 192.531 132.1 192.531 131C192.531 128.8 191.931 126.8 191.831 124.6C191.831 124 191.831 123.3 191.831 122.7C191.831 122.1 191.831 121.5 191.831 120.8C191.831 119.2 192.031 117.6 192.031 116.1C192.031 114.6 191.731 113 191.731 111.5C191.731 110 191.931 109.3 192.031 108.1C192.031 107.5 192.031 106.8 192.031 106.2C192.031 105.7 192.031 105.1 192.031 104.5C192.031 103.9 192.031 103.6 192.031 103.2C192.031 102.5 191.831 101.7 191.831 100.9C191.831 99.7 192.131 98.4 192.231 97.2C192.231 95.7 192.231 94.2 192.231 92.7C192.231 91.2 192.231 90.9 192.231 90.1C192.231 89.4 192.031 88.7 191.931 88C191.931 87.3 191.931 86.5 191.931 85.7C191.931 84.5 191.931 83.1 192.131 81.9C192.131 80.8 192.331 79.6 192.331 78.5C192.331 77.4 192.331 76.2 191.131 75C189.931 73.8 189.831 74.1 188.131 74.2C186.931 74.2 185.631 74.4 184.431 74.5C183.031 74.5 181.531 74.2 180.231 74.2C178.931 74.2 179.131 74.2 178.531 74.2C178.131 74.2 177.631 74.2 177.131 74.2C176.631 74.2 176.031 74.2 175.431 74.2C173.931 74.2 173.631 74 172.731 74.2C171.531 74.5 170.631 75.5 170.331 75.9C169.931 76.7 169.431 78.5 169.431 79.4C169.431 80.3 169.431 80.8 169.631 81.5C169.631 82.9 169.931 84.3 169.931 85.7C169.931 87.1 169.931 87.2 169.931 88C169.931 89 169.931 90 169.931 91C169.931 92.7 169.731 94.3 169.731 95.9C169.731 97.5 170.031 99.9 170.031 101.8C170.031 103.7 169.631 105.5 169.631 107.4C169.631 109.3 169.831 110.2 169.931 111.5V113.3C169.931 113.7 169.931 114.3 169.731 114.7C169.731 115.4 169.931 116.2 169.931 116.9C169.931 117.6 169.931 118.1 169.931 118.8C169.931 119.7 169.931 120.6 169.931 121.4L169.631 124.6" fill="#1F418C"/>
<path d="M250.431 110.2C250.431 109.6 250.431 109 250.431 108.7C250.231 108 250.031 107.2 250.031 106.5C250.031 105.7 250.031 104.9 250.031 104.1C250.031 103.7 249.631 102.4 249.631 102C249.231 100.9 249.131 99.7 248.631 98.6C248.231 97.9 247.831 97.4 247.531 96.7C247.131 95.9 247.031 95.6 246.431 94.9C245.931 94.3 245.331 93.7 244.631 93.1C242.931 91.4 242.731 90.8 240.631 89.6C240.031 89.3 239.531 89.1 238.931 88.7C237.431 87.8 237.331 87.6 236.331 87.3C235.531 86.9 234.631 86.9 233.731 86.6C233.031 86.4 232.231 86.2 231.531 86C230.631 85.8 229.631 85.7 228.731 85.6C226.831 85.4 224.931 85.2 223.031 85.2C222.231 85.2 221.331 85.2 220.531 85.2C219.831 85.2 219.231 85.4 218.531 85.5C217.231 85.5 216.731 85.5 214.531 86.1C214.031 86.3 213.431 86.5 212.831 86.7C212.031 87.1 211.231 87.6 210.331 87.9C208.431 88.6 208.431 88.4 205.731 90.1C203.031 91.9 202.731 92.7 201.631 94.2C201.031 94.9 200.231 95.5 199.731 96.3C199.431 96.7 199.131 97.4 198.631 98.5C198.331 99.1 198.031 99.7 197.731 100.4C197.731 100.7 196.731 103.2 196.631 103.6C196.631 104.1 196.431 104.7 196.331 105.3C196.131 105.9 195.931 106.4 195.831 107.1C195.531 107.9 195.431 110.1 195.431 112.6C195.431 115.1 195.431 113.9 195.631 114.5C195.831 115.5 196.031 116.4 196.331 117.3C197.531 121.9 198.831 123.2 200.131 125.2C200.531 125.6 200.731 126.1 201.031 126.5C201.331 126.9 201.731 127.4 202.131 127.8C202.431 128.1 202.531 128.4 202.831 128.7C203.231 129.2 203.731 129.6 204.231 130C206.631 132.1 208.131 132.6 209.331 133.4C211.231 134.4 211.131 134.5 214.131 135.4C214.631 135.6 215.231 135.8 215.931 135.9C216.631 136.1 217.431 136.1 218.131 136.3C218.931 136.6 219.631 136.9 220.431 137.1C220.931 137.1 221.531 137.1 222.131 137.3C222.631 137.3 223.231 137.6 223.831 137.7C224.031 137.7 227.331 138.1 227.631 138.1C228.231 138.1 228.831 138.1 229.531 138.1C230.231 138.1 230.831 138.1 231.531 138.1C231.931 138.1 232.431 138.1 232.931 138.1C233.731 138.1 234.531 138.1 235.331 138.1C236.131 138.1 236.931 138.1 237.731 137.9C241.431 137.9 242.131 137.6 244.331 137.1C245.431 136.8 247.731 136.5 247.731 133.3C247.731 130.1 247.531 131.7 247.431 130.9C247.431 130.4 247.431 129.8 247.431 129.2C247.431 128.1 247.431 127 247.631 125.9C247.631 125.2 247.831 124.5 247.831 123.8C247.831 121.2 245.331 121 244.731 121C243.431 121 241.731 121.7 240.531 121.9C239.431 122.1 237.531 121.9 234.931 121.9C232.331 121.9 232.231 121.9 230.831 121.9C229.831 121.9 228.931 121.6 228.031 121.5C227.531 121.5 226.931 121.5 226.831 121.5H225.531C224.631 121.5 223.131 121.8 221.031 121.1C220.131 120.7 218.331 119.9 218.331 118.8C218.331 117.7 218.631 117.6 219.131 117.3C219.531 117 220.431 116.9 221.631 116.9C222.831 116.9 222.931 116.9 223.631 116.9H225.431C226.331 116.9 227.231 116.9 228.131 116.9C228.931 116.9 229.731 116.7 230.531 116.7C231.331 116.7 232.031 116.9 232.731 116.9C233.531 116.9 234.331 117.1 235.231 117.1C236.531 117.1 237.931 116.9 239.331 116.8C240.731 116.8 242.231 116.8 243.631 116.8C245.031 116.8 247.031 116.8 247.331 116.6C251.131 116.1 250.831 111 250.831 110.6L250.431 110.2ZM230.231 102.3C230.231 103.1 229.531 104 227.831 104C226.131 104 225.831 103.7 224.731 103.8C224.231 103.8 223.631 103.8 223.131 104H221.231C219.831 104 218.831 104.4 217.631 103.6C216.931 103.2 216.831 102.8 216.831 102.5C216.831 102.2 216.831 101.1 218.131 100.5C219.431 99.9 220.931 100.2 222.331 100.1C222.731 100.1 223.231 99.9 223.531 99.8C225.331 99.6 227.931 100.2 228.131 100.2C229.631 100.7 230.131 101.7 230.131 102.3" fill="#1F418C"/>
<path d="M277.431 77.9C277.431 77.5 277.431 77.3 277.431 76.9C277.431 76.5 277.431 75.8 277.031 75.1C276.431 74.5 275.431 74.4 273.731 74.4C272.031 74.4 271.131 74.4 269.831 74.4C268.831 74.4 268.531 74.4 268.131 74.8C267.431 75.2 266.531 76.2 265.331 77.4C264.731 78 264.131 78.6 263.431 79.2C262.731 79.8 261.831 80.3 261.231 80.9C260.731 81.3 258.931 83 257.031 84.1C254.131 85.6 252.431 85.6 251.731 87.5C251.531 87.9 251.331 89.6 251.331 90.1C251.331 90.6 251.531 91.2 251.331 91.7C251.331 92.4 251.331 93 251.331 93.7C251.331 94.7 251.531 95.6 251.531 96.6C251.531 98.9 250.931 99.7 251.731 100.8C252.331 101.9 253.331 101.8 253.731 101.9C254.231 101.9 254.731 102.3 255.031 102.8C255.231 103.2 255.431 104.6 255.431 106.1C255.431 108.7 255.031 111.3 255.031 114C255.031 116.7 255.331 117.9 255.331 119.8C255.331 121.7 255.331 121.5 255.331 122.3C255.331 123.1 255.331 124 255.331 124.8C255.331 128.3 255.631 131.1 256.431 132.4C256.831 133.2 257.331 133.4 258.031 134.1C258.331 134.4 258.831 134.8 258.831 134.9C259.231 135.1 259.231 135.1 259.831 135.3C260.231 135.5 260.631 135.7 261.031 135.8C261.931 136.2 262.331 136.2 262.931 136.3C263.631 136.5 264.231 136.7 264.831 136.8C265.531 136.8 266.231 136.8 266.831 137C267.431 137 267.931 137.3 268.531 137.4C269.331 137.4 270.231 137.6 271.131 137.6C272.031 137.6 272.431 137.4 273.131 137.4C273.631 137.4 274.231 137.4 274.831 137.4C276.531 137.4 278.131 137.1 279.731 137C280.231 137 280.831 137 281.231 136.8C282.131 136.6 282.431 136.5 282.931 136.4C283.731 136.1 283.931 136 284.231 135.8C284.931 135.4 285.831 134.5 285.931 132.6C285.931 132 285.731 131.4 285.731 130.7C285.731 129.8 286.031 129 286.031 128.1C286.031 127.2 286.031 127 285.831 126.2C285.631 125.1 285.631 124.6 285.631 124.1C285.631 123.2 285.631 123 285.631 122.4C285.631 122.4 285.831 121.1 285.831 121C285.831 119.5 284.331 118.9 283.931 118.8C283.431 118.6 283.031 118.8 282.531 118.8C282.031 118.8 281.731 118.8 281.431 118.8C280.731 118.8 280.031 119 279.331 119C277.531 119 277.431 117.6 277.431 115C277.431 114.2 277.431 113.5 277.431 112.8C277.431 112.1 277.231 110.9 277.231 109.9C277.231 108.9 277.231 108.7 277.431 108C277.431 107.1 277.231 105.2 277.431 104.3C277.431 103.9 277.831 103.4 278.331 103.2C279.531 102.7 280.931 103.2 282.331 103.2C283.731 103.2 285.231 102.4 285.631 101.7C285.931 101.2 285.931 100.6 285.931 100.4C285.931 99.4 285.631 98.5 285.631 97.7C285.631 96.9 286.031 96.1 286.031 95.3C286.031 94.5 286.031 94.3 285.831 93.9C285.831 93.5 285.831 92.9 285.831 92.5C285.831 92.1 285.831 91.3 285.831 90.6C285.831 90.1 286.031 89.5 286.031 88.8C286.031 87.8 285.531 86.9 284.531 86.6C284.131 86.4 283.431 86.6 283.331 86.6H282.131C281.331 86.6 279.531 86.9 278.631 86.4C277.331 85.7 277.431 84 277.531 81.5V78.4" fill="#1F418C"/>
<path d="M42.6309 54.3C43.7309 54.3 44.8309 54.5 46.0309 54.5C47.2309 54.5 47.1309 54.5 47.5309 53.7C47.8309 53.2 47.8309 52.4 47.8309 51.2C47.8309 50 47.8309 50.1 47.8309 49.6C47.8309 48.3 47.6309 47.1 47.6309 45.8C47.6309 44.5 47.6309 44 47.6309 43.2C47.8309 40.6 47.8309 38 47.8309 35.5C47.8309 32.7 47.6309 29.8 47.6309 27C47.6309 23.2 47.8309 19.4 47.8309 15.5C47.8309 11.6 47.8309 11.1 47.8309 8.89999C47.8309 7.29999 48.0309 5.8 48.1309 4.2C48.1309 3.5 48.3309 2.9 48.3309 2.2C48.3309 0.699997 47.0309 0.199997 46.5309 0.199997C46.0309 0.199997 45.9309 0.199997 45.6309 0.199997C45.1309 0.199997 44.7309 0.199997 44.3309 0.199997C43.3309 0.199997 42.3309 0.199997 41.3309 0.199997C40.2309 0.199997 39.2309 0 38.1309 0C37.0309 0 35.8309 0.199997 35.7309 0.199997C34.6309 0.499997 33.9309 2.3 33.6309 3C33.1309 4 32.5309 5.09999 32.1309 6.09999C31.5309 7.49999 31.1309 8.9 30.4309 10.2C29.8309 11.5 29.1309 12.8 28.4309 14.1C27.8309 15.5 27.6309 16.2 27.0309 16.9C26.8309 17.1 26.6309 17.4 26.4309 17.4C26.2309 17.4 25.8309 16.9 25.6309 16.6C24.8309 15.5 24.2309 14 23.5309 12.6C23.0309 11.6 22.4309 10.5 21.7309 9.5C21.2309 8.7 20.9309 7.99999 20.6309 7.39999C20.1309 6.49999 19.7309 5.59999 19.3309 4.59999C18.5309 2.59999 18.5309 1.79999 17.6309 0.899994C16.5309 -0.400006 15.6309 0.0999908 13.3309 0.0999908C12.6309 0.0999908 11.9309 0.0999908 11.2309 0.0999908C10.3309 0.0999908 9.43094 0.0999908 8.53094 0.0999908C7.73094 0.0999908 6.93094 0.0999908 6.13094 0.0999908C5.53094 0.0999908 5.23094 0.299994 5.03094 0.399994C4.23094 0.799994 4.03094 1.6 4.03094 2.2C4.03094 2.8 4.03094 2.99999 4.03094 3.29999V5.29999C4.03094 6.39999 4.33094 7.69999 4.33094 8.89999C4.33094 10.2 4.13094 11.5 4.13094 12.8C4.13094 15.9 4.33094 18.9 4.33094 21.9C4.33094 25.9 4.13094 29.8 4.13094 33.7C4.13094 37.6 4.13094 36.7 4.13094 38.1C4.13094 40 4.33094 41.8 4.33094 43.7C4.33094 45.6 4.33094 45.5 4.33094 46.4V47.9C4.33094 49.1 4.13094 50.5 4.13094 51.8C4.13094 53.1 3.93094 53.7 5.53094 54.2C6.63094 54.6 8.53094 54.2 8.63094 54.2C9.73094 54.2 10.7309 54.2 11.9309 54.2C14.0309 54.2 15.4309 54.4 16.4309 54.2C16.6309 54.2 17.5309 53.8 17.8309 53C18.0309 52.1 17.8309 50.6 17.8309 49.8C17.8309 48.3 17.8309 46.9 17.8309 45.4C17.8309 43.9 17.8309 42.4 18.0309 41C18.0309 39.8 18.0309 38.6 18.0309 37.5C18.0309 36.4 18.0309 35.2 18.0309 34.1C18.0309 33.1 18.0309 32.2 18.2309 31.3C18.2309 30.4 18.2309 29.2 18.5309 29.2C18.8309 29.2 19.6309 30.6 20.0309 31.5C20.4309 32.4 20.8309 33.3 21.2309 34.3C21.4309 34.5 21.6309 34.8 21.7309 35.1C22.4309 36.2 23.1309 37.2 23.6309 38.4C24.4309 39.9 24.9309 41 25.7309 41.4C25.9309 41.4 26.5309 41.6 27.2309 41.6C28.4309 41.6 29.0309 40.4 29.7309 38.5L30.6309 36.4C31.1309 35.3 31.7309 34.2 32.1309 33.1C32.6309 32 32.6309 31 33.3309 30C33.5309 29.7 33.7309 29.5 33.9309 29.5C34.1309 29.5 34.2309 29.8 34.2309 30.2C34.2309 30.6 34.2309 30.8 34.2309 31C34.2309 31.7 34.2309 32.5 34.2309 33.1C34.2309 34.6 34.4309 36.1 34.4309 37.6C34.4309 38.1 34.4309 38.6 34.4309 39.1C34.4309 39.8 34.2309 40.4 34.2309 41C34.2309 41.5 34.2309 42.1 34.2309 42.7C34.2309 43.4 34.2309 44 34.2309 44.6C34.2309 45.4 34.2309 46.3 34.2309 47C34.2309 47.7 34.2309 48.6 34.2309 49.4C34.2309 50.1 34.0309 50.8 34.0309 51.5C34.0309 52.2 34.0309 52.6 34.2309 52.9C34.4309 53.2 34.8309 53.7 35.5309 54C36.0309 54.2 36.2309 54.2 36.8309 54.2C37.4309 54.2 38.1309 54.2 38.8309 54H43.0309L42.6309 54.3ZM82.3309 35.1C82.3309 34.6 82.3309 34.1 82.3309 33.6C82.3309 32.4 82.1309 31.1 82.1309 29.8C82.1309 27.9 82.3309 26 82.3309 24.1C82.3309 22.2 82.1309 19.8 81.8309 19C81.6309 18.2 81.1309 17.2 80.5309 16.5C79.3309 15 77.6309 14.4 76.2309 13.8C72.1309 12.1 68.4309 12.2 67.0309 12.3C65.2309 12.3 63.5309 12.6 61.7309 12.9C61.0309 13.1 60.3309 13.2 59.6309 13.3C58.1309 13.6 56.6309 13.9 56.2309 14.1C55.2309 14.5 54.7309 15.3 54.7309 15.6C54.5309 16.1 54.7309 16.6 54.7309 17.1V21.2C54.7309 22.5 54.5309 23.9 55.5309 24.9C56.0309 25.4 56.7309 25.4 56.9309 25.4C57.8309 25.4 59.2309 24.6 60.1309 24.3C62.0309 23.5 63.6309 23.5 64.3309 23.5C65.0309 23.5 65.8309 23.7 66.5309 23.7C67.4309 23.7 68.8309 23.7 69.7309 24.4C70.4309 24.9 70.6309 25.9 70.6309 26.5C70.6309 27.1 70.3309 28.1 69.1309 28.1C67.9309 28.1 68.6309 28.1 68.4309 28.1C67.2309 27.9 66.0309 27.9 64.7309 27.9C62.1309 27.9 61.3309 28.4 58.7309 29.6C56.9309 30.4 56.0309 30.8 54.4309 32.8C54.2309 33.2 53.0309 34.6 52.6309 35.9C52.4309 36.5 52.3309 37.2 52.2309 37.8C52.0309 39.6 52.0309 41.5 52.0309 43.3C52.0309 45.1 52.0309 45.1 52.2309 46.3C52.4309 47 52.5309 47.6 52.7309 48.2C53.2309 49.3 53.5309 50 53.8309 50.5C56.0309 53.8 59.1309 54.9 60.2309 55.2C61.3309 55.4 62.4309 55.5 63.5309 55.5C64.6309 55.5 66.1309 55.5 68.0309 54.7C68.4309 54.5 69.0309 54.2 69.4309 53.9C69.7309 53.6 70.0309 53.2 70.4309 53.1C70.9309 53.1 70.9309 53.9 71.2309 54.2C71.4309 54.4 71.7309 54.8 72.3309 54.8C72.9309 54.8 72.9309 54.8 73.3309 54.8C74.3309 54.8 75.3309 54.6 76.3309 54.6C77.3309 54.6 79.9309 54.8 80.4309 54.6C81.2309 54.4 82.0309 53.9 82.0309 52.5C82.0309 51.1 81.8309 49.3 81.8309 47.8C81.8309 46.3 82.0309 44.4 82.0309 42.8C82.0309 41.2 82.0309 40.4 82.0309 39.1V35.4L82.3309 35.1ZM67.8309 36.7C70.2309 36.5 70.8309 39.2 70.8309 40.7C70.8309 42.2 70.5309 43.1 70.3309 43.6C70.3309 43.6 70.1309 44 69.9309 44.2C69.4309 44.7 68.8309 45.3 67.6309 45.3C66.4309 45.3 65.7309 44.5 65.3309 44C65.1309 43.7 64.7309 42.5 64.7309 41.5C64.7309 40.5 65.1309 39 65.2309 38.7C65.6309 38 66.5309 36.9 67.9309 36.8L67.8309 36.7ZM94.5309 4.09999C93.4309 4.09999 92.3309 4.09999 91.1309 4.09999C89.9309 4.09999 90.2309 4.09999 90.0309 4.29999C89.5309 4.49999 89.3309 4.89999 89.2309 5.09999C88.7309 5.89999 88.7309 6.69999 88.7309 6.89999C88.7309 8.69999 88.9309 10.6 88.9309 12.5C88.9309 14.4 88.9309 14.3 88.9309 14.4C88.7309 14.9 88.1309 15.2 87.9309 15.2C87.3309 15.4 86.9309 15.2 86.2309 15.7C85.7309 16.1 85.7309 16.5 85.6309 17.5V25.3C85.6309 25.8 85.3309 26.5 85.8309 27C86.3309 27.5 86.9309 27.3 87.4309 27.5C88.6309 27.9 88.5309 29 88.5309 30.9C88.5309 32.8 88.5309 33 88.5309 34.2C88.5309 36.6 88.5309 39 88.7309 41.4C88.7309 47.1 88.3309 49.7 90.4309 52.5C90.9309 53.1 91.2309 53.5 92.4309 54.1C94.6309 55.2 98.2309 54.8 98.4309 54.8H100.831C102.131 54.8 103.231 54.6 103.631 54.4C104.631 54 104.831 53 104.931 51.6C104.931 50.5 104.931 49.3 104.931 48.2V45.4C104.931 44.8 104.931 44.3 104.431 43.7C103.931 43.1 103.931 43.2 103.631 43.2C103.131 43 102.831 43.2 102.331 42.8C101.831 42.5 101.631 42 101.531 41.1C101.331 39.9 101.331 38.7 101.331 37.4C101.331 35.3 101.331 33 101.331 30.9C101.331 28.8 101.331 28.8 101.931 28.1C102.631 27.3 102.831 27.7 103.731 27.5C104.231 27.3 104.831 26.7 104.931 26.2C105.131 25.6 104.931 25.1 104.931 23.9V20.2C104.931 18.3 105.131 16.8 104.431 16.1C103.831 15.3 102.931 15.6 102.131 15.3C100.831 15 100.931 14.3 100.931 12.7C100.931 11.1 101.131 8.49999 101.131 6.39999C101.131 4.29999 101.131 5.3 100.431 4.7C99.6309 4.2 98.4309 4.29999 96.7309 4.29999H94.7309L94.5309 4.09999ZM130.531 17.1C130.531 16.6 130.531 16.1 130.531 15.6C130.531 15.1 130.731 14.5 130.731 14C130.731 12.6 129.631 12.1 129.131 11.9C128.631 11.9 128.531 11.9 128.231 11.9C127.431 11.9 126.431 11.9 124.731 13.5C124.531 13.7 123.931 14.3 123.831 14.6C123.631 14.9 123.031 16.1 122.531 16.1C122.031 16.1 122.331 15.9 122.331 15.5C122.331 14.7 122.831 13.3 121.831 12.7C121.331 12.4 120.431 12.4 120.431 12.4C119.931 12.4 119.431 12.4 118.931 12.4C118.131 12.4 117.131 12.4 116.231 12.4C115.331 12.4 114.731 12.4 114.131 12.4C113.431 12.4 112.731 12.2 112.031 12.2C110.331 12.2 109.831 13.6 109.631 14.3C109.631 14.7 109.631 15.1 109.631 15.6V18C109.631 19.2 109.831 20.4 109.631 21.7C109.631 22.5 109.631 23.4 109.431 24.2C109.431 25.1 109.431 26.1 109.431 27C109.431 27.9 109.431 28.8 109.431 29.7C109.431 31.5 109.631 33.3 109.631 35.1C109.631 36.9 109.431 37.8 109.431 39.1V46.4C109.431 47.6 109.631 48.9 109.431 50.1C109.231 51.7 109.131 52.8 109.431 53.4C109.631 54.3 110.831 54.8 111.531 54.8C112.231 54.8 112.531 54.6 112.931 54.6C113.731 54.6 114.431 54.6 115.231 54.6C116.031 54.6 117.331 54.6 118.331 54.6C119.831 54.6 120.831 54.8 121.731 54.1C122.431 53.6 122.331 52.4 122.331 51.9C122.331 51.3 122.131 50.6 122.131 50V46.9C122.131 45.8 122.131 44.8 122.131 43.7C122.131 43 122.331 42.3 122.331 41.6C122.331 40.9 122.331 40.2 122.331 39.5C122.331 37.4 122.331 35.3 122.331 33.2C122.331 31.1 122.331 30 124.131 28.5C125.231 27.7 126.231 27.7 126.531 27.7C127.231 27.7 128.031 27.9 128.631 27.9C129.631 27.9 130.131 27.3 130.431 26.8C130.831 25.7 130.431 24.2 130.431 21.8C130.431 19.4 130.431 19.7 130.431 18.6V16.9L130.531 17.1ZM162.731 35.1C162.731 34.6 162.731 34.1 162.731 33.6C162.731 32.4 162.531 31.1 162.531 29.8C162.531 27.9 162.731 26 162.731 24.1C162.731 22.2 162.531 19.8 162.231 19C162.031 18.2 161.531 17.2 160.931 16.5C159.731 15 158.031 14.4 156.631 13.8C152.531 12.1 148.831 12.2 147.431 12.3C145.631 12.3 143.931 12.6 142.131 12.9C141.431 13.1 140.731 13.2 140.031 13.3C138.531 13.6 137.031 13.9 136.631 14.1C135.631 14.5 135.131 15.3 135.131 15.6C134.931 16.1 135.131 16.6 135.131 17.1V21.2C135.131 22.5 134.931 23.9 135.931 24.9C136.431 25.4 137.131 25.4 137.331 25.4C138.231 25.4 139.631 24.6 140.531 24.3C142.431 23.5 144.031 23.5 144.731 23.5C145.431 23.5 146.231 23.7 146.931 23.7C147.831 23.7 149.231 23.7 150.131 24.4C150.831 24.9 151.031 25.9 151.031 26.5C151.031 27.1 150.731 28.1 149.531 28.1C148.331 28.1 149.031 28.1 148.831 28.1C147.631 27.9 146.431 27.9 145.131 27.9C142.531 27.9 141.731 28.4 139.131 29.6C137.331 30.4 136.431 30.8 134.831 32.8C134.631 33.2 133.431 34.6 133.031 35.9C132.831 36.5 132.731 37.2 132.631 37.8C132.431 39.6 132.431 41.5 132.431 43.3C132.431 45.1 132.431 45.1 132.631 46.3C132.831 47 132.931 47.6 133.131 48.2C133.631 49.3 133.931 50 134.231 50.5C136.431 53.8 139.531 54.9 140.631 55.2C141.731 55.4 142.831 55.5 143.931 55.5C145.031 55.5 146.531 55.5 148.431 54.7C148.831 54.5 149.431 54.2 149.831 53.9C150.131 53.6 150.431 53.2 150.831 53.1C151.331 53.1 151.331 53.9 151.631 54.2C151.831 54.4 152.131 54.8 152.731 54.8C153.331 54.8 153.331 54.8 153.731 54.8C154.731 54.8 155.731 54.6 156.731 54.6C157.731 54.6 160.331 54.8 160.831 54.6C161.631 54.4 162.431 53.9 162.431 52.5C162.431 51.1 162.231 49.3 162.231 47.8C162.231 46.3 162.431 44.4 162.431 42.8C162.431 41.2 162.431 40.4 162.431 39.1V35.4L162.731 35.1ZM148.131 36.7C150.531 36.5 151.131 39.2 151.131 40.7C151.131 42.2 150.831 43.1 150.631 43.6C150.631 43.6 150.431 44 150.231 44.2C149.731 44.7 149.131 45.3 147.931 45.3C146.731 45.3 146.031 44.5 145.631 44C145.431 43.7 145.031 42.5 145.031 41.5C145.031 40.5 145.431 39 145.531 38.7C145.931 38 146.831 36.9 148.231 36.8L148.131 36.7ZM174.931 4.09999C173.831 4.09999 172.731 4.09999 171.531 4.09999C170.331 4.09999 170.631 4.09999 170.431 4.29999C169.931 4.49999 169.731 4.89999 169.631 5.09999C169.131 5.89999 169.131 6.69999 169.131 6.89999C169.131 8.69999 169.331 10.6 169.331 12.5C169.331 14.4 169.331 14.3 169.331 14.4C169.131 14.9 168.531 15.2 168.331 15.2C167.731 15.4 167.331 15.2 166.631 15.7C166.131 16.1 166.131 16.5 166.031 17.5V25.3C166.031 25.8 165.731 26.5 166.231 27C166.731 27.5 167.331 27.3 167.831 27.5C169.031 27.9 168.931 29 168.931 30.9C168.931 32.8 168.931 33 168.931 34.2C168.931 36.6 168.931 39 169.131 41.4C169.131 47.1 168.731 49.7 170.831 52.5C171.331 53.1 171.631 53.5 172.831 54.1C175.031 55.2 178.631 54.8 178.831 54.8H181.231C182.531 54.8 183.631 54.6 184.031 54.4C185.031 54 185.231 53 185.331 51.6C185.331 50.5 185.331 49.3 185.331 48.2V45.4C185.331 44.8 185.331 44.3 184.831 43.7C184.631 43.5 184.331 43.2 184.031 43.2C183.531 43 183.231 43.2 182.731 42.8C182.231 42.5 182.031 42 181.931 41.1C181.731 39.9 181.731 38.7 181.731 37.4C181.731 35.3 181.731 33 181.731 30.9C181.731 28.8 181.731 28.8 182.331 28.1C183.031 27.3 183.231 27.7 184.131 27.5C184.631 27.3 185.231 26.7 185.331 26.2C185.531 25.6 185.331 25.1 185.331 23.9V20.2C185.331 18.3 185.531 16.8 184.831 16.1C184.231 15.3 183.331 15.6 182.531 15.3C181.231 15 181.331 14.3 181.331 12.7C181.331 11.1 181.531 8.49999 181.531 6.39999C181.531 4.29999 181.531 5.3 180.831 4.7C180.031 4.2 178.831 4.29999 177.131 4.29999H175.131L174.931 4.09999ZM193.531 12.9C192.931 12.9 192.231 12.7 191.631 12.9C190.431 12.9 189.831 13.7 189.531 14.4C189.331 14.9 189.331 16 189.331 17.4C189.331 18.8 189.331 19.2 189.331 20.1C189.331 21.1 189.131 22 189.131 23C189.131 24 190.031 24.8 190.431 25C191.031 25.3 191.731 25.2 192.331 25.2C192.931 25.2 193.831 25.4 194.531 25.4H196.331C196.631 25.4 198.131 25.2 198.131 26.5C198.131 27.8 197.731 27.7 197.031 28.9C195.531 31.5 194.031 34.1 192.931 36.8C192.531 37.7 192.131 38.7 191.831 39.6C191.631 39.9 191.031 42 190.031 43.6C188.631 46 188.231 45.7 188.231 48.3C188.231 50.9 188.031 52 188.231 52.7C188.431 53.5 189.031 54.4 189.931 54.7C190.431 54.9 191.031 54.9 192.131 54.9C194.231 54.7 196.331 54.9 198.431 54.9C199.931 54.9 201.431 54.9 202.831 54.9C203.731 54.9 204.631 54.9 205.631 54.9C206.631 54.9 207.631 54.9 208.731 54.9C210.231 54.9 210.731 55.3 211.531 55.1C211.831 55.1 212.631 54.8 213.031 54C213.231 53.6 213.231 53.4 213.231 53.2C213.231 52.8 213.231 52.5 213.031 52.1C213.031 51.6 213.031 51 213.031 50.5C213.031 48.9 213.031 47.4 213.231 45.8C213.231 45.2 213.431 44.6 213.431 44C213.431 42.5 212.131 42.4 211.631 42.4C211.131 42.4 210.531 42.6 210.031 42.6C208.931 42.8 207.831 42.6 206.631 42.8C205.931 42.8 204.231 42.6 204.231 41.4C204.231 40.2 205.431 38.1 205.531 38C206.631 35.9 207.631 33.9 208.631 31.8C209.631 29.7 210.331 27.7 211.331 25.7C212.231 23.9 213.431 21.8 213.531 21.3C213.731 20.7 213.731 19.9 213.731 19.8C213.731 18.8 213.731 17.9 213.731 16.9C213.731 15.9 213.731 14.7 213.231 14.1C212.431 13.3 211.331 13.4 210.431 13.3H208.531C207.131 13.3 205.731 13.3 204.331 13.3C202.931 13.3 201.431 13.3 200.031 13.3C198.331 13.3 196.631 13.3 195.031 13.3H193.531V12.9ZM233.031 12.7C230.831 12.7 229.631 12.9 227.431 13.5C225.231 14.1 224.531 14.6 223.331 15.3C222.231 16 221.031 16.8 219.431 19.3C218.731 20.4 218.431 21.1 218.231 21.6C217.131 24.5 217.131 28.7 217.131 29.2C217.131 30 217.131 30.7 217.131 31.6C217.131 32.5 216.931 33.5 216.931 34.5C216.931 35.5 217.131 36.9 217.131 38.2C217.331 40.8 216.931 41.4 218.531 45.8C219.431 48.5 219.731 49 222.431 51.2C223.731 52.3 224.331 52.9 225.131 53.3C225.631 53.5 226.131 53.7 226.631 53.8C227.331 54 228.131 54.3 228.731 54.4C230.931 54.9 233.431 54.9 234.131 54.9C239.131 54.9 244.631 54.4 246.031 53.9C247.131 53.5 247.831 52.7 248.131 52.1C248.331 51.7 248.131 51.1 248.131 50.2C248.131 49 248.131 47.8 248.131 46.5C248.131 45.2 248.131 44 247.131 43.2C246.431 42.7 245.931 42.8 245.631 42.8C244.931 42.8 244.731 42.8 244.331 43C243.831 43.2 243.431 43.5 242.931 43.7C240.831 44.5 236.931 44.5 236.731 44.5C235.931 44.5 235.131 44.3 234.331 44.1C233.231 43.9 232.331 43.9 231.331 43C230.331 42.1 230.331 41.2 230.331 40.2C230.331 39.2 230.331 39.4 230.531 39C230.931 38.4 231.631 38.5 231.731 38.5C232.231 38.5 232.731 38.3 233.231 38.3C234.731 38.3 236.231 38.6 237.631 38.6C239.031 38.6 239.831 38.6 241.031 38.6C241.731 38.6 242.431 38.4 243.131 38.4C245.531 38.4 246.431 38.9 247.631 37.6C248.731 36.2 248.731 35.3 248.731 32.7C248.731 30.1 248.931 27.6 248.531 25.1C248.031 22.2 247.031 20.1 246.231 18.9C245.231 17.4 243.731 15.8 242.831 15.3C242.431 15.1 240.831 14.1 239.431 13.6C237.631 13 234.731 12.7 232.831 12.7H233.031ZM232.131 30.1C231.031 30.1 229.831 30.5 229.831 28C229.831 25.5 230.131 26 230.331 25.5C230.531 24.7 230.531 23.4 231.631 22.6C231.831 22.4 232.531 22.2 233.131 22.1C235.131 21.9 235.931 23.6 236.231 24.2C236.831 25.7 236.631 27.9 236.631 28.2C236.631 28.9 236.831 29.5 236.031 30C235.431 30.5 235.131 30.2 233.931 30.2H232.131V30.1ZM266.031 30.2C266.031 29.6 266.031 27.2 266.331 26.5C266.331 26.2 266.831 25.2 267.931 24.8C268.231 24.6 268.431 24.6 268.631 24.6C268.831 24.6 269.631 24.6 270.331 25.1C271.231 25.8 271.131 26.7 271.131 27.7C271.131 29.6 270.931 31.4 270.831 33.3C270.831 34.6 270.831 35.9 270.831 37.1C270.831 39.9 271.031 42.6 271.031 45.3C271.031 48 270.831 48.9 270.731 50.7C270.731 51.2 270.731 51.7 270.731 52.2C270.731 52.7 270.731 53 271.231 53.7C271.931 54.5 272.731 54.5 273.431 54.5C274.831 54.5 276.231 54.3 277.631 54.3C279.031 54.3 279.031 54.3 279.731 54.3C280.231 54.3 280.731 54.5 281.231 54.5C282.131 54.5 282.731 54 283.031 53.7C283.831 52.6 283.831 50.4 283.631 47.7C283.431 46 283.631 44.4 283.631 42.7C283.631 41.2 283.631 39.6 283.631 38.1C283.631 36.6 283.831 34.6 283.831 32.8C283.831 31.3 283.831 29.7 283.831 28.1C283.831 25.8 284.031 23.5 283.831 21.2C283.631 20 283.331 18.9 283.231 18.4C283.031 18.1 282.731 17.1 282.431 16.7C280.231 12.9 276.431 11.7 273.231 11.8C271.131 12 269.731 12.6 269.031 12.9C268.531 13.1 268.031 13.4 267.531 13.7C267.331 13.9 266.731 14.2 266.531 14.2C266.031 14.2 266.031 13.7 265.931 13.1C265.631 12 264.431 12.1 264.231 12.1C263.531 12.1 262.831 12.1 262.231 12.3C261.431 12.3 260.531 12.3 259.731 12.3H258.531C257.831 12.3 257.231 12.1 256.531 12.1C254.931 12.1 254.231 13 254.031 13.8C253.831 14.4 253.831 16.2 253.831 16.7C253.831 18.2 254.031 19.6 254.031 21C254.031 21.8 254.031 22.7 254.031 23.5C254.031 24.9 254.031 26.3 254.031 27.6C254.031 31 253.631 34.6 253.631 38C253.631 41.4 253.831 43.8 253.831 46.7C253.831 49.6 253.831 48.6 253.831 49.5C253.831 50.7 253.031 54.2 255.831 54.2C256.331 54.2 256.631 54.2 257.131 54.2C257.831 54.2 258.431 54.2 259.131 54.2C259.831 54.2 260.831 54.2 261.631 54.2C262.631 54.2 263.631 54.4 264.531 54.4C265.431 54.4 266.131 53.6 266.231 53.1C266.531 52.2 266.231 50.1 266.231 47.6C266.231 45.1 266.431 42.6 266.431 40C266.431 37.4 266.231 36.5 266.231 34.7L266.431 29.9" fill="#1F418C"/>
</svg>
