<svg width="428" height="139" viewBox="0 0 428 139" fill="none" xmlns="http://www.w3.org/2000/svg">
<path d="M210.631 104.5C210.631 103.5 210.631 102.6 210.631 101.7C210.231 98.2 210.031 98.5 209.431 96.1C209.131 95.2 209.031 94.3 208.731 93.5C208.031 91.6 206.331 89.3 206.131 88.9C205.331 87.8 204.731 86.3 203.731 85.3C203.131 84.5 202.431 83.9 201.831 83.2C201.431 82.7 201.031 82.1 200.631 81.6C200.031 81 199.231 80.5 199.031 80.4C198.231 79.8 197.631 79.3 195.731 78.5C195.231 78.3 194.631 78.1 194.031 77.8C193.131 77.4 192.431 76.9 191.531 76.5C190.631 76.1 189.631 75.7 188.631 75.3C188.331 75.3 186.531 74.3 185.131 74C183.931 73.7 182.731 73.6 180.231 73.5C178.431 73.3 176.831 73.1 175.031 73.1C173.731 73.1 172.431 73.1 171.231 73.1C169.931 73.1 170.131 73.1 168.231 73.6C167.231 73.8 166.331 73.9 165.431 74.1C164.231 74.5 162.831 75 161.631 75.4C158.731 76.4 157.731 76.6 155.231 78.5C154.431 79 153.631 79.6 152.931 80.3C152.031 81.1 151.131 82.1 150.231 82.9C148.831 84.2 148.331 84.5 147.631 85.3C147.231 85.8 146.931 86.4 146.531 87L145.431 88.9C144.931 89.9 144.431 91 144.031 92.1C143.431 93.6 142.631 95.1 142.231 96.6C141.831 97.9 141.931 99.3 141.831 100.7C141.631 101.8 141.431 102.9 141.231 104.1C140.831 106.5 141.031 108.2 141.231 109.1V111C141.231 113.4 141.831 114.6 142.431 116.9C142.931 118.7 143.231 120.3 144.231 121.8C144.531 122.2 145.231 123.2 146.131 124.3C146.731 124.9 147.231 125.4 147.831 126.1C148.131 126.5 148.231 126.8 148.531 127.1C148.831 127.4 148.931 127.6 149.231 127.9C150.031 128.8 151.131 130.4 153.431 132L154.731 132.8C155.631 133.4 156.531 134.2 157.331 134.7C158.731 135.5 159.531 135.6 161.031 136.1C162.131 136.5 163.131 137.1 164.331 137.3C167.331 138.1 169.931 137.9 171.031 137.9C172.331 137.9 173.631 138.2 175.031 138.2C176.031 138.2 177.031 138.2 178.031 138.2C179.031 138.2 180.131 138.2 181.231 138C181.831 138 182.531 138 183.131 137.8C184.031 137.6 187.531 136.8 188.331 136.6C189.231 136.2 190.031 135.9 190.931 135.5C193.031 134.8 193.431 135 195.231 134C197.731 132.8 197.831 132.1 199.231 131.2C200.731 130.2 200.731 130.5 202.631 128.6C203.331 128 204.031 127.2 205.231 125.4C207.331 122.1 206.831 122 207.731 119.7C208.031 119.2 208.131 118.6 208.431 118.1C209.331 116.1 209.831 115.3 210.131 113.1C210.131 112.5 210.331 111.9 210.331 111.2C210.331 110.6 210.331 109.9 210.331 109.3C210.331 108.1 210.531 107.6 210.731 106.4C210.731 105.9 210.731 105.5 210.731 104.5H210.631ZM186.831 105.8C186.831 108.3 185.231 110.5 184.831 110.9C184.531 111.3 184.231 111.4 183.931 111.8C183.431 112.2 182.931 112.8 182.831 112.9C181.731 114.4 179.931 115 179.331 115.1C178.631 115.3 177.931 115.3 177.131 115.4C176.631 115.4 176.031 115.6 175.431 115.6C174.831 115.6 174.531 115.6 174.131 115.6C173.731 115.6 173.331 115.6 172.931 115.6C170.631 115.6 168.231 113.5 168.031 113.2C166.931 112.2 166.931 111.8 166.431 111.1C166.131 110.7 165.731 110.2 165.331 109.7C164.931 109.2 164.231 107.7 164.231 105.8C164.231 103.9 165.331 102.2 165.731 101.4C166.131 100.6 166.231 100 166.931 99.3C167.631 98.4 168.131 98.2 170.031 97.4C171.131 96.9 172.031 96.2 173.231 95.8C173.831 95.6 174.731 95.5 175.331 95.5C177.231 95.5 178.231 96 179.031 96.3C180.231 96.8 180.931 96.8 182.231 97.5C182.631 97.8 183.931 98.5 184.831 99.6C185.231 100.2 185.531 100.8 185.931 102.3C186.331 103.4 186.731 104.4 186.831 105.7" fill="#1F418C"/>
<path d="M265.831 100.6C265.831 99.9 265.831 99.2 266.031 98.6C266.031 98.1 266.031 97.5 266.031 97.1C266.031 96.7 266.031 95.9 266.031 95.2C266.031 94.7 266.031 94.1 266.231 93.6C266.431 92.5 266.631 91.4 266.631 90.3C266.631 88 264.631 86.4 264.031 86.2C263.331 85.9 262.731 85.9 261.931 85.9C260.431 85.9 258.931 86.2 257.431 86.2C255.931 86.2 255.031 86.2 253.831 86.2C252.531 86.2 251.231 86.4 249.831 86.5C247.931 86.5 245.731 85.4 244.231 87.1C243.731 87.6 243.331 88.3 243.331 90C243.331 91.7 243.631 93.4 243.631 95C243.631 96.6 243.231 98.8 243.231 100.6C243.231 102.4 243.231 101.7 243.231 102.1V104.4C243.231 105 243.431 105.6 243.431 106.3C243.431 107 243.431 106.9 243.231 107.7C242.831 110 243.531 111.9 241.731 113.9C241.131 114.6 240.631 114.7 240.231 114.7C239.331 114.7 238.831 114.3 238.531 114.1C237.331 113.1 237.031 110.9 237.031 110.7C236.731 108.8 236.631 106.6 236.631 106C236.631 105 236.631 104.1 236.831 103.2C236.831 102.2 237.131 101.3 237.231 100.5C237.231 99.4 237.031 98.2 237.031 97.1C237.031 96 237.031 95 237.031 94C237.031 93.5 237.031 93 237.031 92.6C237.031 91.8 237.031 91 237.031 90.2C237.031 89.1 236.631 88.5 236.331 88.1C235.231 86.6 232.931 86.3 232.431 86.3C231.631 86.3 230.931 86.3 230.131 86.5C229.231 86.5 228.331 86.5 227.531 86.5C226.731 86.5 225.031 86.8 223.831 86.8C222.631 86.8 222.231 86.8 221.431 86.6C220.931 86.6 220.331 86.6 219.931 86.6C219.531 86.6 218.831 86.6 218.331 86.6C217.831 86.6 215.831 86.6 214.831 88C214.431 88.5 214.331 89.1 214.131 90.4C213.731 92.5 213.931 94.3 214.131 95.2C214.131 96.4 214.131 97.7 213.931 99C213.931 100.1 213.931 101.3 213.931 102.4C213.931 103.3 213.931 104.2 213.931 105C213.931 105.8 213.931 107.2 213.931 108.3C213.931 109.2 213.731 110 213.631 110.9C213.631 111.7 213.431 112.6 213.431 113.4C213.431 114.8 213.431 116.2 213.431 117.6C213.431 118.9 213.831 120.2 213.831 121.6C214.031 123.9 213.831 126.9 214.831 129.2C215.131 129.8 215.831 131 216.231 131.6C217.331 133.1 218.231 134 218.831 134.4C219.931 135.3 220.931 135.5 221.431 135.8C222.031 136.1 222.631 136.5 223.331 136.8C224.231 137.2 225.531 137.3 225.731 137.3C226.831 137.5 227.931 138 230.231 138C232.531 138 234.931 137.8 236.131 137.5C236.831 137.3 237.431 137.1 238.031 136.8C240.031 136.2 240.131 136.4 241.731 134.9C242.131 134.5 242.531 134.1 242.831 133.6C243.231 133.2 243.531 133 243.831 133C244.631 133 245.031 134.9 245.231 135.3C245.631 136.4 246.431 137.3 248.731 137.3H251.431C252.831 137.3 254.131 137 255.531 137C256.931 137 261.231 137.4 263.031 136.8C263.431 136.8 263.931 136.4 264.231 136.2C265.131 135.4 265.531 134 265.531 132.8C265.531 131.6 265.031 129.9 265.031 129.9C265.031 129.5 264.831 128 264.831 126.6C264.831 125.2 265.031 123.4 265.031 121.9C265.031 120 265.031 118 265.031 116.1C265.031 114.4 265.431 112.7 265.431 111C265.431 109.3 265.431 109.4 265.431 108.5C265.431 107.9 265.431 107.3 265.431 106.6C265.431 105.9 265.431 105.3 265.231 104.7V100.9" fill="#1F418C"/>
<path d="M296.831 77.9C296.831 77.5 296.831 77.3 296.831 76.9C296.831 76.5 296.831 75.8 296.431 75.1C295.831 74.5 294.831 74.4 293.131 74.4C291.431 74.4 290.531 74.4 289.231 74.4C288.231 74.4 287.931 74.4 287.531 74.8C286.831 75.2 285.931 76.2 284.731 77.4C284.131 78 283.531 78.6 282.831 79.2C282.131 79.8 281.231 80.3 280.631 80.9C280.131 81.3 278.331 83 276.431 84.1C273.531 85.6 271.831 85.6 271.131 87.5C270.931 87.9 270.731 89.6 270.731 90.1C270.731 90.6 270.931 91.2 270.731 91.7C270.731 92.4 270.731 93 270.731 93.7C270.731 94.7 270.931 95.6 270.931 96.6C270.931 98.9 270.331 99.7 271.131 100.8C271.731 101.9 272.731 101.8 273.131 101.9C273.631 101.9 274.131 102.3 274.431 102.8C274.631 103.2 274.831 104.6 274.831 106.1C274.831 108.7 274.431 111.3 274.431 114C274.431 116.7 274.731 117.9 274.731 119.8C274.731 121.7 274.731 121.5 274.731 122.3C274.731 123.1 274.731 124 274.731 124.8C274.731 128.3 275.031 131.1 275.831 132.4C276.231 133.2 276.731 133.4 277.431 134.1C277.731 134.4 278.231 134.8 278.231 134.9C278.631 135.1 278.631 135.1 279.231 135.3C279.631 135.5 280.031 135.7 280.431 135.8C281.331 136.2 281.731 136.2 282.331 136.3C283.031 136.5 283.631 136.7 284.231 136.8C284.931 136.8 285.631 136.8 286.231 137C286.831 137 287.331 137.3 287.931 137.4C288.731 137.4 289.631 137.6 290.531 137.6C291.431 137.6 291.831 137.4 292.531 137.4C293.031 137.4 293.631 137.4 294.231 137.4C295.931 137.4 297.531 137.1 299.131 137C299.631 137 300.231 137 300.631 136.8C301.531 136.6 301.831 136.5 302.331 136.4C303.131 136.1 303.331 136 303.631 135.8C304.331 135.4 305.231 134.5 305.331 132.6C305.331 132 305.131 131.4 305.131 130.7C305.131 129.8 305.431 129 305.431 128.1C305.431 127.2 305.431 127 305.231 126.2C305.031 125.1 305.031 124.6 305.031 124.1C305.031 123.2 305.031 123 305.031 122.4C305.031 122.4 305.231 121.1 305.231 121C305.231 119.5 303.731 118.9 303.331 118.8C302.831 118.6 302.431 118.8 301.931 118.8C301.431 118.8 301.131 118.8 300.831 118.8C300.131 118.8 299.431 119 298.731 119C296.931 119 296.831 117.6 296.831 115C296.831 114.2 296.831 113.5 296.831 112.8C296.831 112.1 296.631 110.9 296.631 109.9C296.631 108.9 296.631 108.7 296.831 108C296.831 107.1 296.631 105.2 296.831 104.3C296.831 103.9 297.231 103.4 297.731 103.2C298.931 102.7 300.331 103.2 301.731 103.2C303.131 103.2 304.631 102.4 305.031 101.7C305.331 101.2 305.331 100.6 305.331 100.4C305.331 99.4 305.031 98.5 305.031 97.7C305.031 96.9 305.431 96.1 305.431 95.3C305.431 94.5 305.431 94.3 305.231 93.9C305.231 93.5 305.231 92.9 305.231 92.5C305.231 92.1 305.231 91.3 305.231 90.6C305.231 90.1 305.431 89.5 305.431 88.8C305.431 87.8 304.931 86.9 303.931 86.6C303.531 86.4 302.831 86.6 302.731 86.6H301.531C300.731 86.6 298.931 86.9 298.031 86.4C296.731 85.7 296.831 84 296.931 81.5V78.4" fill="#1F418C"/>
<path d="M310.031 125C310.031 126 310.031 126.9 310.031 128C310.031 129 310.031 129.9 310.031 130.9C310.031 132.5 310.031 133.3 310.431 134C310.931 135.2 312.731 136.9 316.031 136.9C319.331 136.9 319.031 136.7 320.431 136.6C322.331 136.6 324.131 136.6 325.931 136.6C327.731 136.6 327.031 136.6 327.531 136.6C328.031 136.6 328.531 136.6 329.031 136.6C329.431 136.6 330.031 136.6 330.431 136.4C331.231 136.2 331.931 135.6 332.131 135.4C332.431 135.2 332.631 134.8 332.831 134.4C333.531 132.6 333.531 132.1 333.531 131C333.531 128.8 332.931 126.8 332.831 124.6C332.831 124 332.831 123.3 332.831 122.7C332.831 122.1 332.831 121.5 332.831 120.8C332.831 119.2 333.031 117.6 333.031 116.1C333.031 114.6 332.731 113 332.731 111.5C332.731 110 332.931 109.3 333.031 108.1C333.031 107.5 333.031 106.8 333.031 106.2C333.031 105.7 333.031 105.1 333.031 104.5C333.031 103.9 333.031 103.6 333.031 103.2C333.031 102.5 332.831 101.7 332.831 100.9C332.831 99.7 333.131 98.4 333.231 97.2C333.231 95.7 333.231 94.2 333.231 92.7C333.231 91.2 333.231 90.9 333.231 90.1C333.231 89.4 333.031 88.7 332.931 88C332.931 87.3 332.931 86.5 332.931 85.7C332.931 84.5 332.931 83.1 333.131 81.9C333.131 80.8 333.331 79.6 333.331 78.5C333.331 77.4 333.331 76.2 332.131 75C330.931 73.8 330.831 74.1 329.131 74.2C327.931 74.2 326.631 74.4 325.431 74.5C324.031 74.5 322.531 74.2 321.231 74.2C319.931 74.2 320.131 74.2 319.531 74.2C319.131 74.2 318.631 74.2 318.131 74.2C317.631 74.2 317.031 74.2 316.431 74.2C314.931 74.2 314.631 74 313.731 74.2C312.531 74.5 311.631 75.5 311.331 75.9C310.931 76.7 310.431 78.5 310.431 79.4C310.431 80.3 310.431 80.8 310.631 81.5C310.631 82.9 310.931 84.3 310.931 85.7C310.931 87.1 310.931 87.2 310.931 88C310.931 89 310.931 90 310.931 91C310.931 92.7 310.731 94.3 310.731 95.9C310.731 97.5 311.031 99.9 311.031 101.8C311.031 103.7 310.631 105.5 310.631 107.4C310.631 109.3 310.831 110.2 310.931 111.5V113.3C310.931 113.7 310.931 114.3 310.731 114.7C310.731 115.4 310.931 116.2 310.931 116.9C310.931 117.6 310.931 118.1 310.931 118.8C310.931 119.7 310.931 120.6 310.931 121.4L310.631 124.6" fill="#1F418C"/>
<path d="M391.431 110.2C391.431 109.6 391.431 109 391.431 108.7C391.231 108 391.031 107.2 391.031 106.5C391.031 105.7 391.031 104.9 391.031 104.1C391.031 103.7 390.631 102.4 390.631 102C390.231 100.9 390.131 99.7 389.631 98.6C389.231 97.9 388.831 97.4 388.531 96.7C388.131 95.9 388.031 95.6 387.431 94.9C386.931 94.3 386.331 93.7 385.631 93.1C383.931 91.4 383.731 90.8 381.631 89.6C381.031 89.3 380.531 89.1 379.931 88.7C378.431 87.8 378.331 87.6 377.331 87.3C376.531 86.9 375.631 86.9 374.731 86.6C374.031 86.4 373.231 86.2 372.531 86C371.631 85.8 370.631 85.7 369.731 85.6C367.831 85.4 365.931 85.2 364.031 85.2C363.231 85.2 362.331 85.2 361.531 85.2C360.831 85.2 360.231 85.4 359.531 85.5C358.231 85.5 357.731 85.5 355.531 86.1C355.031 86.3 354.431 86.5 353.831 86.7C353.031 87.1 352.231 87.6 351.331 87.9C349.431 88.6 349.431 88.4 346.731 90.1C344.031 91.9 343.731 92.7 342.631 94.2C342.031 94.9 341.231 95.5 340.731 96.3C340.431 96.7 340.131 97.4 339.631 98.5C339.331 99.1 339.031 99.7 338.731 100.4C338.731 100.7 337.731 103.2 337.631 103.6C337.631 104.1 337.431 104.7 337.331 105.3C337.131 105.9 336.931 106.4 336.831 107.1C336.531 107.9 336.431 110.1 336.431 112.6C336.431 115.1 336.431 113.9 336.631 114.5C336.831 115.5 337.031 116.4 337.331 117.3C338.531 121.9 339.831 123.2 341.131 125.2C341.531 125.6 341.731 126.1 342.031 126.5C342.331 126.9 342.731 127.4 343.131 127.8C343.431 128.1 343.531 128.4 343.831 128.7C344.231 129.2 344.731 129.6 345.231 130C347.631 132.1 349.131 132.6 350.331 133.4C352.231 134.4 352.131 134.5 355.131 135.4C355.631 135.6 356.231 135.8 356.931 135.9C357.631 136.1 358.431 136.1 359.131 136.3C359.931 136.6 360.631 136.9 361.431 137.1C361.931 137.1 362.531 137.1 363.131 137.3C363.631 137.3 364.231 137.6 364.831 137.7C365.031 137.7 368.331 138.1 368.631 138.1C369.231 138.1 369.831 138.1 370.531 138.1C371.231 138.1 371.831 138.1 372.531 138.1C372.931 138.1 373.431 138.1 373.931 138.1C374.731 138.1 375.531 138.1 376.331 138.1C377.131 138.1 377.931 138.1 378.731 137.9C382.431 137.9 383.131 137.6 385.331 137.1C386.431 136.8 388.731 136.5 388.731 133.3C388.731 130.1 388.531 131.7 388.431 130.9C388.431 130.4 388.431 129.8 388.431 129.2C388.431 128.1 388.431 127 388.631 125.9C388.631 125.2 388.831 124.5 388.831 123.8C388.831 121.2 386.331 121 385.731 121C384.431 121 382.731 121.7 381.531 121.9C380.431 122.1 378.531 121.9 375.931 121.9C373.331 121.9 373.231 121.9 371.831 121.9C370.831 121.9 369.931 121.6 369.031 121.5C368.531 121.5 367.931 121.5 367.831 121.5H366.531C365.631 121.5 364.131 121.8 362.031 121.1C361.131 120.7 359.331 119.9 359.331 118.8C359.331 117.7 359.631 117.6 360.131 117.3C360.531 117 361.431 116.9 362.631 116.9C363.831 116.9 363.931 116.9 364.631 116.9H366.431C367.331 116.9 368.231 116.9 369.131 116.9C369.931 116.9 370.731 116.7 371.531 116.7C372.331 116.7 373.031 116.9 373.731 116.9C374.531 116.9 375.331 117.1 376.231 117.1C377.531 117.1 378.931 116.9 380.331 116.8C381.731 116.8 383.231 116.8 384.631 116.8C386.031 116.8 388.031 116.8 388.331 116.6C392.131 116.1 391.831 111 391.831 110.6L391.431 110.2ZM371.231 102.3C371.231 103.1 370.531 104 368.831 104C367.131 104 366.831 103.7 365.731 103.8C365.231 103.8 364.631 103.8 364.131 104H362.231C360.831 104 359.831 104.4 358.631 103.6C357.931 103.2 357.831 102.8 357.831 102.5C357.831 102.2 357.831 101.1 359.131 100.5C360.431 99.9 361.931 100.2 363.331 100.1C363.731 100.1 364.231 99.9 364.531 99.8C366.331 99.6 368.931 100.2 369.131 100.2C370.631 100.7 371.131 101.7 371.131 102.3" fill="#1F418C"/>
<path d="M418.431 77.9C418.431 77.5 418.431 77.3 418.431 76.9C418.431 76.5 418.431 75.8 418.031 75.1C417.431 74.5 416.431 74.4 414.731 74.4C413.031 74.4 412.131 74.4 410.831 74.4C409.831 74.4 409.531 74.4 409.131 74.8C408.431 75.2 407.531 76.2 406.331 77.4C405.731 78 405.131 78.6 404.431 79.2C403.731 79.8 402.831 80.3 402.231 80.9C401.731 81.3 399.931 83 398.031 84.1C395.131 85.6 393.431 85.6 392.731 87.5C392.531 87.9 392.331 89.6 392.331 90.1C392.331 90.6 392.531 91.2 392.331 91.7C392.331 92.4 392.331 93 392.331 93.7C392.331 94.7 392.531 95.6 392.531 96.6C392.531 98.9 391.931 99.7 392.731 100.8C393.331 101.9 394.331 101.8 394.731 101.9C395.231 101.9 395.731 102.3 396.031 102.8C396.231 103.2 396.431 104.6 396.431 106.1C396.431 108.7 396.031 111.3 396.031 114C396.031 116.7 396.331 117.9 396.331 119.8C396.331 121.7 396.331 121.5 396.331 122.3C396.331 123.1 396.331 124 396.331 124.8C396.331 128.3 396.631 131.1 397.431 132.4C397.831 133.2 398.331 133.4 399.031 134.1C399.331 134.4 399.831 134.8 399.831 134.9C400.231 135.1 400.231 135.1 400.831 135.3C401.231 135.5 401.631 135.7 402.031 135.8C402.931 136.2 403.331 136.2 403.931 136.3C404.631 136.5 405.231 136.7 405.831 136.8C406.531 136.8 407.231 136.8 407.831 137C408.431 137 408.931 137.3 409.531 137.4C410.331 137.4 411.231 137.6 412.131 137.6C413.031 137.6 413.431 137.4 414.131 137.4C414.631 137.4 415.231 137.4 415.831 137.4C417.531 137.4 419.131 137.1 420.731 137C421.231 137 421.831 137 422.231 136.8C423.131 136.6 423.431 136.5 423.931 136.4C424.731 136.1 424.931 136 425.231 135.8C425.931 135.4 426.831 134.5 426.931 132.6C426.931 132 426.731 131.4 426.731 130.7C426.731 129.8 427.031 129 427.031 128.1C427.031 127.2 427.031 127 426.831 126.2C426.631 125.1 426.631 124.6 426.631 124.1C426.631 123.2 426.631 123 426.631 122.4C426.631 122.4 426.831 121.1 426.831 121C426.831 119.5 425.331 118.9 424.931 118.8C424.431 118.6 424.031 118.8 423.531 118.8C423.031 118.8 422.731 118.8 422.431 118.8C421.731 118.8 421.031 119 420.331 119C418.531 119 418.431 117.6 418.431 115C418.431 114.2 418.431 113.5 418.431 112.8C418.431 112.1 418.231 110.9 418.231 109.9C418.231 108.9 418.231 108.7 418.431 108C418.431 107.1 418.231 105.2 418.431 104.3C418.431 103.9 418.831 103.4 419.331 103.2C420.531 102.7 421.931 103.2 423.331 103.2C424.731 103.2 426.231 102.4 426.631 101.7C426.931 101.2 426.931 100.6 426.931 100.4C426.931 99.4 426.631 98.5 426.631 97.7C426.631 96.9 427.031 96.1 427.031 95.3C427.031 94.5 427.031 94.3 426.831 93.9C426.831 93.5 426.831 92.9 426.831 92.5C426.831 92.1 426.831 91.3 426.831 90.6C426.831 90.1 427.031 89.5 427.031 88.8C427.031 87.8 426.531 86.9 425.531 86.6C425.131 86.4 424.431 86.6 424.331 86.6H423.131C422.331 86.6 420.531 86.9 419.631 86.4C418.331 85.7 418.431 84 418.531 81.5V78.4" fill="#1F418C"/>
<path d="M183.631 54.3C184.731 54.3 185.831 54.5 187.031 54.5C188.231 54.5 188.131 54.5 188.531 53.7C188.831 53.2 188.831 52.4 188.831 51.2C188.831 50 188.831 50.1 188.831 49.6C188.831 48.3 188.631 47.1 188.631 45.8C188.631 44.5 188.631 44 188.631 43.2C188.831 40.6 188.831 38 188.831 35.5C188.831 32.7 188.631 29.8 188.631 27C188.631 23.2 188.831 19.4 188.831 15.5C188.831 11.6 188.831 11.1 188.831 8.89999C188.831 7.29999 189.031 5.8 189.131 4.2C189.131 3.5 189.331 2.9 189.331 2.2C189.331 0.699997 188.031 0.199997 187.531 0.199997C187.031 0.199997 186.931 0.199997 186.631 0.199997C186.131 0.199997 185.731 0.199997 185.331 0.199997C184.331 0.199997 183.331 0.199997 182.331 0.199997C181.231 0.199997 180.231 0 179.131 0C178.031 0 176.831 0.199997 176.731 0.199997C175.631 0.499997 174.931 2.3 174.631 3C174.131 4 173.531 5.09999 173.131 6.09999C172.531 7.49999 172.131 8.9 171.431 10.2C170.831 11.5 170.131 12.8 169.431 14.1C168.831 15.5 168.631 16.2 168.031 16.9C167.831 17.1 167.631 17.4 167.431 17.4C167.231 17.4 166.831 16.9 166.631 16.6C165.831 15.5 165.231 14 164.531 12.6C164.031 11.6 163.431 10.5 162.731 9.5C162.231 8.7 161.931 7.99999 161.631 7.39999C161.131 6.49999 160.731 5.59999 160.331 4.59999C159.531 2.59999 159.531 1.79999 158.631 0.899994C157.531 -0.400006 156.631 0.0999908 154.331 0.0999908C153.631 0.0999908 152.931 0.0999908 152.231 0.0999908C151.331 0.0999908 150.431 0.0999908 149.531 0.0999908C148.731 0.0999908 147.931 0.0999908 147.131 0.0999908C146.531 0.0999908 146.231 0.299994 146.031 0.399994C145.231 0.799994 145.031 1.6 145.031 2.2C145.031 2.8 145.031 2.99999 145.031 3.29999V5.29999C145.031 6.39999 145.331 7.69999 145.331 8.89999C145.331 10.2 145.131 11.5 145.131 12.8C145.131 15.9 145.331 18.9 145.331 21.9C145.331 25.9 145.131 29.8 145.131 33.7C145.131 37.6 145.131 36.7 145.131 38.1C145.131 40 145.331 41.8 145.331 43.7C145.331 45.6 145.331 45.5 145.331 46.4V47.9C145.331 49.1 145.131 50.5 145.131 51.8C145.131 53.1 144.931 53.7 146.531 54.2C147.631 54.6 149.531 54.2 149.631 54.2C150.731 54.2 151.731 54.2 152.931 54.2C155.031 54.2 156.431 54.4 157.431 54.2C157.631 54.2 158.531 53.8 158.831 53C159.031 52.1 158.831 50.6 158.831 49.8C158.831 48.3 158.831 46.9 158.831 45.4C158.831 43.9 158.831 42.4 159.031 41C159.031 39.8 159.031 38.6 159.031 37.5C159.031 36.4 159.031 35.2 159.031 34.1C159.031 33.1 159.031 32.2 159.231 31.3C159.231 30.4 159.231 29.2 159.531 29.2C159.831 29.2 160.631 30.6 161.031 31.5C161.431 32.4 161.831 33.3 162.231 34.3C162.431 34.5 162.631 34.8 162.731 35.1C163.431 36.2 164.131 37.2 164.631 38.4C165.431 39.9 165.931 41 166.731 41.4C166.931 41.4 167.531 41.6 168.231 41.6C169.431 41.6 170.031 40.4 170.731 38.5L171.631 36.4C172.131 35.3 172.731 34.2 173.131 33.1C173.631 32 173.631 31 174.331 30C174.531 29.7 174.731 29.5 174.931 29.5C175.131 29.5 175.231 29.8 175.231 30.2C175.231 30.6 175.231 30.8 175.231 31C175.231 31.7 175.231 32.5 175.231 33.1C175.231 34.6 175.431 36.1 175.431 37.6C175.431 38.1 175.431 38.6 175.431 39.1C175.431 39.8 175.231 40.4 175.231 41C175.231 41.5 175.231 42.1 175.231 42.7C175.231 43.4 175.231 44 175.231 44.6C175.231 45.4 175.231 46.3 175.231 47C175.231 47.7 175.231 48.6 175.231 49.4C175.231 50.1 175.031 50.8 175.031 51.5C175.031 52.2 175.031 52.6 175.231 52.9C175.431 53.2 175.831 53.7 176.531 54C177.031 54.2 177.231 54.2 177.831 54.2C178.431 54.2 179.131 54.2 179.831 54H184.031L183.631 54.3ZM223.331 35.1C223.331 34.6 223.331 34.1 223.331 33.6C223.331 32.4 223.131 31.1 223.131 29.8C223.131 27.9 223.331 26 223.331 24.1C223.331 22.2 223.131 19.8 222.831 19C222.631 18.2 222.131 17.2 221.531 16.5C220.331 15 218.631 14.4 217.231 13.8C213.131 12.1 209.431 12.2 208.031 12.3C206.231 12.3 204.531 12.6 202.731 12.9C202.031 13.1 201.331 13.2 200.631 13.3C199.131 13.6 197.631 13.9 197.231 14.1C196.231 14.5 195.731 15.3 195.731 15.6C195.531 16.1 195.731 16.6 195.731 17.1V21.2C195.731 22.5 195.531 23.9 196.531 24.9C197.031 25.4 197.731 25.4 197.931 25.4C198.831 25.4 200.231 24.6 201.131 24.3C203.031 23.5 204.631 23.5 205.331 23.5C206.031 23.5 206.831 23.7 207.531 23.7C208.431 23.7 209.831 23.7 210.731 24.4C211.431 24.9 211.631 25.9 211.631 26.5C211.631 27.1 211.331 28.1 210.131 28.1C208.931 28.1 209.631 28.1 209.431 28.1C208.231 27.9 207.031 27.9 205.731 27.9C203.131 27.9 202.331 28.4 199.731 29.6C197.931 30.4 197.031 30.8 195.431 32.8C195.231 33.2 194.031 34.6 193.631 35.9C193.431 36.5 193.331 37.2 193.231 37.8C193.031 39.6 193.031 41.5 193.031 43.3C193.031 45.1 193.031 45.1 193.231 46.3C193.431 47 193.531 47.6 193.731 48.2C194.231 49.3 194.531 50 194.831 50.5C197.031 53.8 200.131 54.9 201.231 55.2C202.331 55.4 203.431 55.5 204.531 55.5C205.631 55.5 207.131 55.5 209.031 54.7C209.431 54.5 210.031 54.2 210.431 53.9C210.731 53.6 211.031 53.2 211.431 53.1C211.931 53.1 211.931 53.9 212.231 54.2C212.431 54.4 212.731 54.8 213.331 54.8C213.931 54.8 213.931 54.8 214.331 54.8C215.331 54.8 216.331 54.6 217.331 54.6C218.331 54.6 220.931 54.8 221.431 54.6C222.231 54.4 223.031 53.9 223.031 52.5C223.031 51.1 222.831 49.3 222.831 47.8C222.831 46.3 223.031 44.4 223.031 42.8C223.031 41.2 223.031 40.4 223.031 39.1V35.4L223.331 35.1ZM208.831 36.7C211.231 36.5 211.831 39.2 211.831 40.7C211.831 42.2 211.531 43.1 211.331 43.6C211.331 43.6 211.131 44 210.931 44.2C210.431 44.7 209.831 45.3 208.631 45.3C207.431 45.3 206.731 44.5 206.331 44C206.131 43.7 205.731 42.5 205.731 41.5C205.731 40.5 206.131 39 206.231 38.7C206.631 38 207.531 36.9 208.931 36.8L208.831 36.7ZM235.531 4.09999C234.431 4.09999 233.331 4.09999 232.131 4.09999C230.931 4.09999 231.231 4.09999 231.031 4.29999C230.531 4.49999 230.331 4.89999 230.231 5.09999C229.731 5.89999 229.731 6.69999 229.731 6.89999C229.731 8.69999 229.931 10.6 229.931 12.5C229.931 14.4 229.931 14.3 229.931 14.4C229.731 14.9 229.131 15.2 228.931 15.2C228.331 15.4 227.931 15.2 227.231 15.7C226.731 16.1 226.731 16.5 226.631 17.5V25.3C226.631 25.8 226.331 26.5 226.831 27C227.331 27.5 227.931 27.3 228.431 27.5C229.631 27.9 229.531 29 229.531 30.9C229.531 32.8 229.531 33 229.531 34.2C229.531 36.6 229.531 39 229.731 41.4C229.731 47.1 229.331 49.7 231.431 52.5C231.931 53.1 232.231 53.5 233.431 54.1C235.631 55.2 239.231 54.8 239.431 54.8H241.831C243.131 54.8 244.231 54.6 244.631 54.4C245.631 54 245.831 53 245.931 51.6C245.931 50.5 245.931 49.3 245.931 48.2V45.4C245.931 44.8 245.931 44.3 245.431 43.7C244.931 43.1 244.931 43.2 244.631 43.2C244.131 43 243.831 43.2 243.331 42.8C242.831 42.5 242.631 42 242.531 41.1C242.331 39.9 242.331 38.7 242.331 37.4C242.331 35.3 242.331 33 242.331 30.9C242.331 28.8 242.331 28.8 242.931 28.1C243.631 27.3 243.831 27.7 244.731 27.5C245.231 27.3 245.831 26.7 245.931 26.2C246.131 25.6 245.931 25.1 245.931 23.9V20.2C245.931 18.3 246.131 16.8 245.431 16.1C244.831 15.3 243.931 15.6 243.131 15.3C241.831 15 241.931 14.3 241.931 12.7C241.931 11.1 242.131 8.49999 242.131 6.39999C242.131 4.29999 242.131 5.3 241.431 4.7C240.631 4.2 239.431 4.29999 237.731 4.29999H235.731L235.531 4.09999ZM271.531 17.1C271.531 16.6 271.531 16.1 271.531 15.6C271.531 15.1 271.731 14.5 271.731 14C271.731 12.6 270.631 12.1 270.131 11.9C269.631 11.9 269.531 11.9 269.231 11.9C268.431 11.9 267.431 11.9 265.731 13.5C265.531 13.7 264.931 14.3 264.831 14.6C264.631 14.9 264.031 16.1 263.531 16.1C263.031 16.1 263.331 15.9 263.331 15.5C263.331 14.7 263.831 13.3 262.831 12.7C262.331 12.4 261.431 12.4 261.431 12.4C260.931 12.4 260.431 12.4 259.931 12.4C259.131 12.4 258.131 12.4 257.231 12.4C256.331 12.4 255.731 12.4 255.131 12.4C254.431 12.4 253.731 12.2 253.031 12.2C251.331 12.2 250.831 13.6 250.631 14.3C250.631 14.7 250.631 15.1 250.631 15.6V18C250.631 19.2 250.831 20.4 250.631 21.7C250.631 22.5 250.631 23.4 250.431 24.2C250.431 25.1 250.431 26.1 250.431 27C250.431 27.9 250.431 28.8 250.431 29.7C250.431 31.5 250.631 33.3 250.631 35.1C250.631 36.9 250.431 37.8 250.431 39.1V46.4C250.431 47.6 250.631 48.9 250.431 50.1C250.231 51.7 250.131 52.8 250.431 53.4C250.631 54.3 251.831 54.8 252.531 54.8C253.231 54.8 253.531 54.6 253.931 54.6C254.731 54.6 255.431 54.6 256.231 54.6C257.031 54.6 258.331 54.6 259.331 54.6C260.831 54.6 261.831 54.8 262.731 54.1C263.431 53.6 263.331 52.4 263.331 51.9C263.331 51.3 263.131 50.6 263.131 50V46.9C263.131 45.8 263.131 44.8 263.131 43.7C263.131 43 263.331 42.3 263.331 41.6C263.331 40.9 263.331 40.2 263.331 39.5C263.331 37.4 263.331 35.3 263.331 33.2C263.331 31.1 263.331 30 265.131 28.5C266.231 27.7 267.231 27.7 267.531 27.7C268.231 27.7 269.031 27.9 269.631 27.9C270.631 27.9 271.131 27.3 271.431 26.8C271.831 25.7 271.431 24.2 271.431 21.8C271.431 19.4 271.431 19.7 271.431 18.6V16.9L271.531 17.1ZM303.731 35.1C303.731 34.6 303.731 34.1 303.731 33.6C303.731 32.4 303.531 31.1 303.531 29.8C303.531 27.9 303.731 26 303.731 24.1C303.731 22.2 303.531 19.8 303.231 19C303.031 18.2 302.531 17.2 301.931 16.5C300.731 15 299.031 14.4 297.631 13.8C293.531 12.1 289.831 12.2 288.431 12.3C286.631 12.3 284.931 12.6 283.131 12.9C282.431 13.1 281.731 13.2 281.031 13.3C279.531 13.6 278.031 13.9 277.631 14.1C276.631 14.5 276.131 15.3 276.131 15.6C275.931 16.1 276.131 16.6 276.131 17.1V21.2C276.131 22.5 275.931 23.9 276.931 24.9C277.431 25.4 278.131 25.4 278.331 25.4C279.231 25.4 280.631 24.6 281.531 24.3C283.431 23.5 285.031 23.5 285.731 23.5C286.431 23.5 287.231 23.7 287.931 23.7C288.831 23.7 290.231 23.7 291.131 24.4C291.831 24.9 292.031 25.9 292.031 26.5C292.031 27.1 291.731 28.1 290.531 28.1C289.331 28.1 290.031 28.1 289.831 28.1C288.631 27.9 287.431 27.9 286.131 27.9C283.531 27.9 282.731 28.4 280.131 29.6C278.331 30.4 277.431 30.8 275.831 32.8C275.631 33.2 274.431 34.6 274.031 35.9C273.831 36.5 273.731 37.2 273.631 37.8C273.431 39.6 273.431 41.5 273.431 43.3C273.431 45.1 273.431 45.1 273.631 46.3C273.831 47 273.931 47.6 274.131 48.2C274.631 49.3 274.931 50 275.231 50.5C277.431 53.8 280.531 54.9 281.631 55.2C282.731 55.4 283.831 55.5 284.931 55.5C286.031 55.5 287.531 55.5 289.431 54.7C289.831 54.5 290.431 54.2 290.831 53.9C291.131 53.6 291.431 53.2 291.831 53.1C292.331 53.1 292.331 53.9 292.631 54.2C292.831 54.4 293.131 54.8 293.731 54.8C294.331 54.8 294.331 54.8 294.731 54.8C295.731 54.8 296.731 54.6 297.731 54.6C298.731 54.6 301.331 54.8 301.831 54.6C302.631 54.4 303.431 53.9 303.431 52.5C303.431 51.1 303.231 49.3 303.231 47.8C303.231 46.3 303.431 44.4 303.431 42.8C303.431 41.2 303.431 40.4 303.431 39.1V35.4L303.731 35.1ZM289.131 36.7C291.531 36.5 292.131 39.2 292.131 40.7C292.131 42.2 291.831 43.1 291.631 43.6C291.631 43.6 291.431 44 291.231 44.2C290.731 44.7 290.131 45.3 288.931 45.3C287.731 45.3 287.031 44.5 286.631 44C286.431 43.7 286.031 42.5 286.031 41.5C286.031 40.5 286.431 39 286.531 38.7C286.931 38 287.831 36.9 289.231 36.8L289.131 36.7ZM315.931 4.09999C314.831 4.09999 313.731 4.09999 312.531 4.09999C311.331 4.09999 311.631 4.09999 311.431 4.29999C310.931 4.49999 310.731 4.89999 310.631 5.09999C310.131 5.89999 310.131 6.69999 310.131 6.89999C310.131 8.69999 310.331 10.6 310.331 12.5C310.331 14.4 310.331 14.3 310.331 14.4C310.131 14.9 309.531 15.2 309.331 15.2C308.731 15.4 308.331 15.2 307.631 15.7C307.131 16.1 307.131 16.5 307.031 17.5V25.3C307.031 25.8 306.731 26.5 307.231 27C307.731 27.5 308.331 27.3 308.831 27.5C310.031 27.9 309.931 29 309.931 30.9C309.931 32.8 309.931 33 309.931 34.2C309.931 36.6 309.931 39 310.131 41.4C310.131 47.1 309.731 49.7 311.831 52.5C312.331 53.1 312.631 53.5 313.831 54.1C316.031 55.2 319.631 54.8 319.831 54.8H322.231C323.531 54.8 324.631 54.6 325.031 54.4C326.031 54 326.231 53 326.331 51.6C326.331 50.5 326.331 49.3 326.331 48.2V45.4C326.331 44.8 326.331 44.3 325.831 43.7C325.631 43.5 325.331 43.2 325.031 43.2C324.531 43 324.231 43.2 323.731 42.8C323.231 42.5 323.031 42 322.931 41.1C322.731 39.9 322.731 38.7 322.731 37.4C322.731 35.3 322.731 33 322.731 30.9C322.731 28.8 322.731 28.8 323.331 28.1C324.031 27.3 324.231 27.7 325.131 27.5C325.631 27.3 326.231 26.7 326.331 26.2C326.531 25.6 326.331 25.1 326.331 23.9V20.2C326.331 18.3 326.531 16.8 325.831 16.1C325.231 15.3 324.331 15.6 323.531 15.3C322.231 15 322.331 14.3 322.331 12.7C322.331 11.1 322.531 8.49999 322.531 6.39999C322.531 4.29999 322.531 5.3 321.831 4.7C321.031 4.2 319.831 4.29999 318.131 4.29999H316.131L315.931 4.09999ZM334.531 12.9C333.931 12.9 333.231 12.7 332.631 12.9C331.431 12.9 330.831 13.7 330.531 14.4C330.331 14.9 330.331 16 330.331 17.4C330.331 18.8 330.331 19.2 330.331 20.1C330.331 21.1 330.131 22 330.131 23C330.131 24 331.031 24.8 331.431 25C332.031 25.3 332.731 25.2 333.331 25.2C333.931 25.2 334.831 25.4 335.531 25.4H337.331C337.631 25.4 339.131 25.2 339.131 26.5C339.131 27.8 338.731 27.7 338.031 28.9C336.531 31.5 335.031 34.1 333.931 36.8C333.531 37.7 333.131 38.7 332.831 39.6C332.631 39.9 332.031 42 331.031 43.6C329.631 46 329.231 45.7 329.231 48.3C329.231 50.9 329.031 52 329.231 52.7C329.431 53.5 330.031 54.4 330.931 54.7C331.431 54.9 332.031 54.9 333.131 54.9C335.231 54.7 337.331 54.9 339.431 54.9C340.931 54.9 342.431 54.9 343.831 54.9C344.731 54.9 345.631 54.9 346.631 54.9C347.631 54.9 348.631 54.9 349.731 54.9C351.231 54.9 351.731 55.3 352.531 55.1C352.831 55.1 353.631 54.8 354.031 54C354.231 53.6 354.231 53.4 354.231 53.2C354.231 52.8 354.231 52.5 354.031 52.1C354.031 51.6 354.031 51 354.031 50.5C354.031 48.9 354.031 47.4 354.231 45.8C354.231 45.2 354.431 44.6 354.431 44C354.431 42.5 353.131 42.4 352.631 42.4C352.131 42.4 351.531 42.6 351.031 42.6C349.931 42.8 348.831 42.6 347.631 42.8C346.931 42.8 345.231 42.6 345.231 41.4C345.231 40.2 346.431 38.1 346.531 38C347.631 35.9 348.631 33.9 349.631 31.8C350.631 29.7 351.331 27.7 352.331 25.7C353.231 23.9 354.431 21.8 354.531 21.3C354.731 20.7 354.731 19.9 354.731 19.8C354.731 18.8 354.731 17.9 354.731 16.9C354.731 15.9 354.731 14.7 354.231 14.1C353.431 13.3 352.331 13.4 351.431 13.3H349.531C348.131 13.3 346.731 13.3 345.331 13.3C343.931 13.3 342.431 13.3 341.031 13.3C339.331 13.3 337.631 13.3 336.031 13.3H334.531V12.9ZM374.031 12.7C371.831 12.7 370.631 12.9 368.431 13.5C366.231 14.1 365.531 14.6 364.331 15.3C363.231 16 362.031 16.8 360.431 19.3C359.731 20.4 359.431 21.1 359.231 21.6C358.131 24.5 358.131 28.7 358.131 29.2C358.131 30 358.131 30.7 358.131 31.6C358.131 32.5 357.931 33.5 357.931 34.5C357.931 35.5 358.131 36.9 358.131 38.2C358.331 40.8 357.931 41.4 359.531 45.8C360.431 48.5 360.731 49 363.431 51.2C364.731 52.3 365.331 52.9 366.131 53.3C366.631 53.5 367.131 53.7 367.631 53.8C368.331 54 369.131 54.3 369.731 54.4C371.931 54.9 374.431 54.9 375.131 54.9C380.131 54.9 385.631 54.4 387.031 53.9C388.131 53.5 388.831 52.7 389.131 52.1C389.331 51.7 389.131 51.1 389.131 50.2C389.131 49 389.131 47.8 389.131 46.5C389.131 45.2 389.131 44 388.131 43.2C387.431 42.7 386.931 42.8 386.631 42.8C385.931 42.8 385.731 42.8 385.331 43C384.831 43.2 384.431 43.5 383.931 43.7C381.831 44.5 377.931 44.5 377.731 44.5C376.931 44.5 376.131 44.3 375.331 44.1C374.231 43.9 373.331 43.9 372.331 43C371.331 42.1 371.331 41.2 371.331 40.2C371.331 39.2 371.331 39.4 371.531 39C371.931 38.4 372.631 38.5 372.731 38.5C373.231 38.5 373.731 38.3 374.231 38.3C375.731 38.3 377.231 38.6 378.631 38.6C380.031 38.6 380.831 38.6 382.031 38.6C382.731 38.6 383.431 38.4 384.131 38.4C386.531 38.4 387.431 38.9 388.631 37.6C389.731 36.2 389.731 35.3 389.731 32.7C389.731 30.1 389.931 27.6 389.531 25.1C389.031 22.2 388.031 20.1 387.231 18.9C386.231 17.4 384.731 15.8 383.831 15.3C383.431 15.1 381.831 14.1 380.431 13.6C378.631 13 375.731 12.7 373.831 12.7H374.031ZM373.131 30.1C372.031 30.1 370.831 30.5 370.831 28C370.831 25.5 371.131 26 371.331 25.5C371.531 24.7 371.531 23.4 372.631 22.6C372.831 22.4 373.531 22.2 374.131 22.1C376.131 21.9 376.931 23.6 377.231 24.2C377.831 25.7 377.631 27.9 377.631 28.2C377.631 28.9 377.831 29.5 377.031 30C376.431 30.5 376.131 30.2 374.931 30.2H373.131V30.1ZM407.031 30.2C407.031 29.6 407.031 27.2 407.331 26.5C407.331 26.2 407.831 25.2 408.931 24.8C409.231 24.6 409.431 24.6 409.631 24.6C409.831 24.6 410.631 24.6 411.331 25.1C412.231 25.8 412.131 26.7 412.131 27.7C412.131 29.6 411.931 31.4 411.831 33.3C411.831 34.6 411.831 35.9 411.831 37.1C411.831 39.9 412.031 42.6 412.031 45.3C412.031 48 411.831 48.9 411.731 50.7C411.731 51.2 411.731 51.7 411.731 52.2C411.731 52.7 411.731 53 412.231 53.7C412.931 54.5 413.731 54.5 414.431 54.5C415.831 54.5 417.231 54.3 418.631 54.3C420.031 54.3 420.031 54.3 420.731 54.3C421.231 54.3 421.731 54.5 422.231 54.5C423.131 54.5 423.731 54 424.031 53.7C424.831 52.6 424.831 50.4 424.631 47.7C424.431 46 424.631 44.4 424.631 42.7C424.631 41.2 424.631 39.6 424.631 38.1C424.631 36.6 424.831 34.6 424.831 32.8C424.831 31.3 424.831 29.7 424.831 28.1C424.831 25.8 425.031 23.5 424.831 21.2C424.631 20 424.331 18.9 424.231 18.4C424.031 18.1 423.731 17.1 423.431 16.7C421.231 12.9 417.431 11.7 414.231 11.8C412.131 12 410.731 12.6 410.031 12.9C409.531 13.1 409.031 13.4 408.531 13.7C408.331 13.9 407.731 14.2 407.531 14.2C407.031 14.2 407.031 13.7 406.931 13.1C406.631 12 405.431 12.1 405.231 12.1C404.531 12.1 403.831 12.1 403.231 12.3C402.431 12.3 401.531 12.3 400.731 12.3H399.531C398.831 12.3 398.231 12.1 397.531 12.1C395.931 12.1 395.231 13 395.031 13.8C394.831 14.4 394.831 16.2 394.831 16.7C394.831 18.2 395.031 19.6 395.031 21C395.031 21.8 395.031 22.7 395.031 23.5C395.031 24.9 395.031 26.3 395.031 27.6C395.031 31 394.631 34.6 394.631 38C394.631 41.4 394.831 43.8 394.831 46.7C394.831 49.6 394.831 48.6 394.831 49.5C394.831 50.7 394.031 54.2 396.831 54.2C397.331 54.2 397.631 54.2 398.131 54.2C398.831 54.2 399.431 54.2 400.131 54.2C400.831 54.2 401.831 54.2 402.631 54.2C403.631 54.2 404.631 54.4 405.531 54.4C406.431 54.4 407.131 53.6 407.231 53.1C407.531 52.2 407.231 50.1 407.231 47.6C407.231 45.1 407.431 42.6 407.431 40C407.431 37.4 407.231 36.5 407.231 34.7L407.431 29.9" fill="#1F418C"/>
<path d="M56.5444 132.9C62.3444 132.9 68.0444 132.1 73.6444 130.6C78.8444 129.2 83.7444 127.2 88.5444 124.6C95.2444 121.1 100.944 116.4 106.044 110.7C109.344 107 112.244 102.9 114.644 98.6C116.144 95.9 117.344 93.2 118.444 90.3C119.444 87.5 120.344 84.7 120.944 81.8C122.444 75.2 122.944 68.6 122.344 61.9C121.744 54.7 120.044 47.8 117.044 41.2C114.344 35 110.744 29.4 106.244 24.4C98.1444 15.4 88.2444 9 76.7444 5.4C76.4444 5.4 76.1444 5.2 75.8444 5.1C74.3444 4.8 73.1444 6.1 73.4444 7.6C73.6444 8.2 73.8444 8.9 74.2444 9.4C80.1444 17.4 83.6444 26.3 84.9444 36.1C86.3444 46.6 84.9444 56.7 80.7444 66.4C77.7444 73.5 73.5444 79.8 68.0444 85.3C63.1444 90.1 57.6444 93.9 51.4444 96.8C44.4444 100.1 37.0444 102 29.3444 102.4C21.4444 102.8 13.7444 101.8 6.34441 99.2C5.54441 98.9 4.84442 98.6 4.04442 98.4C3.34442 98.3 2.64442 98.2 2.04442 98.4C0.844419 98.8 0.444413 100.2 0.944413 101.4C1.14441 101.8 1.44442 102.3 1.74442 102.7C5.54442 108.6 10.0444 113.8 15.5444 118.1C23.4444 124.3 32.1444 128.9 41.9444 131.2C46.7444 132.3 51.7444 132.9 56.6444 132.9" fill="#1F418C"/>
</svg>
